<?xml version="1.0" standalone="no"?>
<!DOCTYPE svg PUBLIC "-//W3C//DTD SVG 1.1//EN" "http://www.w3.org/Graphics/SVG/1.1/DTD/svg11.dtd" >
<svg>
<metadata>
Created by FontForge 20090914 at Sat Nov 20 10:17:29 2021
 By www-data
Copyright 2011 The Emberly Project Authors (https://github.com/rajputrajesh448/../fonts)
</metadata>
<defs>
<font id="Moniqa-BlackNarrowDisplay" horiz-adv-x="349" >
  <font-face
    font-family="Moniqa Black Narrow Display"
    font-weight="900"
    font-stretch="semi-condensed"
    units-per-em="1000"
    panose-1="0 0 0 0 0 0 0 0 0 0"
    ascent="800"
    descent="-200"
    x-height="494"
    cap-height="699"
    bbox="-78 -180 1596 853.005"
    underline-thickness="0"
    underline-position="0"
    unicode-range="U+000D-U+1F852"
  />
<missing-glyph horiz-adv-x="534"
d="M30 699h474v-699h-474v699zM81 658v-609h373v609h-373z" />
    <glyph glyph-name="f_f" unicode="ff" horiz-adv-x="378"
d="M233 0l-0.00195312 489h-77v-489h-111v489h-45v6h45v74c0 38 11.5 69.167 34.5 93.5s52.833 36.5 89.5 36.5c32.667 0 64.334 -9.66699 95.001 -29c22.667 26 53.334 39 92.001 39c35.333 0 68.333 -11 99 -33l-4 -5c-26 18 -48 27 -66 27c-27.333 0 -41 -22 -41 -66
v-137h80v-6h-80v-489h-111zM155.998 495h77v90c0 30 9 56.667 27 80c-21.333 14.667 -41.333 22 -60 22c-29.333 0 -44 -22.333 -44 -67v-125z" />
    <glyph glyph-name="fi" unicode="fi" horiz-adv-x="385"
d="M45 495v90c0 36 11.667 65.667 35 89s53 35 89 35c39.333 0 76.333 -14.333 111 -43l-4 -5c-14 11.333 -28 20.333 -42 27s-26.667 10 -38 10c-26.667 0 -40 -22 -40 -66v-137h187v-495h-111v489h-76v-489h-111v489h-45v6h45z" />
    <glyph glyph-name="fl" unicode="fl" horiz-adv-x="372"
d="M45 495v90c0 36 11.667 65.667 35 89s53 35 89 35c19.333 0 40.333 -4.33301 63 -13v3h111v-699h-111v489h-76v-489h-111v489h-45v6h45zM232 495v194c-12.667 6 -24.667 9 -36 9c-26.667 0 -40 -22 -40 -66v-137h76z" />
    <glyph glyph-name="f_f_i" unicode="ffi" horiz-adv-x="572"
d="M233 0l-0.00195312 489h-77v-489h-111v489h-45v6h45v74c0 38 11.5 69.167 34.5 93.5s52.833 36.5 89.5 36.5c32.667 0 64.334 -9.66699 95.001 -29c22.667 26 53.334 39 92.001 39c40 0 77.333 -14.333 112 -43l-4 -5c-14 11.333 -28 20.333 -42 27s-26.667 10 -38 10
c-26.667 0 -40 -22 -40 -66v-137h187v-495h-111v489h-76v-489h-111zM199.998 687c-29.333 0 -44 -22.333 -44 -67v-125h77v90c0 30 9 56.667 27 80c-21.333 14.667 -41.333 22 -60 22z" />
    <glyph glyph-name="f_f_l" unicode="ffl" horiz-adv-x="559"
d="M233 0l-0.000976562 489h-77v-489h-111v489h-45v6h45v74c0 38 11.5 69.167 34.5 93.5s52.833 36.5 89.5 36.5c34 0 65.667 -9.66699 95 -29c22.667 26 53.334 39 92.001 39c20 0 41.333 -4.33301 64 -13v3h111v-699h-111v489h-76v-489h-111zM419.999 495v194
c-12.667 6 -24.667 9 -36 9c-26.667 0 -40 -22 -40 -66v-137h76zM199.999 687c-29.333 0 -44 -22.333 -44 -67v-125h77v90c0 30 9 56.667 27 80c-21.333 14.667 -41.333 22 -60 22z" />
    <glyph glyph-name="f_b" unicode="fb" horiz-adv-x="549"
d="M45 489h-45v6h45v90c0 36 11.667 65.667 35 89s53 35 89 35c19.333 0 40.333 -4.33301 63 -13v3h111v-248h2c6.66699 20 14.667 34 24 42s21.333 12 36 12c15.333 0 30 -3.66699 44 -11s26.333 -17 37 -29s19.167 -26 25.5 -42s9.5 -32.667 9.5 -50v-258
c0 -16.667 -3.16699 -32.5 -9.5 -47.5s-14.666 -28.167 -24.999 -39.5s-22.333 -20.5 -36 -27.5s-28.167 -10.5 -43.5 -10.5s-27.833 4 -37.5 12s-17.834 21.667 -24.501 41h-2v-43h-111v489h-76v-489h-111v489zM232 495v194c-12.667 6 -24.667 9 -36 9
c-26.667 0 -40 -22 -40 -66v-137h76zM343 75c0 -8 1.16797 -16.333 3.50098 -25s5.5 -16.5 9.5 -23.5s8.5 -12.667 13.5 -17s9.83301 -6.5 14.5 -6.5c6.66699 0 12 3.5 16 10.5s6 16.167 6 27.5v414c0 11.333 -1.83301 20.5 -5.5 27.5s-8.83398 10.5 -15.501 10.5
c-4.66699 0 -9.5 -2.33301 -14.5 -7s-9.5 -10.5 -13.5 -17.5s-7.33301 -15 -10 -24s-4 -18.167 -4 -27.5v-342z" />
    <glyph glyph-name="f_h" unicode="fh" horiz-adv-x="553"
d="M45 489l-45 0.00195312v6h45v90c0 36 11.667 65.667 35 89s53 35 89 35c19.333 0 40.333 -4.33301 63 -13v3h111v-266h2c9.33301 25.333 20.5 43.666 33.5 54.999s28.833 17 47.5 17c14 0 27 -2.83301 39 -8.5s22.5 -13.334 31.5 -23.001s16.167 -21 21.5 -34
s8 -26.833 8 -41.5v-398h-118v450c0 25.333 -5 38 -15 38c-4.66699 0 -10 -3 -16 -9s-11.5 -13.5 -16.5 -22.5s-9.16699 -18.5 -12.5 -28.5s-5 -19.333 -5 -28v-400h-111v489h-76v-489h-111v489zM232 689.002c-12.667 6 -24.667 9 -36 9c-26.667 0 -40 -22 -40 -66v-137h76
v194z" />
    <glyph glyph-name="f_j" unicode="fj" horiz-adv-x="377"
d="M343 46c0 -24 -2.66406 -46.168 -7.99707 -66.501s-14 -39.166 -26 -56.499s-27.333 -33.833 -46 -49.5s-41.667 -31.5 -69 -47.5l-3 4c7.33301 6.66699 13.666 12.667 18.999 18s9.66602 11.5 12.999 18.5s5.66602 15.5 6.99902 25.5s2 22.667 2 38v559h-76v-489h-111
v489h-45v6h45v90c0 36 11.667 65.667 35 89s53 35 89 35c39.333 0 76.333 -14.333 111 -43l-4 -5c-14 11.333 -28 20.333 -42 27s-26.667 10 -38 10c-26.667 0 -40 -22 -40 -66v-137h187v-449z" />
    <glyph glyph-name="f_k" unicode="fk" horiz-adv-x="567"
d="M344 699v-699h-111v489h-77v-489h-111v489h-45v6h45v90c0 36 11.667 65.667 35 89s53 35 89 35c20.667 0 42 -4.66699 64 -14v4h111zM233 495v193.999c-6.66699 2.66699 -13 4.83398 -19 6.50098s-11.667 2.5 -17 2.5c-27.333 0 -41 -22 -41 -66v-137h77zM431 389.999
l145 -390h-115l-96 295v5l125 195h9z" />
    <glyph glyph-name="f_f_b" unicode="ffb" horiz-adv-x="737"
d="M709 115c0 -16.667 -3.16992 -32.499 -9.50293 -47.499s-14.666 -28.167 -24.999 -39.5s-22.5 -20.5 -36.5 -27.5s-28.667 -10.5 -44 -10.5s-27.666 4 -36.999 12s-17.333 21.667 -24 41h-2v-43h-111v489h-76v-489h-111v489h-77v-489h-111v489h-45v6h45v74
c0 38 11.5 69.167 34.5 93.5s52.833 36.5 89.5 36.5c34 0 65.667 -9.66699 95 -29c22.667 26 53.334 39 92.001 39c20 0 41.333 -4.33301 64 -13v3h111v-248h2c6.66699 19.333 14.5 33.166 23.5 41.499s21.167 12.5 36.5 12.5s30 -3.66699 44 -11s26.333 -17 37 -29
s19.167 -26 25.5 -42s9.5 -32.667 9.5 -50v-258zM419.997 495.001v194c-12.667 6 -24.667 9 -36 9c-26.667 0 -40 -22 -40 -66v-137h76zM155.997 495.001h77v90c0 30 9 56.667 27 80c-21.333 14.667 -41.333 22 -60 22c-29.333 0 -44 -22.333 -44 -67v-125zM530.997 75.001
c0 -8 1.16797 -16.333 3.50098 -25s5.5 -16.5 9.5 -23.5s8.5 -12.667 13.5 -17s9.83301 -6.5 14.5 -6.5c6.66699 0 12 3.5 16 10.5s6 16.167 6 27.5v414c0 11.333 -1.83301 20.5 -5.5 27.5s-8.83398 10.5 -15.501 10.5c-4.66699 0 -9.5 -2.33301 -14.5 -7
s-9.5 -10.5 -13.5 -17.5s-7.33301 -15 -10 -24s-4 -18.167 -4 -27.5v-342z" />
    <glyph glyph-name="f_f_h" unicode="ffh" horiz-adv-x="740"
d="M45 489l-45.0029 0.00195312v6h45v74c0 40.667 12 72.5 36 95.5s53.333 34.5 88 34.5c32.667 0 64.334 -9.66699 95.001 -29c22.667 26 53.334 39 92.001 39c20.667 0 42 -4.66699 64 -14v4h111v-266h2c9.33301 25.333 20.333 43.666 33 54.999s28.334 17 47.001 17
c14 0 27 -2.83301 39 -8.5s22.5 -13.334 31.5 -23.001s16.167 -21 21.5 -34s8 -26.833 8 -41.5v-398h-118v450c0 25.333 -4.66699 38 -14 38c-4.66699 0 -10 -3 -16 -9s-11.5 -13.5 -16.5 -22.5s-9.16699 -18.5 -12.5 -28.5s-5 -19.333 -5 -28v-400h-111v489h-76v-489h-111
v489h-77v-489h-111v489zM419.997 495.002v193.999c-6 2.66699 -12 4.83398 -18 6.50098s-11.667 2.5 -17 2.5c-15.333 0 -26 -6 -32 -18s-9 -28 -9 -48v-137h76zM155.997 495.001h76.999v90c0 30 9 56.667 27 80c-9.33301 6.66699 -19.166 12 -29.499 16s-20.5 6 -30.5 6
c-29.333 0 -44 -22.333 -44 -67v-125z" />
    <glyph glyph-name="f_f_j" unicode="ffj" horiz-adv-x="564"
d="M531 46c0 -24 -2.66602 -46.168 -7.99902 -66.501s-14 -39.166 -26 -56.499s-27.333 -33.833 -46 -49.5s-41.667 -31.5 -69 -47.5l-3 4c7.33301 6.66699 13.666 12.667 18.999 18s9.66602 11.5 12.999 18.5s5.66602 15.5 6.99902 25.5s2 22.667 2 38v559h-76v-489h-111
v489h-77v-489h-111v489h-45v6h45v74c0 38 11.5 69.167 34.5 93.5s52.833 36.5 89.5 36.5c32.667 0 64.334 -9.66699 95.001 -29c22.667 26 53.334 39 92.001 39c40 0 77.333 -14.333 112 -43l-4 -5c-14 11.333 -28 20.333 -42 27s-26.667 10 -38 10
c-26.667 0 -40 -22 -40 -66v-137h187v-449zM156.001 494.999h77v90c0 30 9 56.667 27 80c-21.333 14.667 -41.333 22 -60 22c-29.333 0 -44 -22.333 -44 -67v-125z" />
    <glyph glyph-name="f_f_k" unicode="ffk" horiz-adv-x="754"
d="M531 0h-111.002v489h-76v-489h-111v489h-77v-489h-111v489h-45v6h45v74c0 38 11.5 69.167 34.5 93.5s52.833 36.5 89.5 36.5c32.667 0 64.334 -9.66699 95.001 -29c22.667 26 53.334 39 92.001 39c20 0 41.333 -4.33301 64 -13v3h111v-699zM419.998 495v194
c-12.667 6 -24.667 9 -36 9c-26.667 0 -40 -22 -40 -66v-137h76zM155.998 495h77v90c0 30 9 56.667 27 80c-21.333 14.667 -41.333 22 -60 22c-29.333 0 -44 -22.333 -44 -67v-125zM618.998 391l144 -391h-115l-96 295v5l125 195h9z" />
    <glyph glyph-name="f_t" unicode="ft" horiz-adv-x="408"
d="M197 698c-27.333 0 -41.002 -22 -41.002 -66v-137h77v65l111 41v-106h80v-6h-80v-431c0 -28.667 9 -43 27 -43c16 0 32 10.667 48 32l5 -4c-13.333 -16 -29.666 -28.833 -48.999 -38.5s-38.666 -14.5 -57.999 -14.5c-26 0 -46.5 10 -61.5 30s-22.5 48 -22.5 84v385h-77
v-489h-111v489h-45v6h45v90c0 36 11.667 65.667 35 89s53 35 89 35c19.333 0 38.5 -3.66699 57.5 -11s37.167 -18 54.5 -32l-4 -5c-14 11.333 -28 20.333 -42 27s-26.667 10 -38 10z" />
    <glyph glyph-name="f_f_t" unicode="fft" horiz-adv-x="595"
d="M385 698c-27.333 0 -41.0049 -22 -41.0049 -66v-137h76v64l111 41v-105h80v-6h-80v-431c0 -28.667 9 -43 27 -43c16 0 32 10.667 48 32l5 -4c-13.333 -16 -29.666 -28.833 -48.999 -38.5s-38.666 -14.5 -57.999 -14.5c-26 0 -46.5 10 -61.5 30s-22.5 48 -22.5 84v385h-76
v-489h-111v489h-77v-489h-111v489h-45v6h45v74c0 38 11.5 69.167 34.5 93.5s52.833 36.5 89.5 36.5c32.667 0 64.334 -9.66699 95.001 -29c22.667 26 53.334 39 92.001 39c40.667 0 78.334 -14.333 113.001 -43l-4 -5c-14 11.333 -28 20.333 -42 27s-26.667 10 -38 10z
M155.995 495h77v90c0 30 9 56.667 27 80c-21.333 14.667 -41.333 22 -60 22c-29.333 0 -44 -22.333 -44 -67v-125z" />
    <glyph glyph-name=".notdef" horiz-adv-x="534"
d="M30 699h474v-699h-474v699zM81 658v-609h373v609h-373z" />
    <glyph glyph-name=".null" horiz-adv-x="0"
 />
    <glyph glyph-name="uni000D" unicode="&#xd;" horiz-adv-x="250"
 />
    <glyph glyph-name="space" unicode=" " horiz-adv-x="171"
 />
    <glyph glyph-name="exclam" unicode="!" horiz-adv-x="306"
d="M157 139h-6l-65 560h136zM92 53c0 18 5.83301 32.833 17.5 44.5s26.5 17.5 44.5 17.5s33 -6 45 -18s18 -26.667 18 -44c0 -18 -6 -33 -18 -45s-27 -18 -45 -18s-32.833 6 -44.5 18s-17.5 27 -17.5 45z" />
    <glyph glyph-name="quotedbl" unicode="&#x22;" horiz-adv-x="276"
d="M30 699h88l-40 -204h-6zM158 699h88l-40 -204h-6z" />
    <glyph glyph-name="numbersign" unicode="#" horiz-adv-x="324"
d="M31 259h52l19 205h-55l1 6h55l21 229h8l-21 -229h117l21 229h8l-21 -229h58l-1 -6h-58l-19 -205h62l-1 -6h-61l-24 -253h-8l24 253h-117l-24 -253h-8l24 253h-53zM208 259l19 205h-117l-19 -205h117z" />
    <glyph glyph-name="dollar" unicode="$" horiz-adv-x="336"
d="M117 -4c-28.667 6 -56.665 17.3281 -83.998 33.9951l3 5c28 -16.667 55.333 -27.667 82 -33l37 241l-92 224c-14.667 36 -22 69.667 -22 101c0 21.333 3.16699 40.5 9.5 57.5s15.333 31.833 27 44.5s25.667 22.334 42 29.001s34.5 10 54.5 10
c16.667 0 33.667 -2.66699 51 -8l11 74h8l-11 -77c26 -10 49 -27.333 69 -52l-4 -4c-8.66699 11.333 -19 21.333 -31 30s-23.667 15.334 -35 20.001l-35 -226l106 -263c5.33301 -13.333 9.33301 -26.166 12 -38.499s4 -24.166 4 -35.499c0 -19.333 -4 -37.5 -12 -54.5
s-18.833 -31.667 -32.5 -44s-29.834 -22.166 -48.501 -29.499s-38.667 -11 -60 -11c-14.667 0 -28.334 1.33301 -41.001 4l-12 -80h-8zM224.002 693.995c-3.33301 1.33301 -6.83301 2.33301 -10.5 3s-7.16699 1 -10.5 1c-16.667 0 -29.667 -6.5 -39 -19.5
s-14 -31.167 -14 -54.5c0 -29.333 9.66699 -67.333 29 -114l12 -30zM203.002 78.9951c0 34.667 -11 77 -33 127l-9 23l-35 -228c6.66699 -1.33301 11.667 -2 15 -2c41.333 0 62 26.667 62 80z" />
    <glyph glyph-name="percent" unicode="%" horiz-adv-x="670"
d="M30 490l-0.00292969 69c0 20 3.83301 38.833 11.5 56.5s18.334 33.167 32.001 46.5s29.5 23.833 47.5 31.5s37 11.5 57 11.5s38.833 -3.83301 56.5 -11.5s33.334 -18.167 47.001 -31.5s24.334 -28.833 32.001 -46.5s11.5 -36.5 11.5 -56.5v-69
c0 -19.333 -3.83301 -37.5 -11.5 -54.5s-18.167 -32 -31.5 -45s-28.833 -23.333 -46.5 -31s-36.5 -11.5 -56.5 -11.5s-39 3.83301 -57 11.5s-33.833 18 -47.5 31s-24.5 28.167 -32.5 45.5s-12 35.333 -12 54zM144.997 652v-254c0 -13.333 3 -24 9 -32s14 -12 24 -12
c21.333 0 32 14.667 32 44v254c0 14.667 -2.83301 26.167 -8.5 34.5s-13.5 12.5 -23.5 12.5s-18 -4.16699 -24 -12.5s-9 -19.833 -9 -34.5zM202.997 0l261 699h9l-261 -699h-9zM344.997 137v68c0 20 3.83301 38.833 11.5 56.5s18.167 33.167 31.5 46.5
s28.833 23.833 46.5 31.5s36.5 11.5 56.5 11.5s39 -4 57 -12s33.833 -18.667 47.5 -32s24.5 -28.833 32.5 -46.5s12 -36.167 12 -55.5v-68c0 -19.333 -3.83301 -37.666 -11.5 -54.999s-18.167 -32.5 -31.5 -45.5s-28.833 -23.333 -46.5 -31s-36.5 -11.5 -56.5 -11.5
s-39 3.83301 -57 11.5s-33.833 18 -47.5 31s-24.5 28.167 -32.5 45.5s-12 35.666 -12 54.999zM459.997 299v-254c0 -14 3 -24.833 9 -32.5s14 -11.5 24 -11.5c21.333 0 32 14.667 32 44v254c0 14 -2.83301 25.167 -8.5 33.5s-13.5 12.5 -23.5 12.5s-18 -4.16699 -24 -12.5
s-9 -19.5 -9 -33.5z" />
    <glyph glyph-name="ampersand" unicode="&#x26;" horiz-adv-x="410"
d="M30 166l-0.00292969 10.999c0 24 3 46.167 9 66.5s14.5 38.333 25.5 54s24.333 28.167 40 37.5s32.834 15 51.501 17l25 3l1 3l-26 2c-32.667 3.33301 -58.667 18 -78 44s-29 59.667 -29 101v38c0 22.667 4.16699 44 12.5 64s19.833 37.333 34.5 52s32 26.167 52 34.5
s41.667 12.5 65 12.5c68.667 0 116.334 -39.333 143.001 -118l-107 -17c0 46 -3.33301 79 -10 99s-17.667 30 -33 30c-24.667 0 -37 -25.333 -37 -76v-169c0 -33.333 2.83301 -57.5 8.5 -72.5s19.834 -22.5 42.501 -22.5h50v105h108v-106h52v-6h-52v-308
c-21.333 -15.333 -47 -27.666 -77 -36.999s-61 -14 -93 -14c-55.333 0 -98.833 15.167 -130.5 45.5s-47.5 72.5 -47.5 126.5zM155.997 69.999c0 -46.667 18.333 -70.001 55 -70.001c16.667 0 30.667 4.83301 42 14.5s17 21.834 17 36.501v303h-50
c-23.333 0 -39.833 -8 -49.5 -24s-14.5 -43.667 -14.5 -83v-177z" />
    <glyph glyph-name="quotesingle" unicode="'" horiz-adv-x="148"
d="M30 699h88l-40 -204h-6z" />
    <glyph glyph-name="parenleft" unicode="(" horiz-adv-x="266"
d="M230 765l6 -0.000976562c-28 -57.333 -49.167 -120.5 -63.5 -189.5s-21.5 -141.833 -21.5 -218.5s7.16699 -149.5 21.5 -218.5s35.5 -132.167 63.5 -189.5h-6c-30.667 22 -58.334 47.833 -83.001 77.5s-45.667 62 -63 97s-30.666 72 -39.999 111s-14 78.5 -14 118.5
s4.66699 79.667 14 119s22.666 76.833 39.999 112.5s38.333 68.834 63 99.501s52.334 57.667 83.001 81z" />
    <glyph glyph-name="parenright" unicode=")" horiz-adv-x="266"
d="M36.0137 -50.9531h-5.99902c27.998 57.3291 49.1631 120.492 63.4961 189.488c14.332 68.9961 21.498 141.825 21.498 218.486c0 76.6621 -7.16602 149.491 -21.498 218.487c-14.333 68.9951 -35.498 132.158 -63.4961 189.488h5.99902
c30.665 -21.999 58.3301 -47.8311 82.9951 -77.4961s45.6641 -61.9961 62.9961 -96.9932c17.333 -34.998 30.666 -71.9961 39.999 -110.993c9.33301 -38.998 13.999 -78.4961 13.999 -118.493s-4.66602 -79.6611 -13.999 -118.992s-22.666 -76.8291 -39.999 -112.494
c-17.332 -35.6641 -38.3311 -68.8281 -62.9961 -99.4932s-52.3301 -57.6631 -82.9951 -80.9951z" />
    <glyph glyph-name="asterisk" unicode="*" horiz-adv-x="244"
d="M30 636l28 42l61 -66l-22 87h51l-22 -87l61 66l28 -42l-85 -29l85 -32l-28 -42l-61 67l22 -88h-51l22 88l-61 -67l-28 42l85 32z" />
    <glyph glyph-name="plus" unicode="+" horiz-adv-x="368"
d="M30 309v6h150v159h6v-159h152v-6h-152v-154h-6v154h-150z" />
    <glyph glyph-name="comma" unicode="," horiz-adv-x="191"
d="M132 3c-13.333 -8.66699 -27.666 -12.999 -42.999 -12.999c-17.333 0 -31.5 5.83301 -42.5 17.5s-16.5 26.167 -16.5 43.5c0 18.667 6 34 18 46s27 18 45 18c21.333 0 38 -8 50 -24s18 -38 18 -66c0 -34 -9.33301 -61.833 -28 -83.5s-44.334 -34.5 -77.001 -38.5l-1 6
c14 1.33301 26.833 5 38.5 11s21 13.333 28 22s11.5 18.167 13.5 28.5s1 21.166 -3 32.499z" />
    <glyph glyph-name="hyphen" unicode="-" horiz-adv-x="269"
d="M239 315v-6h-209v6h209z" />
    <glyph glyph-name="period" unicode="." horiz-adv-x="185"
d="M30 56c0 18 5.83301 32.832 17.5 44.499s26.5 17.5 44.5 17.5s33 -6 45 -18s18 -26.667 18 -44c0 -18 -6 -33 -18 -45s-27 -18 -45 -18s-32.833 5.83301 -44.5 17.5s-17.5 26.834 -17.5 45.501z" />
    <glyph glyph-name="slash" unicode="/" horiz-adv-x="273"
d="M235 750h7l-204 -839h-8z" />
    <glyph glyph-name="zero" unicode="0" horiz-adv-x="420"
d="M45 182v341c0 27.333 4 52.5 12 75.5s19.333 42.667 34 59s32.167 29 52.5 38s42.5 13.5 66.5 13.5c24.667 0 47.167 -4.5 67.5 -13.5s37.666 -21.667 51.999 -38s25.5 -36 33.5 -59s12 -48.167 12 -75.5v-341c0 -28 -4 -53.833 -12 -77.5s-19.167 -43.834 -33.5 -60.501
s-31.666 -29.667 -51.999 -39s-42.5 -14 -66.5 -14c-24.667 0 -47.167 4.66699 -67.5 14s-37.833 22.333 -52.5 39s-26 36.834 -34 60.501s-12 49.5 -12 77.5zM166 613v-530.001c0 -26 3 -46.833 9 -62.5s18 -23.5 36 -23.5c17.333 0 28.833 7.66699 34.5 23
s8.5 36.333 8.5 63v530c0 26.667 -2.83301 48.334 -8.5 65.001s-17.167 25 -34.5 25c-18 0 -30 -8.5 -36 -25.5s-9 -38.5 -9 -64.5z" />
    <glyph glyph-name="one" unicode="1" horiz-adv-x="267"
d="M92 0v653l-64 -34l-3 5l142 75h35v-699h-110z" />
    <glyph glyph-name="two" unicode="2" horiz-adv-x="376"
d="M42 646c35.333 42 80.9971 62.998 136.997 62.998c47.333 0 84.333 -14.167 111 -42.5s40 -67.5 40 -117.5c0 -44.667 -9.83301 -84 -29.5 -118s-46.5 -68 -80.5 -102l-60 -54c-18 -18 -33.333 -34 -46 -48s-23.667 -26.833 -33 -38.5s-17 -22.667 -23 -33
s-11 -20.833 -15 -31.5h286v-124h-304c0 59.333 7.83301 116.333 23.5 171s40.5 112.334 74.5 173.001l20 36c14 25.333 25.667 47.5 35 66.5s16.833 36.333 22.5 52s9.66699 30.334 12 44.001s3.5 27.167 3.5 40.5c0 34 -6.66699 61 -20 81s-31.666 30 -54.999 30
c-15.333 0 -31.666 -4.66699 -48.999 -14s-32.666 -22 -45.999 -38z" />
    <glyph glyph-name="three" unicode="3" horiz-adv-x="338"
d="M119 -9c-25.333 0 -49.5029 3.50098 -72.5029 10.501s-43.5 16.833 -61.5 29.5l3 5c29.333 -20 58.333 -30 87 -30c67.333 0 101 55.333 101 166v38c0 28.667 -1.66699 52.5 -5 71.5s-8.66602 34.333 -15.999 46s-17 20 -29 25s-27 7.5 -45 7.5v6
c17.333 0 31.5 2.16699 42.5 6.5s19.667 11.666 26 21.999s10.833 24.5 13.5 42.5s4 41 4 69v34c0 50 -6.5 88 -19.5 114s-32.167 39 -57.5 39c-15.333 0 -30.666 -4.5 -45.999 -13.5s-29.333 -21.167 -42 -36.5l-5 3c15.333 20 34.5 35.5 57.5 46.5s48.167 16.5 75.5 16.5
c46.667 0 83.834 -15.667 111.501 -47s41.5 -74 41.5 -128v-17c0 -94 -35.333 -144 -106 -150l-20 -2v-4l20 -2c76.667 -8 115 -62 115 -162v-7c0 -64 -15 -113.167 -45 -147.5s-72.667 -51.5 -128 -51.5z" />
    <glyph glyph-name="four" unicode="4" horiz-adv-x="386"
d="M20 126v47l237 526h47v-483h50v-90h-50v-126h-110v126h-174zM194 529h-3l-141 -313h144v313z" />
    <glyph glyph-name="five" unicode="5" horiz-adv-x="378"
d="M23 95c4 -12.667 10.166 -24.6689 18.499 -36.002s17.833 -21.333 28.5 -30s21.834 -15.5 33.501 -20.5s23.5 -7.5 35.5 -7.5c23.333 0 42 9.83301 56 29.5s21 45.834 21 78.501v141c0 34.667 -8.33301 63.334 -25 86.001s-37.334 34 -62.001 34
c-14 0 -26.833 -3.66699 -38.5 -11s-21.167 -17.333 -28.5 -30h-11v370h266l-20 -111h-240v-253h2c10 18.667 25.5 33.834 46.5 45.501s44.167 17.5 69.5 17.5c22 0 42.5 -4.5 61.5 -13.5s35.5 -21.167 49.5 -36.5s25.167 -33.5 33.5 -54.5s12.5 -43.5 12.5 -67.5v-62
c0 -24.667 -4.16699 -47.834 -12.5 -69.501s-19.833 -40.167 -34.5 -55.5s-32.167 -27.5 -52.5 -36.5s-42.166 -13.5 -65.499 -13.5c-34.667 0 -65.667 9.5 -93 28.5s-46.333 44.167 -57 75.5z" />
    <glyph glyph-name="six" unicode="6" horiz-adv-x="420"
d="M45 178l-0.00390625 345.001c0 27.333 4.16699 52.5 12.5 75.5s19.833 42.833 34.5 59.5s32.167 29.5 52.5 38.5s42.833 13.5 67.5 13.5c28 0 53.833 -5.66699 77.5 -17s42.834 -27 57.501 -47l-4 -4c-13.333 17.333 -29.833 31.166 -49.5 41.499
s-38.834 15.5 -57.501 15.5c-23.333 0 -41.666 -7.66699 -54.999 -23s-20 -36.333 -20 -63v-206c9.33301 10.667 21.833 19.167 37.5 25.5s32.834 9.5 51.501 9.5c38 0 68.167 -13.833 90.5 -41.5s33.5 -65.5 33.5 -113.5v-105c0 -28 -4.16699 -53.667 -12.5 -77
s-19.666 -43.5 -33.999 -60.5s-31.666 -30.333 -51.999 -40s-42.5 -14.5 -66.5 -14.5s-46 4.66699 -66 14s-37.333 22.333 -52 39s-26 36.5 -34 59.5s-12 48.167 -12 75.5zM160.996 397.001v-330c0 -20.667 4.5 -37.667 13.5 -51s20.5 -20 34.5 -20
c14.667 0 26.5 6.66699 35.5 20s13.5 30.333 13.5 51v279c0 25.333 -4.33301 44.833 -13 58.5s-20.667 20.5 -36 20.5c-18.667 0 -34.667 -9.33301 -48 -28z" />
    <glyph glyph-name="seven" unicode="7" horiz-adv-x="337"
d="M82 38c0 51.333 3.16895 93.6699 9.50195 127.003s14.666 62.166 24.999 86.499s22.5 46.166 36.5 65.499s28.5 40.833 43.5 64.5s30.167 51.667 45.5 84s29.666 73.166 42.999 122.499h-280v111h322l-24 -77c-18 -58.667 -32.833 -111.167 -44.5 -157.5
s-21 -91.5 -28 -135.5s-11.833 -89 -14.5 -135s-4 -98 -4 -156v-38h-130v38z" />
    <glyph glyph-name="eight" unicode="8" horiz-adv-x="454"
d="M167 355l15.998 2.00293v3l-16 2c-16 2 -31 6.83301 -45 14.5s-26 17.334 -36 29.001s-18 25 -24 40s-9 30.833 -9 47.5v71c0 20 4.66699 38.833 14 56.5s22 33.167 38 46.5s34.833 23.833 56.5 31.5s44.5 11.5 68.5 11.5s46.333 -3.83301 67 -11.5
s38.834 -18 54.501 -31s27.834 -28.333 36.501 -46s13 -36.834 13 -57.501v-71c0 -16 -3 -31.5 -9 -46.5s-14.167 -28.333 -24.5 -40s-22.5 -21.334 -36.5 -29.001s-29.333 -12.834 -46 -15.501l-16 -2v-3l16 -2c17.333 -2.66699 33.666 -8 48.999 -16s28.5 -18 39.5 -30
s19.667 -25.667 26 -41s9.5 -31.333 9.5 -48v-79c0 -20.667 -4.66699 -40.334 -14 -59.001s-22 -34.667 -38 -48s-34.833 -24 -56.5 -32s-45.167 -12 -70.5 -12s-49.166 4 -71.499 12s-42 18.833 -59 32.5s-30.333 29.667 -40 48s-14.5 37.833 -14.5 58.5v79
c0 17.333 3 33.666 9 48.999s14.5 29 25.5 41s23.833 21.833 38.5 29.5s31 12.834 49 15.501zM229.998 362.003c19.333 0 32.667 5.66797 40 17.001s11 31.666 11 60.999v186c0 28 -4 48 -12 60s-21 18 -39 18c-38 0 -57 -26 -57 -78v-186c0 -28 4.5 -48 13.5 -60
s23.5 -18 43.5 -18zM230.999 -3.99609c19.333 0 32.999 5.5 40.999 16.5s12 30.167 12 57.5v213c0 48.667 -18 73 -54 73c-19.333 0 -34.166 -6.16699 -44.499 -18.5s-15.5 -30.5 -15.5 -54.5v-213c0 -49.333 20.333 -74 61 -74z" />
    <glyph glyph-name="nine" unicode="9" horiz-adv-x="420"
d="M374 522l0.0078125 -346c0 -27.333 -4.16699 -52.333 -12.5 -75s-19.833 -42.334 -34.5 -59.001s-32.167 -29.5 -52.5 -38.5s-42.833 -13.5 -67.5 -13.5c-35.333 0 -66.833 9.16699 -94.5 27.5s-47.834 43.5 -60.501 75.5l5 3c5.33301 -14 12.666 -26.833 21.999 -38.5
s19.666 -21.667 30.999 -30s23.666 -15 36.999 -20s26.666 -7.5 39.999 -7.5c22.667 0 40.167 7 52.5 21s18.5 33.333 18.5 58v214c-9.33301 -11.333 -21.833 -20.166 -37.5 -26.499s-32.834 -9.5 -51.501 -9.5c-38 0 -68.167 14 -90.5 42s-33.5 66 -33.5 114v105
c0 28 4.16699 53.833 12.5 77.5s19.666 44 33.999 61s31.666 30.167 51.999 39.5s42.5 14 66.5 14s46 -4.66699 66 -14s37.333 -22.333 52 -39s26 -36.5 34 -59.5s12 -48.167 12 -75.5zM258.008 302l0.000976562 329.999c0 21.333 -4.5 38.666 -13.5 51.999
s-20.5 20 -34.5 20c-14.667 0 -26.5 -6.66699 -35.5 -20s-13.5 -30.666 -13.5 -51.999v-273c0 -27.333 4.16699 -48.166 12.5 -62.499s20.166 -21.5 35.499 -21.5c18.667 0 35 9 49 27z" />
    <glyph glyph-name="colon" unicode=":" horiz-adv-x="185"
d="M30 358c0 18 5.83301 33 17.5 45s26.5 18 44.5 18s33 -6 45 -18s18 -27 18 -45s-6 -32.833 -18 -44.5s-27 -17.5 -45 -17.5s-32.833 5.83301 -44.5 17.5s-17.5 26.5 -17.5 44.5zM30 58c0 18 5.83301 33 17.5 45s26.5 18 44.5 18s33 -6 45 -18s18 -27 18 -45
s-6 -33 -18 -45s-27 -18 -45 -18s-32.833 6 -44.5 18s-17.5 27 -17.5 45z" />
    <glyph glyph-name="semicolon" unicode=";" horiz-adv-x="192"
d="M31 358c0 18 5.83301 32.833 17.5 44.5s26.5 17.5 44.5 17.5s33 -5.83301 45 -17.5s18 -26.5 18 -44.5s-6 -33 -18 -45s-27 -18 -45 -18s-32.833 6 -44.5 18s-17.5 27 -17.5 45zM133 3c-6.66699 -4.66699 -13.668 -7.99902 -21.001 -9.99902s-14.666 -3 -21.999 -3
c-17.333 0 -31.5 5.83301 -42.5 17.5s-16.5 26.167 -16.5 43.5c0 18.667 6 34 18 46s27.333 18 46 18c20.667 0 37 -8 49 -24s18 -38 18 -66c0 -34 -9.16699 -61.833 -27.5 -83.5s-43.833 -34.5 -76.5 -38.5l-2 6c14.667 1.33301 27.667 5 39 11s20.5 13.333 27.5 22
s11.5 18.167 13.5 28.5s1 21.166 -3 32.499z" />
    <glyph glyph-name="less" unicode="&#x3c;" horiz-adv-x="338"
d="M308 187l-278 124v4l278 125v-9l-262 -117v-2l262 -116v-9z" />
    <glyph glyph-name="equal" unicode="=" horiz-adv-x="371"
d="M341 381v-6h-311v6h311zM341 245v-6h-311v6h311z" />
    <glyph glyph-name="greater" unicode="&#x3e;" horiz-adv-x="339"
d="M30.0186 440.012l277.983 -123.993v-3.99902l-277.983 -124.992v8.99902l261.984 116.993v2l-261.984 115.992v9z" />
    <glyph glyph-name="question" unicode="?" horiz-adv-x="416"
d="M64 647c15.333 20 34.5 35.335 57.5 46.002s48.5 16 76.5 16c46.667 0 83.834 -15 111.501 -45s41.5 -70 41.5 -120c0 -28.667 -4.83301 -55.834 -14.5 -81.501s-23.334 -50.334 -41.001 -74.001s-39.167 -47 -64.5 -70s-53.666 -46.833 -84.999 -71.5v-108h-6v215
c33.333 30 57.166 61.5 71.499 94.5s21.5 70.167 21.5 111.5c0 42 -6.66699 74.667 -20 98s-32 35 -56 35c-15.333 0 -30.833 -4.33301 -46.5 -13s-29.5 -20.667 -41.5 -36zM81 53.002c0 18 5.83301 32.833 17.5 44.5s26.5 17.5 44.5 17.5s33 -6 45 -18s18 -26.667 18 -44
c0 -18 -6 -33 -18 -45s-27 -18 -45 -18s-32.833 6 -44.5 18s-17.5 27 -17.5 45z" />
    <glyph glyph-name="at" unicode="@" horiz-adv-x="754"
d="M393 51c-14 -38.667 -39.6641 -58.002 -76.9971 -58.002c-34 0 -60.167 12 -78.5 36s-25.833 55.333 -22.5 94l20 207c2 18 6.66699 34.833 14 50.5s16.666 29.334 27.999 41.001s24.166 20.834 38.499 27.501s29.166 10 44.499 10c16 0 28.5 -4 37.5 -12
s16.167 -21.333 21.5 -40h2l3 41h112l-33 -365c-2 -23.333 1 -41.166 9 -53.499s21.667 -18.5 41 -18.5c20 0 39.833 7 59.5 21s37.167 32.667 52.5 56s27.666 50.5 36.999 81.5s14 63.5 14 97.5c0 45.333 -8.66699 88 -26 128s-41.166 74.833 -71.499 104.5
s-66 53.167 -107 70.5s-85.167 26 -132.5 26c-49.333 0 -94.833 -9.33301 -136.5 -28s-77.667 -44.5 -108 -77.5s-54 -72 -71 -117s-25.5 -94.167 -25.5 -147.5s8.5 -102.833 25.5 -148.5s40.667 -85 71 -118s66.333 -58.833 108 -77.5s86.834 -28 135.501 -28
c37.333 0 73.833 5.33301 109.5 16s69.167 26.667 100.5 48l4 -7c-32 -21.333 -65.833 -37.5 -101.5 -48.5s-72.5 -16.5 -110.5 -16.5c-50.667 0 -97.334 9.5 -140.001 28.5s-79.5 45.333 -110.5 79s-55.333 73.667 -73 120s-26.5 96.833 -26.5 151.5
s8.83301 105.167 26.5 151.5s42 86.333 73 120s67.833 60 110.5 79s89 28.5 139 28.5c48.667 0 94 -8.83301 136 -26.5s78.5 -42 109.5 -73s55.333 -67.333 73 -109s26.5 -86.167 26.5 -133.5c0 -38.667 -5.83301 -74.834 -17.5 -108.501s-27.5 -63 -47.5 -88
s-43.5 -44.5 -70.5 -58.5s-55.833 -21 -86.5 -21c-24.667 0 -46 4.5 -64 13.5s-30.667 21.5 -38 37.5l-6 14h-1zM327.003 71.998c-2.66699 -22.667 -2.83398 -38.999 -0.500977 -48.999s7.83301 -15 16.5 -15c10.667 0 20.667 6 30 18s14.666 25 15.999 39l27 284
c2.66699 26 0.833984 48.5 -5.49902 67.5s-15.166 28.5 -26.499 28.5c-7.33301 0 -13.333 -4.33301 -18 -13s-7.66699 -20.334 -9 -35.001z" />
    <glyph glyph-name="A" unicode="A" horiz-adv-x="305"
d="M121 699h30l162 -699h-124l-51 218h-97l-41 -218h-8zM42 224h94l-51 220h-2z" />
    <glyph glyph-name="B" unicode="B" horiz-adv-x="378"
d="M344 509c0 -42.667 -9.33398 -76.832 -28.001 -102.499s-42 -40.167 -70 -43.5l-18 -2v-2l18 -2c16 -2 30.833 -7.5 44.5 -16.5s25.667 -20.5 36 -34.5s18.333 -29.833 24 -47.5s8.5 -36.5 8.5 -56.5v-46c0 -20 -3.5 -39.333 -10.5 -58s-17 -35.334 -30 -50.001
s-28.667 -26.334 -47 -35.001s-38.5 -13 -60.5 -13h-173v699h162c21.333 0 40.833 -3.66699 58.5 -11s32.834 -17.666 45.501 -30.999s22.5 -29 29.5 -47s10.5 -37.667 10.5 -59v-42zM185.999 363.002c8.66699 0 15.499 1.83594 20.499 5.50293s8.83301 9.66699 11.5 18
s4.33398 19.666 5.00098 33.999s1 32.166 1 53.499v110c0 21.333 -0.5 39 -1.5 53s-3 25.167 -6 33.5s-6.83301 14.166 -11.5 17.499s-11 5 -19 5h-28v-330h28zM238.998 236.005c0 45.333 -4.5 76.8311 -13.5 94.498s-22.167 26.5 -39.5 26.5h-28v-351h35
c7.33301 0 13.833 1.66699 19.5 5s10.5 9.33301 14.5 18s7 20.334 9 35.001s3 33.334 3 56.001v116z" />
    <glyph glyph-name="C" unicode="C" horiz-adv-x="359"
d="M33 522c0 27.333 4.16699 52.5 12.5 75.5s20 42.667 35 59s33 29.166 54 38.499s43.833 14 68.5 14c53.333 0 97.333 -21 132 -63l-5 -3c-15.333 18 -32.666 32 -51.999 42s-39 15 -59 15c-23.333 0 -40 -7.16699 -50 -21.5s-15 -37.833 -15 -70.5v-518
c0 -34 4.33301 -57.667 13 -71s24.667 -20 48 -20c15.333 0 30.166 2.5 44.499 7.5s27.666 11.833 39.999 20.5s23 18.834 32 30.501s15.5 24.167 19.5 37.5l5 -2c-11.333 -32 -30.666 -57.167 -57.999 -75.5s-59 -27.5 -95 -27.5c-25.333 0 -48.333 4.66699 -69 14
s-38.5 22.5 -53.5 39.5s-26.667 37.333 -35 61s-12.5 49.5 -12.5 77.5v340z" />
    <glyph glyph-name="D" unicode="D" horiz-adv-x="394"
d="M38 699h168.001c22.667 0 43.5 -4.5 62.5 -13.5s35.5 -21.5 49.5 -37.5s24.833 -35 32.5 -57s11.5 -46 11.5 -72v-340c0 -26 -3.83301 -49.833 -11.5 -71.5s-18.334 -40.5 -32.001 -56.5s-29.667 -28.5 -48 -37.5s-38.5 -13.5 -60.5 -13.5h-172v699zM159.001 6
l39.999 -0.000976562c16 0 27 7.5 33 22.5s9 35.167 9 60.5v517c0 24.667 -3.66699 45.334 -11 62.001s-19.666 25 -36.999 25h-34v-687z" />
    <glyph glyph-name="E" unicode="E" horiz-adv-x="297"
d="M279 699v-6h-121v-333h100v-6h-100v-348h121v-6h-241v699h241z" />
    <glyph glyph-name="F" unicode="F" horiz-adv-x="299"
d="M158 693v-343h101v-6h-101v-344h-120v699h242v-6h-122z" />
    <glyph glyph-name="G" unicode="G" horiz-adv-x="388"
d="M33 522c0 27.333 4.16797 52.5 12.501 75.5s20.166 42.833 35.499 59.5s33.5 29.5 54.5 38.5s44.5 13.5 70.5 13.5c28 0 54.333 -5.5 79 -16.5s44.667 -26.167 60 -45.5l-5 -4c-13.333 17.333 -30 30.833 -50 40.5s-40.667 14.5 -62 14.5c-49.333 0 -74 -30.333 -74 -91
v-532c0 -52.667 20.667 -79 62 -79c12.667 0 24.667 1.66699 36 5v336h-60v6h170v-319c-23.333 -10.667 -48.833 -19 -76.5 -25s-52.5 -9 -74.5 -9c-26.667 0 -51 4.66699 -73 14s-40.833 22.5 -56.5 39.5s-27.667 37.333 -36 61s-12.5 49.5 -12.5 77.5v340z" />
    <glyph glyph-name="H" unicode="H" horiz-adv-x="413"
d="M158 699v-347h97v347h120v-699h-120v346h-97v-346h-120v699h120z" />
    <glyph glyph-name="I" unicode="I" horiz-adv-x="196"
d="M158 699v-699h-120v699h120z" />
    <glyph glyph-name="J" unicode="J" horiz-adv-x="271"
d="M-7 34l4.00195 4.00098c11.333 -10.667 23.666 -19.334 36.999 -26.001s25.666 -10 36.999 -10c13.333 0 23.666 5.5 30.999 16.5s11 25.833 11 44.5v636h120v-543c0 -23.333 -3.5 -45 -10.5 -65s-16.667 -37.5 -29 -52.5s-26.833 -26.833 -43.5 -35.5
s-34.667 -13 -54 -13c-37.333 0 -71.666 14.667 -102.999 44z" />
    <glyph glyph-name="K" unicode="K" horiz-adv-x="412"
d="M159 0h-121v699h121v-699zM185 356v4l162 339h9l-100 -207l164 -492h-125z" />
    <glyph glyph-name="L" unicode="L" horiz-adv-x="263"
d="M158 699v-693h113v-6h-233v699h120z" />
    <glyph glyph-name="M" unicode="M" horiz-adv-x="491"
d="M453 0h-120v656h-2l-101 -656h-30l-159 656h-2v-656h-6v699h122l96 -394l9 -40h2l7 40l61 394h123v-699z" />
    <glyph glyph-name="N" unicode="N" horiz-adv-x="360"
d="M319 272h2v427h6v-699h-30l-256 650h-2v-650h-6v699h117z" />
    <glyph glyph-name="O" unicode="O" horiz-adv-x="405"
d="M33 523c0 26.667 4.33203 51.3311 12.999 73.998s20.5 42.334 35.5 59.001s32.833 29.667 53.5 39s43.334 14 68.001 14s47.5 -4.66699 68.5 -14s39 -22.166 54 -38.499s26.667 -35.833 35 -58.5s12.5 -47.667 12.5 -75v-342c0 -28 -4.16699 -53.667 -12.5 -77
s-20 -43.5 -35 -60.5s-33 -30.167 -54 -39.5s-43.833 -14 -68.5 -14s-47.5 4.66699 -68.5 14s-39 22.5 -54 39.5s-26.667 37.167 -35 60.5s-12.5 49 -12.5 77v342zM153.999 81.9971c0 -30 3.83301 -51.834 11.5 -65.501s20.167 -20.5 37.5 -20.5s29.833 6.66699 37.5 20
s11.5 35.333 11.5 66v531c0 32 -3.83301 55 -11.5 69s-20.167 21 -37.5 21s-29.833 -7.16699 -37.5 -21.5s-11.5 -37.166 -11.5 -68.499v-531z" />
    <glyph glyph-name="P" unicode="P" horiz-adv-x="370"
d="M192 699c22.667 0 43.5 -4.16895 62.5 -12.502s35.5 -19.666 49.5 -33.999s25 -31 33 -50s12 -39.167 12 -60.5v-49c0 -21.333 -3.83301 -41.5 -11.5 -60.5s-18.5 -35.667 -32.5 -50s-30.5 -25.666 -49.5 -33.999s-39.833 -12.5 -62.5 -12.5h-35v-336h-120v699h154z
M229 577.998c0 42.667 -3.66699 72.499 -11 89.499s-18.666 25.5 -33.999 25.5h-26v-351h29c15.333 0 26.166 8.33301 32.499 25s9.5 46.334 9.5 89.001v122z" />
    <glyph glyph-name="Q" unicode="Q" horiz-adv-x="405"
d="M188 -8l-0.00195312 0.99707h-19c-20 4 -38.333 11.5 -55 22.5s-31 24.833 -43 41.5s-21.333 35.667 -28 57s-10 44 -10 68v341c0 26.667 4.33301 51.334 13 74.001s20.5 42.334 35.5 59.001s32.833 29.667 53.5 39s43.334 14 68.001 14s47.5 -4.66699 68.5 -14
s39 -22.166 54 -38.499s26.667 -35.833 35 -58.5s12.5 -47.667 12.5 -75v-341c0 -28 -4.16699 -53.667 -12.5 -77s-20 -43.5 -35 -60.5s-33 -30.333 -54 -40s-43.833 -14.5 -68.5 -14.5c-10.667 0 -23.667 -4 -39 -12s-29.333 -18.333 -42 -31c5.33301 4 12 7.33301 20 10
s16 4 24 4c22 0 50 -7.66699 84 -23l6 -3c16.667 -7.33301 29.667 -12.5 39 -15.5s18 -4.5 26 -4.5c19.333 0 34.333 12.333 45 37l5 -2c-10 -25.333 -23.667 -44.666 -41 -57.999s-36.666 -20 -57.999 -20c-10.667 0 -21.5 1.33301 -32.5 4s-21.5 6 -31.5 10l-6 2
c-14 5.33301 -26.5 9.16602 -37.5 11.499s-21.5 3.5 -31.5 3.5c-13.333 0 -24.5 -1.83301 -33.5 -5.5s-17.5 -9.5 -25.5 -17.5l-5 3c13.333 27.333 28 49.333 44 66s35 29.667 57 39zM153.998 81.9971c0 -30 4.00098 -51.833 12.001 -65.5s20.667 -20.5 38 -20.5
s29.666 6.66699 36.999 20s11 35.333 11 66v532c0 32 -3.83301 54.833 -11.5 68.5s-20.167 20.5 -37.5 20.5s-29.833 -7 -37.5 -21s-11.5 -36.667 -11.5 -68v-532z" />
    <glyph glyph-name="R" unicode="R" horiz-adv-x="396"
d="M192 699c22.667 0 43.502 -4.16797 62.502 -12.501s35.5 -19.666 49.5 -33.999s25 -31 33 -50s12 -39.167 12 -60.5v-39c0 -19.333 -3.33301 -37.833 -10 -55.5s-15.834 -33.5 -27.501 -47.5s-25.667 -25.5 -42 -34.5s-34.5 -14.833 -54.5 -17.5v-3c14 0 27.5 -3 40.5 -9
s24.667 -14 35 -24s19.166 -21.5 26.499 -34.5s12 -27.167 14 -42.5l37 -235h-123l-39 268c-2.66699 16 -5.16699 29.167 -7.5 39.5s-5 18.333 -8 24s-6.66699 9.5 -11 11.5s-9.83301 3 -16.5 3h-5v-346h-120v699h154zM229.002 577.999c0 42.667 -3.66699 72.499 -11 89.499
s-18.666 25.5 -33.999 25.5h-26v-341h29c15.333 0 26.166 8.33301 32.499 25s9.5 46.334 9.5 89.001v112z" />
    <glyph glyph-name="S" unicode="S" horiz-adv-x="336"
d="M203 79c0 34.667 -11 76.9951 -33 126.995l-107 261c-14.667 36 -22 69.667 -22 101c0 21.333 3.16699 40.5 9.5 57.5s15.333 31.833 27 44.5s25.667 22.334 42 29.001s34.5 10 54.5 10c50.667 0 93.334 -21 128.001 -63l-4 -4c-12.667 16 -28 29.333 -46 40
s-34.333 16 -49 16c-16.667 0 -29.667 -6.5 -39 -19.5s-14 -31.167 -14 -54.5c0 -29.333 9.66699 -67.333 29 -114l124 -307c5.33301 -13.333 9.33301 -26.166 12 -38.499s4 -24.166 4 -35.499c0 -19.333 -4 -37.5 -12 -54.5s-18.833 -31.667 -32.5 -44
s-29.834 -22.166 -48.501 -29.499s-38.667 -11 -60 -11c-22 0 -44.667 3.5 -68 10.5s-45 16.833 -65 29.5l3 5c18 -11.333 36.5 -20.166 55.5 -26.499s35.5 -9.5 49.5 -9.5c41.333 0 62 26.667 62 80z" />
    <glyph glyph-name="T" unicode="T" horiz-adv-x="327"
d="M334 693h-111v-693h-120v693h-111v6h342v-6z" />
    <glyph glyph-name="U" unicode="U" horiz-adv-x="368"
d="M158 699l0.000976562 -619.998c0 -24 6 -43 18 -57s28.667 -21 50 -21c30 0 54.833 12.667 74.5 38s29.5 59 29.5 101v559h6v-557c0 -46.667 -11.833 -83.834 -35.5 -111.501s-56.834 -41.5 -99.501 -41.5c-24 0 -46 4.66699 -66 14s-37.167 22.666 -51.5 39.999
s-25.5 38 -33.5 62s-12 50.667 -12 80v514h120z" />
    <glyph glyph-name="V" unicode="V" horiz-adv-x="300"
d="M204 298l8 -40h2l86 441h8l-134 -699h-30l-151 699h123z" />
    <glyph glyph-name="W" unicode="W" horiz-adv-x="472"
d="M399 286h2l71 413h8l-118 -699h-30l-92 467h-2l-78 -467h-30l-137 699h123l81 -413h2l36 212l-40 201h123z" />
    <glyph glyph-name="X" unicode="X" horiz-adv-x="328"
d="M209 416h2l94 283h8l-99 -300l122 -399h-126l-100 330h-1l-108 -330h-9l113 347l-108 352h126z" />
    <glyph glyph-name="Y" unicode="Y" horiz-adv-x="321"
d="M228 351h2l91 348h8l-95 -364v-335h-121v316l-121 383h126z" />
    <glyph glyph-name="Z" unicode="Z" horiz-adv-x="379"
d="M54 693v6h295v-6l-205 -687h216v-6h-341v6l205 687h-170z" />
    <glyph glyph-name="bracketleft" unicode="[" horiz-adv-x="232"
d="M30 -51v816h172v-6h-51v-804h51v-6h-172z" />
    <glyph glyph-name="backslash" unicode="\" horiz-adv-x="273"
d="M235 -89l-205 839h8l204 -839h-7z" />
    <glyph glyph-name="bracketright" unicode="]" horiz-adv-x="232"
d="M202.002 764.997v-815.95h-171.989v5.99902h50.9961v803.951h-50.9961v6h171.989z" />
    <glyph glyph-name="asciicircum" unicode="^" horiz-adv-x="295"
d="M257 371l-108 307h-2l-109 -307h-8l116 328h4l115 -328h-8z" />
    <glyph glyph-name="underscore" unicode="_" horiz-adv-x="330"
d="M299 6v-6h-269v6h269z" />
    <glyph glyph-name="grave" unicode="`" horiz-adv-x="173"
d="M137 568l-107 114h80l33 -114h-6z" />
    <glyph glyph-name="a" unicode="a" horiz-adv-x="328"
d="M18 143c0 21.333 2.83496 39.5 8.50195 54.5s15.167 28.167 28.5 39.5s31 21 53 29s49.333 15.333 82 22v156c0 16 -4.5 28.667 -13.5 38s-21.167 14 -36.5 14c-8 0 -16.667 -1.33301 -26 -4s-18.333 -6.33398 -27 -11.001s-16.834 -10 -24.501 -16
s-13.834 -12.333 -18.501 -19l-5 4c13.333 17.333 31 30.833 53 40.5s45.667 14.5 71 14.5c42.667 0 77.167 -12.833 103.5 -38.5s39.5 -59.5 39.5 -101.5v-365h-116v40h-2c-8.66699 -15.333 -20.5 -27.5 -35.5 -36.5s-31.167 -13.5 -48.5 -13.5
c-25.333 0 -46 9.83301 -62 29.5s-24 45.834 -24 78.501v45zM154.002 18c12 0 24 11.667 36 35v229c-13.333 -3.33301 -23.833 -7 -31.5 -11s-13.334 -9.16699 -17.001 -15.5s-6 -14 -7 -23s-1.5 -20.5 -1.5 -34.5v-140c0 -12 1.83301 -21.667 5.5 -29
s8.83398 -11 15.501 -11z" />
    <glyph glyph-name="b" unicode="b" horiz-adv-x="347"
d="M30 699h111v-248h2c6.66699 20 14.667 34 24 42s21.333 12 36 12c15.333 0 30 -3.66699 44 -11s26.333 -17 37 -29s19.167 -26 25.5 -42s9.5 -32.667 9.5 -50v-258c0 -16.667 -3.16699 -32.5 -9.5 -47.5s-14.666 -28.167 -24.999 -39.5s-22.333 -20.5 -36 -27.5
s-28.167 -10.5 -43.5 -10.5s-27.833 4 -37.5 12s-17.834 21.667 -24.501 41h-2v-43h-111v699zM141 75c0 -8 1.16797 -16.333 3.50098 -25s5.5 -16.5 9.5 -23.5s8.5 -12.667 13.5 -17s9.83301 -6.5 14.5 -6.5c6.66699 0 12 3.5 16 10.5s6 16.167 6 27.5v414
c0 11.333 -1.83301 20.5 -5.5 27.5s-8.83398 10.5 -15.501 10.5c-4.66699 0 -9.5 -2.33301 -14.5 -7s-9.5 -10.667 -13.5 -18s-7.33301 -15.5 -10 -24.5s-4 -17.833 -4 -26.5v-342z" />
    <glyph glyph-name="c" unicode="c" horiz-adv-x="298"
d="M28 350c0 22 3.67188 42.498 11.0049 61.498s17.666 35.5 30.999 49.5s29 24.833 47 32.5s37.333 11.5 58 11.5c23.333 0 45.5 -4.66699 66.5 -14s38.5 -22.666 52.5 -39.999l-4 -4c-11.333 14.667 -26 26.5 -44 35.5s-35 13.5 -51 13.5s-28.667 -4.66699 -38 -14
s-14 -22.666 -14 -39.999v-378c0 -20 5.33301 -35.833 16 -47.5s24.667 -17.5 42 -17.5c10 0 20.667 2.16699 32 6.5s22.166 10 32.499 17s19.666 15.167 27.999 24.5s14.833 19.333 19.5 30l5 -2c-12.667 -26.667 -31.334 -47.5 -56.001 -62.5s-52.334 -22.5 -83.001 -22.5
c-21.333 0 -41.166 3.83301 -59.499 11.5s-34.333 18.167 -48 31.5s-24.334 29 -32.001 47s-11.5 37.667 -11.5 59v211z" />
    <glyph glyph-name="d" unicode="d"
d="M205 43h-2.00195c-6.66699 -19.333 -14.667 -33 -24 -41s-21.666 -12 -36.999 -12c-14.667 0 -29 3.5 -43 10.5s-26.167 16.167 -36.5 27.5s-18.666 24.5 -24.999 39.5s-9.5 30.833 -9.5 47.5v258c0 17.333 3.16699 34 9.5 50s14.833 30 25.5 42s23 21.667 37 29
s28.667 11 44 11c14.667 0 26.5 -4 35.5 -12s16.833 -22 23.5 -42h2v248h111v-699h-111v43zM204.998 417c0 9.33301 -1.16699 18.5 -3.5 27.5s-5.5 17.167 -9.5 24.5s-8.5 13.333 -13.5 18s-9.83301 7 -14.5 7c-6.66699 0 -11.834 -3.5 -15.501 -10.5
s-5.5 -16.167 -5.5 -27.5v-415c0 -11.333 2 -20.5 6 -27.5s9.33301 -10.5 16 -10.5c4.66699 0 9.33398 2.16699 14.001 6.5s9 10 13 17s7.16699 14.833 9.5 23.5s3.5 17 3.5 25v342z" />
    <glyph glyph-name="e" unicode="e" horiz-adv-x="342"
d="M28 358c0 20 4.00098 38.832 12.001 56.499s18.667 33.167 32 46.5s28.833 24 46.5 32s36.5 12 56.5 12c19.333 0 38 -4 56 -12s33.833 -18.667 47.5 -32s24.5 -28.833 32.5 -46.5s12 -36.167 12 -55.5v-110h-180v-186c0 -20 5.16699 -35.667 15.5 -47
s24.833 -17 43.5 -17c11.333 0 22.833 2.33301 34.5 7s22.834 11 33.501 19s20.167 17.333 28.5 28s14.833 22 19.5 34l5 -2c-12.667 -30 -31.5 -53.333 -56.5 -70s-53.833 -25 -86.5 -25c-21.333 0 -41.333 3.83301 -60 11.5s-34.834 18 -48.501 31
s-24.334 28.333 -32.001 46s-11.5 36.834 -11.5 57.501v222zM208.001 254.999v198c0 13.333 -3 24.333 -9 33s-13.667 13 -23 13c-10 0 -18 -4.33301 -24 -13s-9 -19.667 -9 -33v-198h65z" />
    <glyph glyph-name="f" unicode="f" horiz-adv-x="190"
d="M45 495l-0.000976562 90c0 36 11.667 65.667 35 89s53 35 89 35c34.667 0 67.334 -11 98.001 -33l-4 -5c-26 18 -48 27 -66 27c-27.333 0 -41 -22 -41 -66v-137h80v-6h-80v-489h-111v489h-45v6h45z" />
    <glyph glyph-name="g" unicode="g" horiz-adv-x="345"
d="M171 -175c-48.667 0 -87.501 11.668 -116.501 35.001s-43.5 54.333 -43.5 93h62c0 -37.333 9.16699 -67 27.5 -89s43.166 -33 74.499 -33c15.333 0 30 2.66699 44 8s26.5 12.333 37.5 21s19.833 18.5 26.5 29.5s10 22.5 10 34.5c0 14.667 -4.5 26.5 -13.5 35.5
s-20.167 13.5 -33.5 13.5h-133c-28 0 -50 7.16699 -66 21.5s-24 34.166 -24 59.499c0 42.667 23.333 80.667 70 114c-21.333 14 -38 31.833 -50 53.5s-18 45.167 -18 70.5v72c0 19.333 3.83301 37.5 11.5 54.5s17.834 32 30.501 45s27.667 23.333 45 31s35.333 11.5 54 11.5
c19.333 0 38.5 -4 57.5 -12s35.833 -19.667 50.5 -35c11.333 36.667 35.666 55 72.999 55v-67c-8 3.33301 -16.167 5.83301 -24.5 7.5s-16.5 2.5 -24.5 2.5c-3.33301 0 -6.66602 -0.166992 -9.99902 -0.5s-6.66602 -0.833008 -9.99902 -1.5c22.667 -26 34 -55.333 34 -88
v-77c0 -20.667 -3.5 -39.834 -10.5 -57.501s-16.833 -33 -29.5 -46s-27.334 -23.333 -44.001 -31s-35 -11.5 -55 -11.5c-26 0 -50.667 6.66699 -74 20c-24 -17.333 -36 -33.333 -36 -48c0 -20 18.333 -30 55 -30h148c27.333 0 49.333 -9.66699 66 -29s25 -44.666 25 -75.999
c0 -22.667 -4.66699 -43.5 -14 -62.5s-22.166 -35.5 -38.499 -49.5s-35.833 -24.833 -58.5 -32.5s-47.667 -11.5 -75 -11.5zM139.999 187.001c0 -11.333 2.66797 -20.333 8.00098 -27s12.666 -10 21.999 -10c18 0 27 12.333 27 37v274c0 11.333 -2.66699 20.5 -8 27.5
s-12 10.5 -20 10.5c-8.66699 0 -15.667 -3.5 -21 -10.5s-8 -16.167 -8 -27.5v-274z" />
    <glyph glyph-name="h" unicode="h" horiz-adv-x="356"
d="M149 433c9.33301 25.333 20.332 43.668 32.999 55.001s28.334 17 47.001 17c14 0 27 -2.83301 39 -8.5s22.5 -13.334 31.5 -23.001s16.167 -21 21.5 -34s8 -26.833 8 -41.5v-398h-118v450c0 25.333 -4.66699 38 -14 38c-4.66699 0 -10 -3 -16 -9s-11.5 -13.5 -16.5 -22.5
s-9.16699 -18.5 -12.5 -28.5s-5 -19.333 -5 -28v-400h-111v699h111v-266h2z" />
    <glyph glyph-name="i" unicode="i" horiz-adv-x="194"
d="M36 624c0 17.333 5.83301 32 17.5 44s26.5 18 44.5 18s33 -6 45 -18s18 -26.667 18 -44c0 -18.667 -6 -33.834 -18 -45.501s-27 -17.5 -45 -17.5s-32.833 5.83301 -44.5 17.5s-17.5 26.834 -17.5 45.501zM153 495v-495h-111v495h111z" />
    <glyph glyph-name="j" unicode="j" horiz-adv-x="225"
d="M68 624c0 17.333 5.83301 31.999 17.5 43.999s26.5 18 44.5 18s33 -6 45 -18s18 -26.667 18 -44c0 -18 -6 -33 -18 -45s-27 -18 -45 -18s-32.833 5.83301 -44.5 17.5s-17.5 26.834 -17.5 45.501zM185 45.999c0 -24 -2.66406 -46.168 -7.99707 -66.501
s-14 -39.166 -26 -56.499s-27.333 -33.833 -46 -49.5s-41.667 -31.5 -69 -47.5l-3 4c7.33301 6.66699 13.666 12.667 18.999 18s9.66602 11.5 12.999 18.5s5.66602 15.5 6.99902 25.5s2 22.667 2 38v565h111v-449z" />
    <glyph glyph-name="k" unicode="k" horiz-adv-x="366"
d="M143 0h-111v699h111v-699zM230 390l145 -390h-115l-96 295v5l125 195h9z" />
    <glyph glyph-name="l" unicode="l" horiz-adv-x="175"
d="M36 699h111v-699h-111v699z" />
    <glyph glyph-name="m" unicode="m" horiz-adv-x="519"
d="M314 422c5.33301 25.333 14.501 45.502 27.501 60.502s30.5 22.5 52.5 22.5c13.333 0 26 -2.83301 38 -8.5s22.333 -13.334 31 -23.001s15.5 -21 20.5 -34s7.5 -26.833 7.5 -41.5v-398h-113v444c0 28.667 -5.33301 43 -16 43c-4.66699 0 -9.83398 -2.5 -15.501 -7.5
s-10.667 -11.333 -15 -19s-8 -16.334 -11 -26.001s-4.5 -19.5 -4.5 -29.5v-405h-113v452c0 22 -4.66699 33 -14 33c-4.66699 0 -9.66699 -3 -15 -9s-10.166 -13.833 -14.499 -23.5s-8 -20.167 -11 -31.5s-4.5 -22 -4.5 -32v-389h-111v495h111v-66h2
c7.33301 23.333 16.666 41.833 27.999 55.5s27.333 20.5 48 20.5c22.667 0 42.5 -7.83301 59.5 -23.5s27.167 -35.5 30.5 -59.5h2z" />
    <glyph glyph-name="n" unicode="n" horiz-adv-x="353"
d="M146 433c9.33301 25.333 20.332 43.668 32.999 55.001s28.334 17 47.001 17c14 0 27 -2.83301 39 -8.5s22.5 -13.334 31.5 -23.001s16.167 -21 21.5 -34s8 -26.833 8 -41.5v-398h-118v450c0 25.333 -4.66699 38 -14 38c-4.66699 0 -10 -3 -16 -9s-11.5 -13.5 -16.5 -22.5
s-9.16699 -18.5 -12.5 -28.5s-5 -19.333 -5 -28v-400h-111v495h111v-62h2z" />
    <glyph glyph-name="o" unicode="o" horiz-adv-x="351"
d="M174 505c20 0 39 -4 57 -12s33.833 -18.667 47.5 -32s24.5 -28.833 32.5 -46.5s12 -36.167 12 -55.5v-227c0 -18.667 -3.83301 -36.667 -11.5 -54s-18.167 -32.5 -31.5 -45.5s-28.833 -23.333 -46.5 -31s-36.5 -11.5 -56.5 -11.5s-39 3.83301 -57 11.5
s-33.833 18 -47.5 31s-24.5 28.167 -32.5 45.5s-12 35.333 -12 54v227c0 19.333 4 37.833 12 55.5s18.667 33.167 32 46.5s28.833 24 46.5 32s36.167 12 55.5 12zM176 499c-9.33301 0 -17.166 -4.33301 -23.499 -13s-9.5 -19.667 -9.5 -33v-413
c0 -13.333 3.16699 -24 9.5 -32s14.166 -12 23.499 -12c10 0 17.833 4 23.5 12s8.5 18.667 8.5 32v413c0 13.333 -3 24.333 -9 33s-13.667 13 -23 13z" />
    <glyph glyph-name="p" unicode="p" horiz-adv-x="353"
d="M36 495l111 0.000976562v-43h2c6.66699 19.333 14.834 33 24.501 41s22.167 12 37.5 12s29.833 -3.33301 43.5 -10s25.667 -15.834 36 -27.501s18.666 -25 24.999 -40s9.5 -30.833 9.5 -47.5v-258c0 -17.333 -3.16699 -34 -9.5 -50s-14.833 -30 -25.5 -42
s-23 -21.667 -37 -29s-28.667 -11 -44 -11c-14.667 0 -26.667 4 -36 12s-17.333 22 -24 42h-2v-212h-111v663zM147 78.001c0 -8.66699 1.33203 -17.5 3.99902 -26.5s6 -17.167 10 -24.5s8.5 -13.333 13.5 -18s9.83301 -7 14.5 -7c6.66699 0 11.834 3.5 15.501 10.5
s5.5 16.167 5.5 27.5v414c0 11.333 -2 20.5 -6 27.5s-9.33301 10.5 -16 10.5c-4.66699 0 -9.5 -2.16699 -14.5 -6.5s-9.5 -10 -13.5 -17s-7.16699 -14.833 -9.5 -23.5s-3.5 -17 -3.5 -25v-342z" />
    <glyph glyph-name="q" unicode="q" horiz-adv-x="350"
d="M206 44l-1.99805 -0.000976562c-6.66699 -20 -15 -34 -25 -42s-22.333 -12 -37 -12s-28.834 3.66699 -42.501 11s-25.834 17 -36.501 29s-19.167 26 -25.5 42s-9.5 32.667 -9.5 50v258c0 16.667 3.16699 32.5 9.5 47.5s14.666 28.333 24.999 40s22.5 20.834 36.5 27.501
s28.333 10 43 10c15.333 0 27.833 -4 37.5 -12s17.834 -21.667 24.501 -41h2v43h111v-663h-111v212zM206.002 419.999c0 8 -1.16699 16.333 -3.5 25s-5.5 16.5 -9.5 23.5s-8.5 12.667 -13.5 17s-9.83301 6.5 -14.5 6.5c-6.66699 0 -12 -3.5 -16 -10.5s-6 -16.167 -6 -27.5
v-414c0 -11.333 2 -20.5 6 -27.5s9 -10.5 15 -10.5c5.33301 0 10.5 2.33301 15.5 7s9.5 10.667 13.5 18s7.16699 15.5 9.5 24.5s3.5 17.833 3.5 26.5v342z" />
    <glyph glyph-name="r" unicode="r" horiz-adv-x="255"
d="M143 495l0.000976562 -97.999h3c4.66699 31.333 16.5 57.166 35.5 77.499s41.167 30.5 66.5 30.5v-98c-11.333 4.66699 -24.333 7 -39 7c-12.667 0 -24.834 -2 -36.501 -6s-21.5 -10 -29.5 -18v-390h-110v495h110z" />
    <glyph glyph-name="s" unicode="s" horiz-adv-x="280"
d="M256 456c-11.333 12 -24.167 21.499 -38.5 28.499s-28.166 10.5 -41.499 10.5c-17.333 0 -31.333 -5.5 -42 -16.5s-16 -24.833 -16 -41.5c0 -16 5.66699 -34.333 17 -55l122 -218c12.667 -23.333 19 -43.666 19 -60.999c0 -16 -3.66699 -30.833 -11 -44.5
s-17.5 -25.5 -30.5 -35.5s-28.167 -18 -45.5 -24s-35.666 -9 -54.999 -9c-48.667 0 -88 17.667 -118 53l5 4c11.333 -14 25.666 -25.5 42.999 -34.5s33.666 -13.5 48.999 -13.5c16.667 0 30.167 5 40.5 15s15.5 23.333 15.5 40c0 22 -10 50 -30 84l-98 173
c-16 28 -24 54.333 -24 79c0 16 3.5 31 10.5 45s16.5 26.167 28.5 36.5s26.167 18.5 42.5 24.5s33.833 9 52.5 9c43.333 0 80 -15 110 -45z" />
    <glyph glyph-name="t" unicode="t" horiz-adv-x="220"
d="M129 -10c-26 0 -46.5029 9.83203 -61.5029 29.499s-22.5 47.5 -22.5 83.5v386h-45v6h45v114l111 41v-155h80v-6h-80v-432c0 -13.333 2.33301 -23.666 7 -30.999s11.334 -11 20.001 -11c15.333 0 31.333 10.333 48 31l5 -3c-13.333 -16 -29.666 -28.833 -48.999 -38.5
s-38.666 -14.5 -57.999 -14.5z" />
    <glyph glyph-name="u" unicode="u" horiz-adv-x="348"
d="M207 62c-9.33301 -25.333 -20.168 -43.667 -32.501 -55s-27.833 -17 -46.5 -17c-14 0 -27 2.83301 -39 8.5s-22.5 13.5 -31.5 23.5s-16.167 21.5 -21.5 34.5s-8 26.833 -8 41.5v397h118v-449c0 -26 4.66699 -39 14 -39c5.33301 0 10.833 3 16.5 9
s10.834 13.5 15.501 22.5s8.66699 18.667 12 29s5 19.833 5 28.5v399h111v-495h-111v62h-2z" />
    <glyph glyph-name="v" unicode="v" horiz-adv-x="309"
d="M170 0h-24l-133 495h117l80 -296h2l76 296h8z" />
    <glyph glyph-name="w" unicode="w" horiz-adv-x="479"
d="M13 495h116l65 -272h2l40 177l-22 95h116l65 -272h2l61 272h8l-111 -495h-24l-90 379h-2l-84 -379h-24z" />
    <glyph glyph-name="x" unicode="x" horiz-adv-x="327"
d="M129 495l63 -165h2l68 165h9l-73 -179l116 -317h-115l-75 193l-10 28h-2l-88 -221h-9l94 236l-95 260h115z" />
    <glyph glyph-name="y" unicode="y" horiz-adv-x="309"
d="M130 494l80 -295h2l76 295h8l-170 -669h-9l45 175h-16l-133 494h117z" />
    <glyph glyph-name="z" unicode="z" horiz-adv-x="330"
d="M27 0v6l160 483h-127v6h252v-6l-160 -483h161v-6h-286z" />
    <glyph glyph-name="braceleft" unicode="{" horiz-adv-x="305"
d="M44 360c17.333 0 29.833 4.33105 37.5 12.998s11.5 23.334 11.5 44.001v211c0 50 7.66699 85.333 23 106s41.333 31 78 31h81v-6h-1c-21.333 0 -36.666 -5 -45.999 -15s-14 -26.667 -14 -50v-197c0 -92.667 -48.333 -139 -145 -139v-2c96.667 0 145 -46.333 145 -139
v-197c0 -23.333 4.66699 -40 14 -50s24.666 -15 45.999 -15h1v-6h-81c-36.667 0 -62.667 10.333 -78 31s-23 56 -23 106v211c0 20.667 -3.83301 35.334 -11.5 44.001s-20.167 13 -37.5 13h-14v6h14z" />
    <glyph glyph-name="bar" unicode="|" horiz-adv-x="66"
d="M30 750h6v-839h-6v839z" />
    <glyph glyph-name="braceright" unicode="}" horiz-adv-x="305"
d="M261.003 354.021c-17.333 0 -29.832 -4.33398 -37.498 -13s-11.499 -23.332 -11.499 -43.9971v-210.987c0 -49.9971 -7.66602 -85.3281 -22.999 -105.993c-15.332 -20.665 -41.3301 -30.998 -77.9951 -30.998h-80.9951v5.99902h1c21.332 0 36.6641 5 45.9971 14.999
c9.33301 10 13.999 26.666 13.999 49.9971v196.988c0 92.6611 48.3301 138.991 144.991 138.991v2c-96.6611 0 -144.991 46.3311 -144.991 138.992v196.987c0 23.332 -4.66602 39.998 -13.999 49.9971s-24.665 14.999 -45.9971 14.999h-1v6h80.9951
c36.665 0 62.6631 -10.333 77.9951 -30.998c15.333 -20.665 22.999 -55.9961 22.999 -105.993v-210.986c0 -20.666 3.83301 -35.332 11.499 -43.998s20.165 -12.999 37.498 -12.999h13.999v-6h-13.999z" />
    <glyph glyph-name="asciitilde" unicode="~" horiz-adv-x="373"
d="M30 217c21.333 66.667 54.668 100.002 100.001 100.002c8.66699 0 18.334 -1.33301 29.001 -4s23 -6.33398 37 -11.001l12 -5c18 -6.66699 32.167 -11.334 42.5 -14.001s19.833 -4 28.5 -4c30.667 0 50.667 13.333 60 40l4 -1c-16 -68.667 -46.333 -103 -91 -103
c-9.33301 0 -19.333 1.33301 -30 4s-24.334 7 -41.001 13c-19.333 7.33301 -35.333 12.5 -48 15.5s-24.334 4.5 -35.001 4.5c-33.333 0 -54.333 -12.333 -63 -37z" />
    <glyph glyph-name="uni00A0" unicode="&#xa0;" horiz-adv-x="171"
 />
    <glyph glyph-name="exclamdown" unicode="&#xa1;" horiz-adv-x="278"
d="M71 443c0 18 5.83301 32.832 17.5 44.499s26.5 17.5 44.5 17.5s33 -6 45 -18s18 -26.667 18 -44c0 -18 -6 -33 -18 -45s-27 -18 -45 -18s-32.833 5.83301 -44.5 17.5s-17.5 26.834 -17.5 45.501zM136 355.999l65 -528h-136l65 528h6z" />
    <glyph glyph-name="cent" unicode="&#xa2;" horiz-adv-x="298"
d="M230 537h8.00195l-6 -42c25.333 -10 46 -24.667 62 -44l-4 -4c-16 19.333 -35.333 33 -58 41l-61 -482c10.667 -4.66699 20.667 -7 30 -7c10 0 20.667 2.16699 32 6.5s22.166 10 32.499 17s19.666 15.167 27.999 24.5s14.833 19.333 19.5 30l5 -2
c-14 -30 -34.167 -51.667 -60.5 -65s-55.5 -20 -87.5 -20l-5 -39h-8l5 40c-19.333 2 -37.166 7.16699 -53.499 15.5s-30.5 19 -42.5 32s-21.333 28 -28 45s-10 35.5 -10 55.5v211c0 22 3.66699 42.5 11 61.5s17.666 35.5 30.999 49.5s29 24.833 47 32.5s37.333 11.5 58 11.5
c16 0 32.667 -2.66699 50 -8zM224.002 491c-11.333 3.33301 -21 4.99902 -29 4.99902c-16 0 -28.667 -4.66699 -38 -14s-14 -22.666 -14 -39.999v-378c0 -23.333 7 -41 21 -53z" />
    <glyph glyph-name="sterling" unicode="&#xa3;" horiz-adv-x="414"
d="M105 382v155.997c0 52 13.5 93.5 40.5 124.5s63.5 46.5 109.5 46.5c24.667 0 48.5 -4.5 71.5 -13.5s42.167 -21.167 57.5 -36.5l-4 -4c-13.333 13.333 -28.666 23.833 -45.999 31.5s-34 11.5 -50 11.5c-18.667 0 -33.167 -5.5 -43.5 -16.5s-15.5 -26.167 -15.5 -45.5
v-254h106v-6h-106v-58c0 -31.333 -4.16699 -61.166 -12.5 -89.499s-19.833 -55.166 -34.5 -80.499s-31.5 -49.5 -50.5 -72.5s-39.5 -45.167 -61.5 -66.5v-3h298v-6h-304v7c9.33301 14 16.833 28.5 22.5 43.5s10.167 32.833 13.5 53.5s5.66602 44.834 6.99902 72.501
s2 61.5 2 101.5v98h-75v6h75z" />
    <glyph glyph-name="currency" unicode="&#xa4;" horiz-adv-x="368"
d="M338 216l-14 -15l-43 43c-28 -24 -60.333 -36 -97 -36s-69 12 -97 36l-43 -43l-14 15l43 42c-24.667 28 -37 60.667 -37 98c0 36.667 12 69 36 97l-42 42l14 14l43 -42c28 24 60.333 36 97 36s69 -12.333 97 -37l43 43l14 -14l-43 -43c24 -28 36 -60 36 -96
c0 -36.667 -12 -69 -36 -97zM56 356c0 -18 3.33301 -34.667 10 -50s15.834 -28.833 27.501 -40.5s25.167 -20.834 40.5 -27.501s32 -10 50 -10c17.333 0 33.833 3.33301 49.5 10s29.167 15.834 40.5 27.501s20.333 25.167 27 40.5s10 32 10 50
c0 17.333 -3.33301 33.833 -10 49.5s-15.667 29.167 -27 40.5s-24.833 20.333 -40.5 27s-32.167 10 -49.5 10c-18 0 -34.667 -3.33301 -50 -10s-28.833 -15.667 -40.5 -27s-20.834 -24.833 -27.501 -40.5s-10 -32.167 -10 -49.5z" />
    <glyph glyph-name="yen" unicode="&#xa5;" horiz-adv-x="321"
d="M228 351h2l91 348h8l-95 -364v-12h94v-6h-94v-91h94v-6h-94v-220h-121v220h-95v6h95v91h-95v6h93l-119 376h126z" />
    <glyph glyph-name="brokenbar" unicode="&#xa6;" horiz-adv-x="66"
d="M36 729v-321h-6v321h6zM30 -30v323h6v-323h-6z" />
    <glyph glyph-name="section" unicode="&#xa7;" horiz-adv-x="369"
d="M16 288c0 16 3.49902 31.001 10.499 45.001s16.667 26.167 29 36.5s26.666 18.5 42.999 24.5s33.833 9 52.5 9c16.667 0 32 -2.33301 46 -7l-67 119c-16.667 28.667 -25 55 -25 79c0 16 3.5 31 10.5 45s16.5 26.167 28.5 36.5s26.333 18.5 43 24.5s34.334 9 53.001 9
c21.333 0 41.333 -3.83301 60 -11.5s35 -18.834 49 -33.501l-5 -4c-11.333 12 -24 21.5 -38 28.5s-27.667 10.5 -41 10.5c-17.333 0 -31.5 -5.5 -42.5 -16.5s-16.5 -24.833 -16.5 -41.5c0 -16 5.66699 -34.333 17 -55l123 -218c12 -22 18 -42.333 18 -61
c0 -16 -3.66699 -30.833 -11 -44.5s-17.5 -25.5 -30.5 -35.5s-28 -18 -45 -24s-35.167 -9 -54.5 -9c-15.333 0 -30 2 -44 6l78 -138c12 -22 18 -42.667 18 -62c0 -15.333 -3.66699 -29.833 -11 -43.5s-17.5 -25.5 -30.5 -35.5s-28 -18 -45 -24s-35.167 -9 -54.5 -9
c-49.333 0 -88.666 17.667 -117.999 53l4 4c12 -14.667 26.5 -26.334 43.5 -35.001s33.5 -13 49.5 -13c16.667 0 30 5 40 15s15 23 15 39c0 22 -9.66699 50.333 -29 85l-98 172c-16.667 28.667 -25 55.334 -25 80.001zM116.999 335.001
c0 -20.667 8.99902 -45.667 26.999 -75l31 -53c4 -1.33301 8 -2.33301 12 -3s8 -1 12 -1c16 0 29.667 5.66699 41 17s17 25.333 17 42c0 10.667 -2.66699 23.167 -8 37.5s-12.666 29.833 -21.999 46.5l-25 42c-8.66699 3.33301 -16.667 5 -24 5
c-17.333 0 -31.833 -5.5 -43.5 -16.5s-17.5 -24.833 -17.5 -41.5z" />
    <glyph glyph-name="dieresis" unicode="&#xa8;" horiz-adv-x="254"
d="M30 620c0 11.333 3.5 20.5 10.5 27.5s16.167 10.5 27.5 10.5s20.666 -3.5 27.999 -10.5s11 -16.167 11 -27.5s-3.66699 -20.5 -11 -27.5s-16.666 -10.5 -27.999 -10.5s-20.5 3.5 -27.5 10.5s-10.5 16.167 -10.5 27.5zM147 620c0 11.333 3.66699 20.5 11 27.5
s16.666 10.5 27.999 10.5s20.5 -3.5 27.5 -10.5s10.5 -16.167 10.5 -27.5s-3.5 -20.5 -10.5 -27.5s-16.167 -10.5 -27.5 -10.5s-20.666 3.5 -27.999 10.5s-11 16.167 -11 27.5z" />
    <glyph glyph-name="copyright" unicode="&#xa9;" horiz-adv-x="670"
d="M30 344c0 50 7.83301 96.667 23.5 140s37.167 80.833 64.5 112.5s59.666 56.667 96.999 75s77.333 27.5 120 27.5c43.333 0 83.5 -9.16699 120.5 -27.5s69.167 -43.333 96.5 -75s48.833 -69.167 64.5 -112.5s23.5 -90 23.5 -140s-7.83301 -96.667 -23.5 -140
s-37.167 -80.833 -64.5 -112.5s-59.5 -56.667 -96.5 -75s-77.167 -27.5 -120.5 -27.5c-42.667 0 -82.667 9.16699 -120 27.5s-69.666 43.333 -96.999 75s-48.833 69.167 -64.5 112.5s-23.5 90 -23.5 140zM39 344c0 -48.667 7.66699 -94.166 23 -136.499
s36.166 -79.166 62.499 -110.499s57.5 -55.833 93.5 -73.5s75 -26.5 117 -26.5s81 8.83301 117 26.5s67.333 42 94 73s47.5 67.667 62.5 110s22.5 88.166 22.5 137.499s-7.5 95.166 -22.5 137.499s-35.833 79 -62.5 110s-58 55.333 -94 73s-75 26.5 -117 26.5
s-81 -8.83301 -117 -26.5s-67.167 -42.167 -93.5 -73.5s-47.166 -68 -62.499 -110s-23 -87.667 -23 -137zM194 403.001c0 22 3.66992 42.499 11.0029 61.499s17.666 35.5 30.999 49.5s29 24.833 47 32.5s37.667 11.5 59 11.5c23.333 0 45.333 -4.66699 66 -14
s38 -22.666 52 -39.999l-4 -4c-11.333 14 -26 25.667 -44 35s-35 14 -51 14s-28.667 -4.66699 -38 -14s-14 -22.666 -14 -39.999v-290c0 -19.333 5.33301 -35 16 -47s24.667 -18 42 -18c10.667 0 21.667 2.16699 33 6.5s22 10.166 32 17.499s19.167 15.833 27.5 25.5
s14.833 19.834 19.5 30.501l5 -3c-12.667 -26.667 -31.334 -47.5 -56.001 -62.5s-52.334 -22.5 -83.001 -22.5c-21.333 0 -41.166 3.66699 -59.499 11s-34.333 17.666 -48 30.999s-24.334 29 -32.001 47s-11.5 37.667 -11.5 59v123z" />
    <glyph glyph-name="ordfeminine" unicode="&#xaa;" horiz-adv-x="237"
d="M30 456l0.00488281 29.002c0 25.333 7.66699 44.333 23 57s42.666 23 81.999 31v95c0 20 -9 30 -27 30c-10.667 0 -21.834 -2.83301 -33.501 -8.5s-20.834 -12.834 -27.501 -21.501l-4 3c8.66699 11.333 19.667 19.833 33 25.5s27.666 8.5 42.999 8.5
c25.333 0 46.166 -7.83301 62.499 -23.5s24.5 -36.5 24.5 -62.5v-223h-71v25h-1c-5.33301 -9.33301 -12.5 -16.833 -21.5 -22.5s-18.833 -8.5 -29.5 -8.5c-16 0 -28.833 6.16699 -38.5 18.5s-14.5 28.166 -14.5 47.499zM135.005 433.002v134.002
c-8 -2 -14.333 -4.16699 -19 -6.5s-8 -5.33301 -10 -9s-3.33301 -8.33398 -4 -14.001s-1 -12.834 -1 -21.501v-80c0 -16.667 4.33301 -25 13 -25c6.66699 0 13.667 7.33301 21 22z" />
    <glyph glyph-name="guillemotleft" unicode="&#xab;" horiz-adv-x="369"
d="M186.011 310.019l147.991 127.992l5 -4l-55.9971 -125.992v-4l55.9971 -124.992l-5 -4l-147.991 126.992v8zM30.0205 310.019l148.991 127.992l5 -4l-56.9971 -125.992v-4l56.9971 -124.992l-5 -4l-148.991 126.992v8z" />
    <glyph glyph-name="logicalnot" unicode="&#xac;" horiz-adv-x="460"
d="M430 213h-45v129h-355v45h400v-174z" />
    <glyph glyph-name="uni00AD" unicode="&#xad;" horiz-adv-x="367"
d="M338 315v-6h-308v6h308z" />
    <glyph glyph-name="registered" unicode="&#xae;" horiz-adv-x="327"
d="M164 437c-18.667 0 -36.167 3.83203 -52.5 11.499s-30.5 18 -42.5 31s-21.5 28.333 -28.5 46s-10.5 36.834 -10.5 57.501s3.5 39.834 10.5 57.501s16.5 33 28.5 46s26.167 23.167 42.5 30.5s33.833 11 52.5 11s36.167 -3.83301 52.5 -11.5s30.5 -18 42.5 -31
s21.333 -28.333 28 -46s10 -36.5 10 -56.5c0 -20.667 -3.33301 -39.834 -10 -57.501s-16 -33 -28 -46s-26.167 -23.333 -42.5 -31s-33.833 -11.5 -52.5 -11.5zM164 442.999c18 0 34.667 3.66602 50 10.999s28.666 17.333 39.999 30s20.333 27.5 27 44.5s10 35.167 10 54.5
s-3.33301 37.5 -10 54.5s-15.667 31.833 -27 44.5s-24.666 22.5 -39.999 29.5s-32 10.5 -50 10.5s-34.833 -3.5 -50.5 -10.5s-29.167 -16.833 -40.5 -29.5s-20.333 -27.5 -27 -44.5s-10 -35.167 -10 -54.5c0 -20 3.33301 -38.5 10 -55.5s15.667 -31.667 27 -44
s24.833 -22.166 40.5 -29.499s32.5 -11 50.5 -11zM169 662.998c12.667 0 23.334 -3.66797 32.001 -11.001s13 -16.333 13 -27v-7c0 -10 -4.16699 -18.5 -12.5 -25.5s-18.5 -10.5 -30.5 -10.5v-2l4.5 -0.5c3 -0.333008 6.5 -1.16602 10.5 -2.49902
s7.83301 -3.83301 11.5 -7.5s6.5 -8.5 8.5 -14.5l14 -53h-37l-15 62c-2.66699 10.667 -6.33398 16 -11.001 16h-2v-78h-36v161h50zM155 585.997l11 0.000976562c8 0 12 8 12 24v23c0 7.33301 -1.33301 13.166 -4 17.499s-6 6.5 -10 6.5h-9v-71z" />
    <glyph glyph-name="macron" unicode="&#xaf;" horiz-adv-x="227"
d="M197 619h-167v6h167v-6z" />
    <glyph glyph-name="degree" unicode="&#xb0;" horiz-adv-x="240"
d="M120 430c-25.333 0 -46.668 8.83301 -64.001 26.5s-26 39.167 -26 64.5s8.83301 46.666 26.5 63.999s38.834 26 63.501 26c25.333 0 46.666 -8.66699 63.999 -26s26 -38.666 26 -63.999s-8.66699 -46.833 -26 -64.5s-38.666 -26.5 -63.999 -26.5zM119.998 605
c-23.333 0 -43.165 -8.16699 -59.498 -24.5s-24.5 -36.166 -24.5 -59.499c0 -12 2.16699 -23.167 6.5 -33.5s10.333 -19.333 18 -27s16.667 -13.667 27 -18s21.166 -6.5 32.499 -6.5c23.333 0 43.166 8.33301 59.499 25s24.5 36.667 24.5 60
c0 11.333 -2.16699 22.166 -6.5 32.499s-10.333 19.333 -18 27s-16.5 13.667 -26.5 18s-21 6.5 -33 6.5z" />
    <glyph glyph-name="plusminus" unicode="&#xb1;" horiz-adv-x="368"
d="M30 359h150v156h6v-156h152v-6h-152v-157h-6v157h-150v6zM338 136v-6h-308v6h308z" />
    <glyph glyph-name="twosuperior" unicode="&#xb2;" horiz-adv-x="193"
d="M37 678c16 18 35.999 27.001 59.999 27.001c20.667 0 36.834 -6.16699 48.501 -18.5s17.5 -29.5 17.5 -51.5c0 -16.667 -3.66699 -32.334 -11 -47.001s-19.666 -31 -36.999 -49l-32 -30c-21.333 -21.333 -35.333 -40.333 -42 -57h121v-54h-132
c0 25.333 3.33301 49.5 10 72.5s17.667 48.167 33 75.5l8 16c12 20.667 20.333 37.667 25 51s7 26.333 7 39c0 13.333 -2.66699 24 -8 32s-13 12 -23 12c-14.667 0 -28.334 -7.33301 -41.001 -22z" />
    <glyph glyph-name="threesuperior" unicode="&#xb3;" horiz-adv-x="193"
d="M35 678c14.667 18 34 27.002 58 27.002c19.333 0 35.333 -6.5 48 -19.5s19 -31.167 19 -54.5v-4c0 -22 -4 -38.333 -12 -49s-19.667 -17.667 -35 -21v-1c16.667 -4 29.334 -11.5 38.001 -22.5s13 -27.5 13 -49.5v-8c0 -26.667 -6.83301 -46.834 -20.5 -60.501
s-32.167 -20.5 -55.5 -20.5c-22.667 0 -42 6 -58 18l3 5c14 -10 28.667 -15 44 -15c11.333 0 20.166 4.83301 26.499 14.5s9.5 29.167 9.5 58.5v3c0 29.333 -3 49 -9 59s-16.667 15 -32 15v6c14.667 0 24.5 4.66699 29.5 14s7.5 26.666 7.5 51.999v7
c0 24.667 -2.5 41.5 -7.5 50.5s-12.5 13.5 -22.5 13.5c-14.667 0 -27.667 -7.33301 -39 -22z" />
    <glyph glyph-name="acute" unicode="&#xb4;" horiz-adv-x="173"
d="M30 568l33 114h80l-107 -114h-6z" />
    <glyph glyph-name="paragraph" unicode="&#xb6;" horiz-adv-x="365"
d="M179 699h6v-729h-6v432c-45.333 0 -81.5 13.5 -108.5 40.5s-40.5 63.167 -40.5 108.5c0 44.667 13.5 80.5 40.5 107.5s63.167 40.5 108.5 40.5zM329 699h6v-729h-6v729z" />
    <glyph glyph-name="periodcentered" unicode="&#xb7;" horiz-adv-x="153"
d="M30 323c0 13.333 4.33301 24.333 13 33s19.667 13 33 13s24.666 -4.33301 33.999 -13s14 -19.667 14 -33s-4.66699 -24.5 -14 -33.5s-20.666 -13.5 -33.999 -13.5s-24.333 4.33301 -33 13s-13 20 -13 34z" />
    <glyph glyph-name="cedilla" unicode="&#xb8;" horiz-adv-x="208"
d="M35 -99c6 -8 14.1689 -14.499 24.502 -19.499s20.5 -7.5 30.5 -7.5c22.667 0 34 11 34 33c0 23.333 -17.667 38 -53 44l21 45h7l-13 -30c27.333 -0.666992 49.666 -6.33398 66.999 -17.001s26 -24 26 -40c0 -14 -6.33301 -25.667 -19 -35s-28.334 -14 -47.001 -14
c-16 0 -31.333 3.33301 -46 10s-27 15.667 -37 27z" />
    <glyph glyph-name="onesuperior" unicode="&#xb9;" horiz-adv-x="136"
d="M58 675l-26 -14l-3 6l59 32h17v-300h-47v276z" />
    <glyph glyph-name="ordmasculine" unicode="&#xba;" horiz-adv-x="238"
d="M118 705c12 0 23.333 -2.33301 34 -7s20 -11 28 -19s14.5 -17.333 19.5 -28s7.5 -21.667 7.5 -33v-136c0 -11.333 -2.33301 -22.166 -7 -32.499s-11 -19.333 -19 -27s-17.167 -13.834 -27.5 -18.501s-21.5 -7 -33.5 -7s-23.5 2.33301 -34.5 7s-20.5 10.834 -28.5 18.501
s-14.5 16.667 -19.5 27s-7.5 21.166 -7.5 32.499v136c0 11.333 2.33301 22.333 7 33s11 20 19 28s17.333 14.333 28 19s22 7 34 7zM119 699c-5.33301 0 -10 -2.66699 -14 -8s-6 -12 -6 -20v-241c0 -8 2 -14.5 6 -19.5s8.66699 -7.5 14 -7.5c6 0 10.667 2.5 14 7.5
s5 11.5 5 19.5v241c0 8 -1.83301 14.667 -5.5 20s-8.16699 8 -13.5 8z" />
    <glyph glyph-name="guillemotright" unicode="&#xbb;" horiz-adv-x="369"
d="M183 303l-148 -128l-5 4l56 126v4l-56 125l5 4l148 -127v-8zM339 303l-149 -128l-5 4l57 126v4l-57 125l5 4l149 -127v-8z" />
    <glyph glyph-name="onequarter" unicode="&#xbc;" horiz-adv-x="341"
d="M58 675l-26 -14l-3 6l59 32h17v-300h-47v276zM251 699h8l-170 -699h-8zM180 76l89 225h21v-211h21v-35h-21v-55h-49v55h-61v21zM239 205l-45 -114v-1h47v115h-2z" />
    <glyph glyph-name="onehalf" unicode="&#xbd;" horiz-adv-x="368"
d="M58 675l-26 -14l-3 6l59 32h17v-300h-47v276zM251 699h8l-170 -699h-8zM212 280c16 18 35.999 27.001 59.999 27.001c20.667 0 36.834 -6.16699 48.501 -18.5s17.5 -29.5 17.5 -51.5c0 -16.667 -3.66699 -32.334 -11 -47.001s-19.666 -31 -36.999 -49l-32 -30
c-21.333 -21.333 -35.333 -40.333 -42 -57h121v-54h-132c0 25.333 3.33301 49.5 10 72.5s17.667 48.167 33 75.5l8 16c12 20.667 20.333 37.667 25 51s7 26.333 7 39c0 13.333 -2.66699 24 -8 32s-13 12 -23 12c-14.667 0 -28.334 -7.33301 -41.001 -22z" />
    <glyph glyph-name="threequarters" unicode="&#xbe;" horiz-adv-x="391"
d="M35 678c14.667 18 34 27.002 58 27.002c19.333 0 35.333 -6.5 48 -19.5s19 -31.167 19 -54.5v-4c0 -22 -4 -38.333 -12 -49s-19.667 -17.667 -35 -21v-1c16.667 -4 29.334 -11.5 38.001 -22.5s13 -27.5 13 -49.5v-8c0 -26.667 -6.83301 -46.834 -20.5 -60.501
s-32.167 -20.5 -55.5 -20.5c-22.667 0 -42 6 -58 18l3 5c14 -10 28.667 -15 44 -15c11.333 0 20.166 4.83301 26.499 14.5s9.5 29.167 9.5 58.5v3c0 29.333 -3 49 -9 59s-16.667 15 -32 15v6c14.667 0 24.5 4.66699 29.5 14s7.5 26.666 7.5 51.999v7
c0 24.667 -2.5 41.5 -7.5 50.5s-12.5 13.5 -22.5 13.5c-14.667 0 -27.667 -7.33301 -39 -22zM230 76.002l89 225h21v-211h21v-35h-21v-55h-49v55h-61v21zM289 205.002l-45 -114v-1h47v115h-2zM301 699.002h8l-170 -699h-8z" />
    <glyph glyph-name="questiondown" unicode="&#xbf;" horiz-adv-x="416"
d="M335 442c0 -18 -5.83301 -32.832 -17.5 -44.499s-26.5 -17.5 -44.5 -17.5s-33 6 -45 18s-18 26.667 -18 44c0 18 6 33 18 45s27 18 45 18s32.833 -5.83301 44.5 -17.5s17.5 -26.834 17.5 -45.501zM352 -108.999c-15.333 -19.333 -34.498 -34.332 -57.498 -44.999
s-48.5 -16 -76.5 -16c-46.667 0 -83.834 15 -111.501 45s-41.5 70 -41.5 120c0 29.333 4.83301 56.666 14.5 81.999s23.334 49.833 41.001 73.5s39.167 47 64.5 70s53.666 46.833 84.999 71.5v64h6v-170c-32.667 -30.667 -56.334 -62.5 -71.001 -95.5
s-22 -70.167 -22 -111.5c0 -42 6.66699 -74.833 20 -98.5s32 -35.5 56 -35.5c15.333 0 30.833 4.5 46.5 13.5s29.5 21.167 41.5 36.5z" />
    <glyph glyph-name="Agrave" unicode="&#xc0;" horiz-adv-x="305"
d="M121 699h30l162 -699h-124l-51 218h-97l-41 -218h-8zM42 224h94l-51 220h-2zM147 739l-107 114h80l33 -114h-6z" />
    <glyph glyph-name="Aacute" unicode="&#xc1;" horiz-adv-x="305"
d="M121 699h30l162 -699h-124l-51 218h-97l-41 -218h-8zM42 224h94l-51 220h-2zM118 739l33 114h80l-107 -114h-6z" />
    <glyph glyph-name="Acircumflex" unicode="&#xc2;" horiz-adv-x="305"
d="M121 699h30l162 -699h-124l-51 218h-97l-41 -218h-8zM42 224h94l-51 220h-2zM134 853h6l97 -114h-6l-95 50l-94 -50h-6z" />
    <glyph glyph-name="Atilde" unicode="&#xc3;" horiz-adv-x="305"
d="M121 699h30l162 -699h-124l-51 218h-97l-41 -218h-8zM42 224h94l-51 220h-2zM44 765l-5.00098 2c18 42 41.333 63 70 63c10 0 19.333 -2 28 -6l32 -14c9.33301 -4 18.333 -6 27 -6c14.667 0 25.334 8 32.001 24l5 -3c-18 -43.333 -41.667 -65 -71 -65
c-10 0 -20.333 2.33301 -31 7l-21 10c-9.33301 4 -16.833 7 -22.5 9s-10.5 3 -14.5 3c-12 0 -21.667 -8 -29 -24z" />
    <glyph glyph-name="Adieresis" unicode="&#xc4;" horiz-adv-x="305"
d="M121 699h30l162 -699h-124l-51 218h-97l-41 -218h-8zM42 224h94l-51 220h-2zM39 791c0 11.333 3.5 20.5 10.5 27.5s16.167 10.5 27.5 10.5s20.666 -3.5 27.999 -10.5s11 -16.167 11 -27.5s-3.66699 -20.5 -11 -27.5s-16.666 -10.5 -27.999 -10.5s-20.5 3.5 -27.5 10.5
s-10.5 16.167 -10.5 27.5zM156 791c0 11.333 3.66699 20.5 11 27.5s16.666 10.5 27.999 10.5s20.5 -3.5 27.5 -10.5s10.5 -16.167 10.5 -27.5s-3.5 -20.5 -10.5 -27.5s-16.167 -10.5 -27.5 -10.5s-20.666 3.5 -27.999 10.5s-11 16.167 -11 27.5z" />
    <glyph glyph-name="Aring" unicode="&#xc5;" horiz-adv-x="305"
d="M121 699h30l162 -699h-124l-51 218h-97l-41 -218h-8zM42 224h94l-51 220h-2zM80 796c0 15.333 5.49902 28.5 16.499 39.5s24.167 16.5 39.5 16.5c16 0 29.5 -5.5 40.5 -16.5s16.5 -24.167 16.5 -39.5c0 -16 -5.66699 -29.5 -17 -40.5s-24.666 -16.5 -39.999 -16.5
s-28.5 5.5 -39.5 16.5s-16.5 24.5 -16.5 40.5zM85.999 796c0 -14 4.83301 -26 14.5 -36s21.5 -15 35.5 -15s25.833 5 35.5 15s14.5 22 14.5 36s-4.83301 25.833 -14.5 35.5s-21.5 14.5 -35.5 14.5s-25.833 -4.83301 -35.5 -14.5s-14.5 -21.5 -14.5 -35.5z" />
    <glyph glyph-name="AE" unicode="&#xc6;" horiz-adv-x="433"
d="M414 699v-6h-121v-333h100v-6h-100v-348h121v-7h-241v218h-131l-56 -218h-8l180 700h256zM44 223h129v469h-8z" />
    <glyph glyph-name="Ccedilla" unicode="&#xc7;" horiz-adv-x="359"
d="M33 522c0 27.333 4.16699 52.5 12.5 75.5s20 42.667 35 59s33 29.166 54 38.499s43.833 14 68.5 14c53.333 0 97.333 -21 132 -63l-5 -3c-15.333 18 -32.666 32 -51.999 42s-39 15 -59 15c-23.333 0 -40 -7.16699 -50 -21.5s-15 -37.833 -15 -70.5v-518
c0 -34 4.33301 -57.667 13 -71s24.667 -20 48 -20c15.333 0 30.166 2.5 44.499 7.5s27.666 11.833 39.999 20.5s23 18.834 32 30.501s15.5 24.167 19.5 37.5l5 -2c-11.333 -32 -30.666 -57.167 -57.999 -75.5s-59 -27.5 -95 -27.5c-25.333 0 -48.333 4.66699 -69 14
s-38.5 22.5 -53.5 39.5s-26.667 37.333 -35 61s-12.5 49.5 -12.5 77.5v340zM145 -99c6 -8 14.1689 -14.499 24.502 -19.499s20.5 -7.5 30.5 -7.5c22.667 0 34 11 34 33c0 23.333 -17.667 38 -53 44l21 45h7l-13 -30c27.333 -0.666992 49.666 -6.33398 66.999 -17.001
s26 -24 26 -40c0 -14 -6.33301 -25.667 -19 -35s-28.334 -14 -47.001 -14c-16 0 -31.333 3.33301 -46 10s-27 15.667 -37 27z" />
    <glyph glyph-name="Egrave" unicode="&#xc8;" horiz-adv-x="297"
d="M279 699v-6h-121v-333h100v-6h-100v-348h121v-6h-241v699h241zM172 739l-107 114h80l33 -114h-6z" />
    <glyph glyph-name="Eacute" unicode="&#xc9;" horiz-adv-x="297"
d="M279 699v-6h-121v-333h100v-6h-100v-348h121v-6h-241v699h241zM143 739l33 114h80l-107 -114h-6z" />
    <glyph glyph-name="Ecircumflex" unicode="&#xca;" horiz-adv-x="297"
d="M279 699v-6h-121v-333h100v-6h-100v-348h121v-6h-241v699h241zM159 853h6l97 -114h-6l-95 50l-94 -50h-6z" />
    <glyph glyph-name="Edieresis" unicode="&#xcb;" horiz-adv-x="297"
d="M279 699v-6h-121v-333h100v-6h-100v-348h121v-6h-241v699h241zM64 791c0 11.333 3.5 20.5 10.5 27.5s16.167 10.5 27.5 10.5s20.666 -3.5 27.999 -10.5s11 -16.167 11 -27.5s-3.66699 -20.5 -11 -27.5s-16.666 -10.5 -27.999 -10.5s-20.5 3.5 -27.5 10.5
s-10.5 16.167 -10.5 27.5zM181 791c0 11.333 3.66699 20.5 11 27.5s16.666 10.5 27.999 10.5s20.5 -3.5 27.5 -10.5s10.5 -16.167 10.5 -27.5s-3.5 -20.5 -10.5 -27.5s-16.167 -10.5 -27.5 -10.5s-20.666 3.5 -27.999 10.5s-11 16.167 -11 27.5z" />
    <glyph glyph-name="Igrave" unicode="&#xcc;" horiz-adv-x="196"
d="M158 699v-699h-120v699h120zM109 739l-107 114h80l33 -114h-6z" />
    <glyph glyph-name="Iacute" unicode="&#xcd;" horiz-adv-x="196"
d="M158 699v-699h-120v699h120zM80 739l33 114h80l-107 -114h-6z" />
    <glyph glyph-name="Icircumflex" unicode="&#xce;" horiz-adv-x="196"
d="M158 699v-699h-120v699h120zM96 853h6l97 -114h-6l-95 50l-94 -50h-6z" />
    <glyph glyph-name="Idieresis" unicode="&#xcf;" horiz-adv-x="196"
d="M158 699v-699h-120v699h120zM1 791c0 11.333 3.5 20.5 10.5 27.5s16.167 10.5 27.5 10.5s20.666 -3.5 27.999 -10.5s11 -16.167 11 -27.5s-3.66699 -20.5 -11 -27.5s-16.666 -10.5 -27.999 -10.5s-20.5 3.5 -27.5 10.5s-10.5 16.167 -10.5 27.5zM118 791
c0 11.333 3.66699 20.5 11 27.5s16.666 10.5 27.999 10.5s20.5 -3.5 27.5 -10.5s10.5 -16.167 10.5 -27.5s-3.5 -20.5 -10.5 -27.5s-16.167 -10.5 -27.5 -10.5s-20.666 3.5 -27.999 10.5s-11 16.167 -11 27.5z" />
    <glyph glyph-name="Eth" unicode="&#xd0;" horiz-adv-x="394"
d="M38 699h168.001c22.667 0 43.5 -4.5 62.5 -13.5s35.5 -21.5 49.5 -37.5s24.833 -35 32.5 -57s11.5 -46 11.5 -72v-340c0 -26 -3.83301 -49.833 -11.5 -71.5s-18.334 -40.5 -32.001 -56.5s-29.667 -28.5 -48 -37.5s-38.5 -13.5 -60.5 -13.5h-172v699zM159.001 6
l39.999 -0.000976562c16 0 27 7.5 33 22.5s9 35.167 9 60.5v517c0 24.667 -3.66699 45.334 -11 62.001s-19.666 25 -36.999 25h-34v-687zM1 352.999h202v-6h-202v6z" />
    <glyph glyph-name="Ntilde" unicode="&#xd1;" horiz-adv-x="360"
d="M319 272h2v427h6v-699h-30l-256 650h-2v-650h-6v699h117zM91 765l-5.00098 2c18 42 41.333 63 70 63c10 0 19.333 -2 28 -6l32 -14c9.33301 -4 18.333 -6 27 -6c14.667 0 25.334 8 32.001 24l5 -3c-18 -43.333 -41.667 -65 -71 -65c-10 0 -20.333 2.33301 -31 7l-21 10
c-9.33301 4 -16.833 7 -22.5 9s-10.5 3 -14.5 3c-12 0 -21.667 -8 -29 -24z" />
    <glyph glyph-name="Ograve" unicode="&#xd2;" horiz-adv-x="405"
d="M33 523c0 26.667 4.33203 51.3311 12.999 73.998s20.5 42.334 35.5 59.001s32.833 29.667 53.5 39s43.334 14 68.001 14s47.5 -4.66699 68.5 -14s39 -22.166 54 -38.499s26.667 -35.833 35 -58.5s12.5 -47.667 12.5 -75v-342c0 -28 -4.16699 -53.667 -12.5 -77
s-20 -43.5 -35 -60.5s-33 -30.167 -54 -39.5s-43.833 -14 -68.5 -14s-47.5 4.66699 -68.5 14s-39 22.5 -54 39.5s-26.667 37.167 -35 60.5s-12.5 49 -12.5 77v342zM153.999 81.9971c0 -30 3.83301 -51.834 11.5 -65.501s20.167 -20.5 37.5 -20.5s29.833 6.66699 37.5 20
s11.5 35.333 11.5 66v531c0 32 -3.83301 55 -11.5 69s-20.167 21 -37.5 21s-29.833 -7.16699 -37.5 -21.5s-11.5 -37.166 -11.5 -68.499v-531zM213.999 738.996l-107 114h80l33 -114h-6z" />
    <glyph glyph-name="Oacute" unicode="&#xd3;" horiz-adv-x="405"
d="M33 523c0 26.667 4.33203 51.3311 12.999 73.998s20.5 42.334 35.5 59.001s32.833 29.667 53.5 39s43.334 14 68.001 14s47.5 -4.66699 68.5 -14s39 -22.166 54 -38.499s26.667 -35.833 35 -58.5s12.5 -47.667 12.5 -75v-342c0 -28 -4.16699 -53.667 -12.5 -77
s-20 -43.5 -35 -60.5s-33 -30.167 -54 -39.5s-43.833 -14 -68.5 -14s-47.5 4.66699 -68.5 14s-39 22.5 -54 39.5s-26.667 37.167 -35 60.5s-12.5 49 -12.5 77v342zM153.999 81.9971c0 -30 3.83301 -51.834 11.5 -65.501s20.167 -20.5 37.5 -20.5s29.833 6.66699 37.5 20
s11.5 35.333 11.5 66v531c0 32 -3.83301 55 -11.5 69s-20.167 21 -37.5 21s-29.833 -7.16699 -37.5 -21.5s-11.5 -37.166 -11.5 -68.499v-531zM184.999 738.996l33 114h80l-107 -114h-6z" />
    <glyph glyph-name="Ocircumflex" unicode="&#xd4;" horiz-adv-x="405"
d="M33 523c0 26.667 4.33203 51.3311 12.999 73.998s20.5 42.334 35.5 59.001s32.833 29.667 53.5 39s43.334 14 68.001 14s47.5 -4.66699 68.5 -14s39 -22.166 54 -38.499s26.667 -35.833 35 -58.5s12.5 -47.667 12.5 -75v-342c0 -28 -4.16699 -53.667 -12.5 -77
s-20 -43.5 -35 -60.5s-33 -30.167 -54 -39.5s-43.833 -14 -68.5 -14s-47.5 4.66699 -68.5 14s-39 22.5 -54 39.5s-26.667 37.167 -35 60.5s-12.5 49 -12.5 77v342zM153.999 81.9971c0 -30 3.83301 -51.834 11.5 -65.501s20.167 -20.5 37.5 -20.5s29.833 6.66699 37.5 20
s11.5 35.333 11.5 66v531c0 32 -3.83301 55 -11.5 69s-20.167 21 -37.5 21s-29.833 -7.16699 -37.5 -21.5s-11.5 -37.166 -11.5 -68.499v-531zM200.999 852.996h6l97 -114h-6l-95 50l-94 -50h-6z" />
    <glyph glyph-name="Otilde" unicode="&#xd5;" horiz-adv-x="405"
d="M33 523c0 26.667 4.33203 51.3311 12.999 73.998s20.5 42.334 35.5 59.001s32.833 29.667 53.5 39s43.334 14 68.001 14s47.5 -4.66699 68.5 -14s39 -22.166 54 -38.499s26.667 -35.833 35 -58.5s12.5 -47.667 12.5 -75v-342c0 -28 -4.16699 -53.667 -12.5 -77
s-20 -43.5 -35 -60.5s-33 -30.167 -54 -39.5s-43.833 -14 -68.5 -14s-47.5 4.66699 -68.5 14s-39 22.5 -54 39.5s-26.667 37.167 -35 60.5s-12.5 49 -12.5 77v342zM153.999 81.9971c0 -30 3.83301 -51.834 11.5 -65.501s20.167 -20.5 37.5 -20.5s29.833 6.66699 37.5 20
s11.5 35.333 11.5 66v531c0 32 -3.83301 55 -11.5 69s-20.167 21 -37.5 21s-29.833 -7.16699 -37.5 -21.5s-11.5 -37.166 -11.5 -68.499v-531zM110.999 764.996l-5.00098 2c18 42 41.333 63 70 63c10 0 19.333 -2 28 -6l32 -14c9.33301 -4 18.333 -6 27 -6
c14.667 0 25.334 8 32.001 24l5 -3c-18 -43.333 -41.667 -65 -71 -65c-10 0 -20.333 2.33301 -31 7l-21 10c-9.33301 4 -16.833 7 -22.5 9s-10.5 3 -14.5 3c-12 0 -21.667 -8 -29 -24z" />
    <glyph glyph-name="Odieresis" unicode="&#xd6;" horiz-adv-x="405"
d="M33 523c0 26.667 4.33203 51.3311 12.999 73.998s20.5 42.334 35.5 59.001s32.833 29.667 53.5 39s43.334 14 68.001 14s47.5 -4.66699 68.5 -14s39 -22.166 54 -38.499s26.667 -35.833 35 -58.5s12.5 -47.667 12.5 -75v-342c0 -28 -4.16699 -53.667 -12.5 -77
s-20 -43.5 -35 -60.5s-33 -30.167 -54 -39.5s-43.833 -14 -68.5 -14s-47.5 4.66699 -68.5 14s-39 22.5 -54 39.5s-26.667 37.167 -35 60.5s-12.5 49 -12.5 77v342zM153.999 81.9971c0 -30 3.83301 -51.834 11.5 -65.501s20.167 -20.5 37.5 -20.5s29.833 6.66699 37.5 20
s11.5 35.333 11.5 66v531c0 32 -3.83301 55 -11.5 69s-20.167 21 -37.5 21s-29.833 -7.16699 -37.5 -21.5s-11.5 -37.166 -11.5 -68.499v-531zM105.999 790.996c0 11.333 3.5 20.5 10.5 27.5s16.167 10.5 27.5 10.5s20.666 -3.5 27.999 -10.5s11 -16.167 11 -27.5
s-3.66699 -20.5 -11 -27.5s-16.666 -10.5 -27.999 -10.5s-20.5 3.5 -27.5 10.5s-10.5 16.167 -10.5 27.5zM222.999 790.996c0 11.333 3.66699 20.5 11 27.5s16.666 10.5 27.999 10.5s20.5 -3.5 27.5 -10.5s10.5 -16.167 10.5 -27.5s-3.5 -20.5 -10.5 -27.5
s-16.167 -10.5 -27.5 -10.5s-20.666 3.5 -27.999 10.5s-11 16.167 -11 27.5z" />
    <glyph glyph-name="multiply" unicode="&#xd7;" horiz-adv-x="301"
d="M266 432l5 -5l-116 -116l116 -116l-5 -5l-116 116l-116 -116l-4 5l116 116l-116 116l4 5l116 -116z" />
    <glyph glyph-name="Oslash" unicode="&#xd8;" horiz-adv-x="405"
d="M33 523c0 26.667 4.33398 51.332 13.001 73.999s20.5 42.334 35.5 59.001s32.833 29.667 53.5 39s43.334 14 68.001 14c25.333 0 48.666 -5 69.999 -15s39.666 -23.667 54.999 -41l23 52l7 -4l-24 -55c26 -33.333 39 -74.333 39 -123v-342
c0 -28 -4.16699 -53.667 -12.5 -77s-20 -43.5 -35 -60.5s-33 -30.167 -54 -39.5s-43.833 -14 -68.5 -14c-25.333 0 -48.833 5.16699 -70.5 15.5s-40.167 24.5 -55.5 42.5l-23 -54l-7 3l25 58c-26 34 -39 76 -39 126v342zM154.001 246.998l98 227.999v138
c0 32 -3.83301 55 -11.5 69s-20.167 21 -37.5 21s-29.833 -7.16699 -37.5 -21.5s-11.5 -37.166 -11.5 -68.499v-366zM154.001 81.9971c0 -30 3.83301 -51.833 11.5 -65.5s20.167 -20.5 37.5 -20.5s29.833 6.66699 37.5 20s11.5 35.333 11.5 66v373l-98 -229v-144z" />
    <glyph glyph-name="Ugrave" unicode="&#xd9;" horiz-adv-x="368"
d="M158 699l0.000976562 -619.998c0 -24 6 -43 18 -57s28.667 -21 50 -21c30 0 54.833 12.667 74.5 38s29.5 59 29.5 101v559h6v-557c0 -46.667 -11.833 -83.834 -35.5 -111.501s-56.834 -41.5 -99.501 -41.5c-24 0 -46 4.66699 -66 14s-37.167 22.666 -51.5 39.999
s-25.5 38 -33.5 62s-12 50.667 -12 80v514h120zM211.001 739.002l-107 114h80l33 -114h-6z" />
    <glyph glyph-name="Uacute" unicode="&#xda;" horiz-adv-x="368"
d="M158 699l0.000976562 -619.998c0 -24 6 -43 18 -57s28.667 -21 50 -21c30 0 54.833 12.667 74.5 38s29.5 59 29.5 101v559h6v-557c0 -46.667 -11.833 -83.834 -35.5 -111.501s-56.834 -41.5 -99.501 -41.5c-24 0 -46 4.66699 -66 14s-37.167 22.666 -51.5 39.999
s-25.5 38 -33.5 62s-12 50.667 -12 80v514h120zM183.001 739.002l33 114h80l-107 -114h-6z" />
    <glyph glyph-name="Ucircumflex" unicode="&#xdb;" horiz-adv-x="368"
d="M158 699l0.000976562 -619.998c0 -24 6 -43 18 -57s28.667 -21 50 -21c30 0 54.833 12.667 74.5 38s29.5 59 29.5 101v559h6v-557c0 -46.667 -11.833 -83.834 -35.5 -111.501s-56.834 -41.5 -99.501 -41.5c-24 0 -46 4.66699 -66 14s-37.167 22.666 -51.5 39.999
s-25.5 38 -33.5 62s-12 50.667 -12 80v514h120zM198.001 853.002h6l97 -114h-6l-95 50l-94 -50h-6z" />
    <glyph glyph-name="Udieresis" unicode="&#xdc;" horiz-adv-x="368"
d="M158 699l0.000976562 -619.998c0 -24 6 -43 18 -57s28.667 -21 50 -21c30 0 54.833 12.667 74.5 38s29.5 59 29.5 101v559h6v-557c0 -46.667 -11.833 -83.834 -35.5 -111.501s-56.834 -41.5 -99.501 -41.5c-24 0 -46 4.66699 -66 14s-37.167 22.666 -51.5 39.999
s-25.5 38 -33.5 62s-12 50.667 -12 80v514h120zM103.001 791.002c0 11.333 3.5 20.5 10.5 27.5s16.167 10.5 27.5 10.5s20.666 -3.5 27.999 -10.5s11 -16.167 11 -27.5s-3.66699 -20.5 -11 -27.5s-16.666 -10.5 -27.999 -10.5s-20.5 3.5 -27.5 10.5s-10.5 16.167 -10.5 27.5
zM220.001 791.002c0 11.333 3.66699 20.5 11 27.5s16.666 10.5 27.999 10.5s20.5 -3.5 27.5 -10.5s10.5 -16.167 10.5 -27.5s-3.5 -20.5 -10.5 -27.5s-16.167 -10.5 -27.5 -10.5s-20.666 3.5 -27.999 10.5s-11 16.167 -11 27.5z" />
    <glyph glyph-name="Yacute" unicode="&#xdd;" horiz-adv-x="321"
d="M228 351h2l91 348h8l-95 -364v-335h-121v316l-121 383h126zM165 739l33 114h80l-107 -114h-6z" />
    <glyph glyph-name="Thorn" unicode="&#xde;" horiz-adv-x="370"
d="M158 699l-0.00292969 -168h39c22 0 42.333 -4 61 -12s34.834 -19.167 48.501 -33.5s24.167 -31.333 31.5 -51s11 -41.5 11 -65.5v-48c0 -22 -3.66699 -42.5 -11 -61.5s-17.666 -35.167 -30.999 -48.5s-29.166 -23.833 -47.499 -31.5s-38.5 -11.5 -60.5 -11.5h-41v-168
h-120v699h120zM228.997 427c0 34.667 -3.16699 59.667 -9.5 75s-16.5 23 -30.5 23h-31v-351h34c24.667 0 37 26.667 37 80v173z" />
    <glyph glyph-name="germandbls" unicode="&#xdf;" horiz-adv-x="378"
d="M158 0l-120 -0.000976562v562c0 21.333 3.83301 41 11.5 59s18.167 33.5 31.5 46.5s29.333 23.167 48 30.5s39 11 61 11s42.5 -3.66699 61.5 -11s35.5 -17.666 49.5 -30.999s24.833 -28.833 32.5 -46.5s11.5 -37.167 11.5 -58.5v-9c0 -18 -2.5 -35.167 -7.5 -51.5
s-12 -30.666 -21 -42.999s-19.5 -22.5 -31.5 -30.5s-25 -13 -39 -15l-17 -2v-2l17 -2c34 -4.66699 61.333 -23.5 82 -56.5s31 -74.5 31 -124.5v-22c0 -30.667 -3.66699 -58.5 -11 -83.5s-17.666 -46.5 -30.999 -64.5s-29.5 -31.833 -48.5 -41.5s-40.167 -14.5 -63.5 -14.5
h-22v6h15c27.333 0 41 33.667 41 101v188c0 35.333 -3.83301 62.833 -11.5 82.5s-18.834 29.5 -33.501 29.5h-11v6h9c11.333 0 19.666 8.16699 24.999 24.5s8 42.166 8 77.499v81c0 38 -2.66699 65.167 -8 81.5s-13.666 24.5 -24.999 24.5c-12 0 -20.667 -8.16699 -26 -24.5
s-8 -43.5 -8 -81.5v-596z" />
    <glyph glyph-name="agrave" unicode="&#xe0;" horiz-adv-x="328"
d="M18 143c0 21.333 2.83496 39.5 8.50195 54.5s15.167 28.167 28.5 39.5s31 21 53 29s49.333 15.333 82 22v156c0 16 -4.5 28.667 -13.5 38s-21.167 14 -36.5 14c-8 0 -16.667 -1.33301 -26 -4s-18.333 -6.33398 -27 -11.001s-16.834 -10 -24.501 -16
s-13.834 -12.333 -18.501 -19l-5 4c13.333 17.333 31 30.833 53 40.5s45.667 14.5 71 14.5c42.667 0 77.167 -12.833 103.5 -38.5s39.5 -59.5 39.5 -101.5v-365h-116v40h-2c-8.66699 -15.333 -20.5 -27.5 -35.5 -36.5s-31.167 -13.5 -48.5 -13.5
c-25.333 0 -46 9.83301 -62 29.5s-24 45.834 -24 78.501v45zM154.002 18c12 0 24 11.667 36 35v229c-13.333 -3.33301 -23.833 -7 -31.5 -11s-13.334 -9.16699 -17.001 -15.5s-6 -14 -7 -23s-1.5 -20.5 -1.5 -34.5v-140c0 -12 1.83301 -21.667 5.5 -29
s8.83398 -11 15.501 -11zM174.002 570l-107 114h80l33 -114h-6z" />
    <glyph glyph-name="aacute" unicode="&#xe1;" horiz-adv-x="328"
d="M18 143c0 21.333 2.83496 39.5 8.50195 54.5s15.167 28.167 28.5 39.5s31 21 53 29s49.333 15.333 82 22v156c0 16 -4.5 28.667 -13.5 38s-21.167 14 -36.5 14c-8 0 -16.667 -1.33301 -26 -4s-18.333 -6.33398 -27 -11.001s-16.834 -10 -24.501 -16
s-13.834 -12.333 -18.501 -19l-5 4c13.333 17.333 31 30.833 53 40.5s45.667 14.5 71 14.5c42.667 0 77.167 -12.833 103.5 -38.5s39.5 -59.5 39.5 -101.5v-365h-116v40h-2c-8.66699 -15.333 -20.5 -27.5 -35.5 -36.5s-31.167 -13.5 -48.5 -13.5
c-25.333 0 -46 9.83301 -62 29.5s-24 45.834 -24 78.501v45zM154.002 18c12 0 24 11.667 36 35v229c-13.333 -3.33301 -23.833 -7 -31.5 -11s-13.334 -9.16699 -17.001 -15.5s-6 -14 -7 -23s-1.5 -20.5 -1.5 -34.5v-140c0 -12 1.83301 -21.667 5.5 -29
s8.83398 -11 15.501 -11zM145.002 570l33 114h80l-107 -114h-6z" />
    <glyph glyph-name="acircumflex" unicode="&#xe2;" horiz-adv-x="328"
d="M18 143c0 21.333 2.83496 39.5 8.50195 54.5s15.167 28.167 28.5 39.5s31 21 53 29s49.333 15.333 82 22v156c0 16 -4.5 28.667 -13.5 38s-21.167 14 -36.5 14c-8 0 -16.667 -1.33301 -26 -4s-18.333 -6.33398 -27 -11.001s-16.834 -10 -24.501 -16
s-13.834 -12.333 -18.501 -19l-5 4c13.333 17.333 31 30.833 53 40.5s45.667 14.5 71 14.5c42.667 0 77.167 -12.833 103.5 -38.5s39.5 -59.5 39.5 -101.5v-365h-116v40h-2c-8.66699 -15.333 -20.5 -27.5 -35.5 -36.5s-31.167 -13.5 -48.5 -13.5
c-25.333 0 -46 9.83301 -62 29.5s-24 45.834 -24 78.501v45zM154.002 18c12 0 24 11.667 36 35v229c-13.333 -3.33301 -23.833 -7 -31.5 -11s-13.334 -9.16699 -17.001 -15.5s-6 -14 -7 -23s-1.5 -20.5 -1.5 -34.5v-140c0 -12 1.83301 -21.667 5.5 -29
s8.83398 -11 15.501 -11zM161.002 684h6l97 -114h-6l-95 50l-94 -50h-6z" />
    <glyph glyph-name="atilde" unicode="&#xe3;" horiz-adv-x="328"
d="M18 143c0 21.333 2.83496 39.5 8.50195 54.5s15.167 28.167 28.5 39.5s31 21 53 29s49.333 15.333 82 22v156c0 16 -4.5 28.667 -13.5 38s-21.167 14 -36.5 14c-8 0 -16.667 -1.33301 -26 -4s-18.333 -6.33398 -27 -11.001s-16.834 -10 -24.501 -16
s-13.834 -12.333 -18.501 -19l-5 4c13.333 17.333 31 30.833 53 40.5s45.667 14.5 71 14.5c42.667 0 77.167 -12.833 103.5 -38.5s39.5 -59.5 39.5 -101.5v-365h-116v40h-2c-8.66699 -15.333 -20.5 -27.5 -35.5 -36.5s-31.167 -13.5 -48.5 -13.5
c-25.333 0 -46 9.83301 -62 29.5s-24 45.834 -24 78.501v45zM154.002 18c12 0 24 11.667 36 35v229c-13.333 -3.33301 -23.833 -7 -31.5 -11s-13.334 -9.16699 -17.001 -15.5s-6 -14 -7 -23s-1.5 -20.5 -1.5 -34.5v-140c0 -12 1.83301 -21.667 5.5 -29
s8.83398 -11 15.501 -11zM71.002 596l-5.00098 2c18 42 41.333 63 70 63c10 0 19.333 -2 28 -6l32 -14c9.33301 -4 18.333 -6 27 -6c14.667 0 25.334 8 32.001 24l5 -3c-18 -43.333 -41.667 -65 -71 -65c-10 0 -20.333 2.33301 -31 7l-21 10c-9.33301 4 -16.833 7 -22.5 9
s-10.5 3 -14.5 3c-12 0 -21.667 -8 -29 -24z" />
    <glyph glyph-name="adieresis" unicode="&#xe4;" horiz-adv-x="328"
d="M18 143c0 21.333 2.83496 39.5 8.50195 54.5s15.167 28.167 28.5 39.5s31 21 53 29s49.333 15.333 82 22v156c0 16 -4.5 28.667 -13.5 38s-21.167 14 -36.5 14c-8 0 -16.667 -1.33301 -26 -4s-18.333 -6.33398 -27 -11.001s-16.834 -10 -24.501 -16
s-13.834 -12.333 -18.501 -19l-5 4c13.333 17.333 31 30.833 53 40.5s45.667 14.5 71 14.5c42.667 0 77.167 -12.833 103.5 -38.5s39.5 -59.5 39.5 -101.5v-365h-116v40h-2c-8.66699 -15.333 -20.5 -27.5 -35.5 -36.5s-31.167 -13.5 -48.5 -13.5
c-25.333 0 -46 9.83301 -62 29.5s-24 45.834 -24 78.501v45zM154.002 18c12 0 24 11.667 36 35v229c-13.333 -3.33301 -23.833 -7 -31.5 -11s-13.334 -9.16699 -17.001 -15.5s-6 -14 -7 -23s-1.5 -20.5 -1.5 -34.5v-140c0 -12 1.83301 -21.667 5.5 -29
s8.83398 -11 15.501 -11zM66.002 622c0 11.333 3.5 20.5 10.5 27.5s16.167 10.5 27.5 10.5s20.666 -3.5 27.999 -10.5s11 -16.167 11 -27.5s-3.66699 -20.5 -11 -27.5s-16.666 -10.5 -27.999 -10.5s-20.5 3.5 -27.5 10.5s-10.5 16.167 -10.5 27.5zM183.002 622
c0 11.333 3.66699 20.5 11 27.5s16.666 10.5 27.999 10.5s20.5 -3.5 27.5 -10.5s10.5 -16.167 10.5 -27.5s-3.5 -20.5 -10.5 -27.5s-16.167 -10.5 -27.5 -10.5s-20.666 3.5 -27.999 10.5s-11 16.167 -11 27.5z" />
    <glyph glyph-name="aring" unicode="&#xe5;" horiz-adv-x="328"
d="M18 143c0 21.333 2.83496 39.5 8.50195 54.5s15.167 28.167 28.5 39.5s31 21 53 29s49.333 15.333 82 22v156c0 16 -4.5 28.667 -13.5 38s-21.167 14 -36.5 14c-8 0 -16.667 -1.33301 -26 -4s-18.333 -6.33398 -27 -11.001s-16.834 -10 -24.501 -16
s-13.834 -12.333 -18.501 -19l-5 4c13.333 17.333 31 30.833 53 40.5s45.667 14.5 71 14.5c42.667 0 77.167 -12.833 103.5 -38.5s39.5 -59.5 39.5 -101.5v-365h-116v40h-2c-8.66699 -15.333 -20.5 -27.5 -35.5 -36.5s-31.167 -13.5 -48.5 -13.5
c-25.333 0 -46 9.83301 -62 29.5s-24 45.834 -24 78.501v45zM154.002 18c12 0 24 11.667 36 35v229c-13.333 -3.33301 -23.833 -7 -31.5 -11s-13.334 -9.16699 -17.001 -15.5s-6 -14 -7 -23s-1.5 -20.5 -1.5 -34.5v-140c0 -12 1.83301 -21.667 5.5 -29
s8.83398 -11 15.501 -11zM107.002 627c0 15.333 5.49902 28.5 16.499 39.5s24.167 16.5 39.5 16.5c16 0 29.5 -5.5 40.5 -16.5s16.5 -24.167 16.5 -39.5c0 -16 -5.66699 -29.5 -17 -40.5s-24.666 -16.5 -39.999 -16.5s-28.5 5.5 -39.5 16.5s-16.5 24.5 -16.5 40.5z
M113.001 627c0 -14 4.83301 -26 14.5 -36s21.5 -15 35.5 -15s25.833 5 35.5 15s14.5 22 14.5 36s-4.83301 25.833 -14.5 35.5s-21.5 14.5 -35.5 14.5s-25.833 -4.83301 -35.5 -14.5s-14.5 -21.5 -14.5 -35.5z" />
    <glyph glyph-name="ae" unicode="&#xe6;" horiz-adv-x="504"
d="M190 444c0 16.667 -4.49609 29.5 -13.4961 38.5s-21.167 13.5 -36.5 13.5c-8 0 -16.667 -1.33301 -26 -4s-18.333 -6.33398 -27 -11.001s-16.834 -10 -24.501 -16s-13.834 -12.333 -18.501 -19l-5 4c13.333 17.333 31.166 30.833 53.499 40.5s46.166 14.5 71.499 14.5
c34.667 0 64 -9 88 -27h2c24 18 51.333 27 82 27c20.667 0 40 -4 58 -12s33.667 -18.833 47 -32.5s23.833 -29.667 31.5 -48s11.5 -37.833 11.5 -58.5v-105h-179v-186c0 -20 5.16699 -35.667 15.5 -47s24.5 -17 42.5 -17c11.333 0 23 2.33301 35 7s23.167 11 33.5 19
s19.833 17.333 28.5 28s15.334 22 20.001 34l5 -2c-13.333 -30 -32.5 -53.333 -57.5 -70s-53.833 -25 -86.5 -25c-30.667 0 -57.834 7 -81.501 21s-41.5 33.667 -53.5 59h-2c-21.333 -53.333 -54 -80 -98 -80c-26.667 0 -48 9.83301 -64 29.5s-24 45.834 -24 78.501v46
c0 20.667 2.83301 38.667 8.5 54s15.167 28.5 28.5 39.5s31 20.5 53 28.5s49.333 15.333 82 22v156zM305.004 452v-197h64v197c0 13.333 -3.16699 24.5 -9.5 33.5s-13.833 13.5 -22.5 13.5c-9.33301 0 -17 -4.5 -23 -13.5s-9 -20.167 -9 -33.5zM153.004 19
c7.33301 0 15.334 5.49805 24.001 16.498s16.667 25.833 24 44.5c-7.33301 18.667 -11 37.334 -11 56.001v146c-13.333 -3.33301 -23.833 -7 -31.5 -11s-13.334 -9.16699 -17.001 -15.5s-6 -14 -7 -23s-1.5 -20.5 -1.5 -34.5v-140c0 -11.333 1.83301 -20.666 5.5 -27.999
s8.5 -11 14.5 -11z" />
    <glyph glyph-name="ccedilla" unicode="&#xe7;" horiz-adv-x="298"
d="M28 350c0 22 3.67188 42.498 11.0049 61.498s17.666 35.5 30.999 49.5s29 24.833 47 32.5s37.333 11.5 58 11.5c23.333 0 45.5 -4.66699 66.5 -14s38.5 -22.666 52.5 -39.999l-4 -4c-11.333 14.667 -26 26.5 -44 35.5s-35 13.5 -51 13.5s-28.667 -4.66699 -38 -14
s-14 -22.666 -14 -39.999v-378c0 -20 5.33301 -35.833 16 -47.5s24.667 -17.5 42 -17.5c10 0 20.667 2.16699 32 6.5s22.166 10 32.499 17s19.666 15.167 27.999 24.5s14.833 19.333 19.5 30l5 -2c-12.667 -26.667 -31.334 -47.5 -56.001 -62.5s-52.334 -22.5 -83.001 -22.5
c-21.333 0 -41.166 3.83301 -59.499 11.5s-34.333 18.167 -48 31.5s-24.334 29 -32.001 47s-11.5 37.667 -11.5 59v211zM123.005 -98.002c6 -8 14.1689 -14.499 24.502 -19.499s20.5 -7.5 30.5 -7.5c22.667 0 34 11 34 33c0 23.333 -17.667 38 -53 44l21 45h7l-13 -30
c27.333 -0.666992 49.666 -6.33398 66.999 -17.001s26 -24 26 -40c0 -14 -6.33301 -25.667 -19 -35s-28.334 -14 -47.001 -14c-16 0 -31.333 3.33301 -46 10s-27 15.667 -37 27z" />
    <glyph glyph-name="egrave" unicode="&#xe8;" horiz-adv-x="342"
d="M28 358c0 20 4.00098 38.832 12.001 56.499s18.667 33.167 32 46.5s28.833 24 46.5 32s36.5 12 56.5 12c19.333 0 38 -4 56 -12s33.833 -18.667 47.5 -32s24.5 -28.833 32.5 -46.5s12 -36.167 12 -55.5v-110h-180v-186c0 -20 5.16699 -35.667 15.5 -47
s24.833 -17 43.5 -17c11.333 0 22.833 2.33301 34.5 7s22.834 11 33.501 19s20.167 17.333 28.5 28s14.833 22 19.5 34l5 -2c-12.667 -30 -31.5 -53.333 -56.5 -70s-53.833 -25 -86.5 -25c-21.333 0 -41.333 3.83301 -60 11.5s-34.834 18 -48.501 31
s-24.334 28.333 -32.001 46s-11.5 36.834 -11.5 57.501v222zM208.001 254.999v198c0 13.333 -3 24.333 -9 33s-13.667 13 -23 13c-10 0 -18 -4.33301 -24 -13s-9 -19.667 -9 -33v-198h65zM185.001 569.999l-107 114h80l33 -114h-6z" />
    <glyph glyph-name="eacute" unicode="&#xe9;" horiz-adv-x="342"
d="M28 358c0 20 4.00098 38.832 12.001 56.499s18.667 33.167 32 46.5s28.833 24 46.5 32s36.5 12 56.5 12c19.333 0 38 -4 56 -12s33.833 -18.667 47.5 -32s24.5 -28.833 32.5 -46.5s12 -36.167 12 -55.5v-110h-180v-186c0 -20 5.16699 -35.667 15.5 -47
s24.833 -17 43.5 -17c11.333 0 22.833 2.33301 34.5 7s22.834 11 33.501 19s20.167 17.333 28.5 28s14.833 22 19.5 34l5 -2c-12.667 -30 -31.5 -53.333 -56.5 -70s-53.833 -25 -86.5 -25c-21.333 0 -41.333 3.83301 -60 11.5s-34.834 18 -48.501 31
s-24.334 28.333 -32.001 46s-11.5 36.834 -11.5 57.501v222zM208.001 254.999v198c0 13.333 -3 24.333 -9 33s-13.667 13 -23 13c-10 0 -18 -4.33301 -24 -13s-9 -19.667 -9 -33v-198h65zM156.001 569.999l33 114h80l-107 -114h-6z" />
    <glyph glyph-name="ecircumflex" unicode="&#xea;" horiz-adv-x="342"
d="M28 358c0 20 4.00098 38.832 12.001 56.499s18.667 33.167 32 46.5s28.833 24 46.5 32s36.5 12 56.5 12c19.333 0 38 -4 56 -12s33.833 -18.667 47.5 -32s24.5 -28.833 32.5 -46.5s12 -36.167 12 -55.5v-110h-180v-186c0 -20 5.16699 -35.667 15.5 -47
s24.833 -17 43.5 -17c11.333 0 22.833 2.33301 34.5 7s22.834 11 33.501 19s20.167 17.333 28.5 28s14.833 22 19.5 34l5 -2c-12.667 -30 -31.5 -53.333 -56.5 -70s-53.833 -25 -86.5 -25c-21.333 0 -41.333 3.83301 -60 11.5s-34.834 18 -48.501 31
s-24.334 28.333 -32.001 46s-11.5 36.834 -11.5 57.501v222zM208.001 254.999v198c0 13.333 -3 24.333 -9 33s-13.667 13 -23 13c-10 0 -18 -4.33301 -24 -13s-9 -19.667 -9 -33v-198h65zM172.001 683.999h6l97 -114h-6l-95 50l-94 -50h-6z" />
    <glyph glyph-name="edieresis" unicode="&#xeb;" horiz-adv-x="342"
d="M28 358c0 20 4.00098 38.832 12.001 56.499s18.667 33.167 32 46.5s28.833 24 46.5 32s36.5 12 56.5 12c19.333 0 38 -4 56 -12s33.833 -18.667 47.5 -32s24.5 -28.833 32.5 -46.5s12 -36.167 12 -55.5v-110h-180v-186c0 -20 5.16699 -35.667 15.5 -47
s24.833 -17 43.5 -17c11.333 0 22.833 2.33301 34.5 7s22.834 11 33.501 19s20.167 17.333 28.5 28s14.833 22 19.5 34l5 -2c-12.667 -30 -31.5 -53.333 -56.5 -70s-53.833 -25 -86.5 -25c-21.333 0 -41.333 3.83301 -60 11.5s-34.834 18 -48.501 31
s-24.334 28.333 -32.001 46s-11.5 36.834 -11.5 57.501v222zM208.001 254.999v198c0 13.333 -3 24.333 -9 33s-13.667 13 -23 13c-10 0 -18 -4.33301 -24 -13s-9 -19.667 -9 -33v-198h65zM77.001 621.999c0 11.333 3.5 20.5 10.5 27.5s16.167 10.5 27.5 10.5
s20.666 -3.5 27.999 -10.5s11 -16.167 11 -27.5s-3.66699 -20.5 -11 -27.5s-16.666 -10.5 -27.999 -10.5s-20.5 3.5 -27.5 10.5s-10.5 16.167 -10.5 27.5zM194.001 621.999c0 11.333 3.66699 20.5 11 27.5s16.666 10.5 27.999 10.5s20.5 -3.5 27.5 -10.5
s10.5 -16.167 10.5 -27.5s-3.5 -20.5 -10.5 -27.5s-16.167 -10.5 -27.5 -10.5s-20.666 3.5 -27.999 10.5s-11 16.167 -11 27.5z" />
    <glyph glyph-name="igrave" unicode="&#xec;" horiz-adv-x="194"
d="M153 495v-495h-111v495h111zM108 570l-107 114h80l33 -114h-6z" />
    <glyph glyph-name="iacute" unicode="&#xed;" horiz-adv-x="194"
d="M153 495v-495h-111v495h111zM80 570l33 114h80l-107 -114h-6z" />
    <glyph glyph-name="icircumflex" unicode="&#xee;" horiz-adv-x="194"
d="M153 495v-495h-111v495h111zM95 684h6l97 -114h-6l-95 50l-94 -50h-6z" />
    <glyph glyph-name="idieresis" unicode="&#xef;" horiz-adv-x="194"
d="M153 495v-495h-111v495h111zM0 622c0 11.333 3.5 20.5 10.5 27.5s16.167 10.5 27.5 10.5s20.666 -3.5 27.999 -10.5s11 -16.167 11 -27.5s-3.66699 -20.5 -11 -27.5s-16.666 -10.5 -27.999 -10.5s-20.5 3.5 -27.5 10.5s-10.5 16.167 -10.5 27.5zM117 622
c0 11.333 3.66699 20.5 11 27.5s16.666 10.5 27.999 10.5s20.5 -3.5 27.5 -10.5s10.5 -16.167 10.5 -27.5s-3.5 -20.5 -10.5 -27.5s-16.167 -10.5 -27.5 -10.5s-20.666 3.5 -27.999 10.5s-11 16.167 -11 27.5z" />
    <glyph glyph-name="eth" unicode="&#xf0;" horiz-adv-x="350"
d="M127 699c30 -7.33301 56.4971 -18.166 79.4971 -32.499s42.5 -31.833 58.5 -52.5l62 22l2 -6l-60 -21c15.333 -20.667 27 -43.334 35 -68.001s12 -51.667 12 -81v-328c0 -19.333 -3.66699 -37.5 -11 -54.5s-17.5 -32 -30.5 -45s-28.167 -23.333 -45.5 -31
s-35.666 -11.5 -54.999 -11.5s-37.833 3.83301 -55.5 11.5s-33.167 18 -46.5 31s-24 28.167 -32 45.5s-12 35.333 -12 54v241c0 17.333 3.16699 34 9.5 50s15 30 26 42s23.5 21.667 37.5 29s29 11 45 11c14.667 0 26.167 -4 34.5 -12s15.833 -22 22.5 -42h2v30
c0 21.333 -0.5 40.333 -1.5 57s-2.16699 32 -3.5 46l-60 -22l-2 6l61 22c-5.33301 32 -13.666 55.5 -24.999 70.5s-27.666 25.833 -48.999 32.5zM163.997 494c-6.66699 0 -11.833 -3.49902 -15.5 -10.499s-5.5 -16.167 -5.5 -27.5v-415c0 -14 2.83301 -25 8.5 -33
s13.167 -12 22.5 -12s16.833 4.16699 22.5 12.5s8.5 19.166 8.5 32.499v376c0 9.33301 -1.16699 18.5 -3.5 27.5s-5.5 17.167 -9.5 24.5s-8.5 13.333 -13.5 18s-9.83301 7 -14.5 7z" />
    <glyph glyph-name="ntilde" unicode="&#xf1;" horiz-adv-x="353"
d="M146 433c9.33301 25.333 20.332 43.668 32.999 55.001s28.334 17 47.001 17c14 0 27 -2.83301 39 -8.5s22.5 -13.334 31.5 -23.001s16.167 -21 21.5 -34s8 -26.833 8 -41.5v-398h-118v450c0 25.333 -4.66699 38 -14 38c-4.66699 0 -10 -3 -16 -9s-11.5 -13.5 -16.5 -22.5
s-9.16699 -18.5 -12.5 -28.5s-5 -19.333 -5 -28v-400h-111v495h111v-62h2zM95.999 596.002l-5.00098 2c18 42 41.333 63 70 63c10 0 19.333 -2 28 -6l32 -14c9.33301 -4 18.333 -6 27 -6c14.667 0 25.334 8 32.001 24l5 -3c-18 -43.333 -41.667 -65 -71 -65
c-10 0 -20.333 2.33301 -31 7l-21 10c-9.33301 4 -16.833 7 -22.5 9s-10.5 3 -14.5 3c-12 0 -21.667 -8 -29 -24z" />
    <glyph glyph-name="ograve" unicode="&#xf2;" horiz-adv-x="351"
d="M174 505c20 0 39 -4 57 -12s33.833 -18.667 47.5 -32s24.5 -28.833 32.5 -46.5s12 -36.167 12 -55.5v-227c0 -18.667 -3.83301 -36.667 -11.5 -54s-18.167 -32.5 -31.5 -45.5s-28.833 -23.333 -46.5 -31s-36.5 -11.5 -56.5 -11.5s-39 3.83301 -57 11.5
s-33.833 18 -47.5 31s-24.5 28.167 -32.5 45.5s-12 35.333 -12 54v227c0 19.333 4 37.833 12 55.5s18.667 33.167 32 46.5s28.833 24 46.5 32s36.167 12 55.5 12zM176 499c-9.33301 0 -17.166 -4.33301 -23.499 -13s-9.5 -19.667 -9.5 -33v-413
c0 -13.333 3.16699 -24 9.5 -32s14.166 -12 23.499 -12c10 0 17.833 4 23.5 12s8.5 18.667 8.5 32v413c0 13.333 -3 24.333 -9 33s-13.667 13 -23 13zM184 570l-107 114h80l33 -114h-6z" />
    <glyph glyph-name="oacute" unicode="&#xf3;" horiz-adv-x="351"
d="M174 505c20 0 39 -4 57 -12s33.833 -18.667 47.5 -32s24.5 -28.833 32.5 -46.5s12 -36.167 12 -55.5v-227c0 -18.667 -3.83301 -36.667 -11.5 -54s-18.167 -32.5 -31.5 -45.5s-28.833 -23.333 -46.5 -31s-36.5 -11.5 -56.5 -11.5s-39 3.83301 -57 11.5
s-33.833 18 -47.5 31s-24.5 28.167 -32.5 45.5s-12 35.333 -12 54v227c0 19.333 4 37.833 12 55.5s18.667 33.167 32 46.5s28.833 24 46.5 32s36.167 12 55.5 12zM176 499c-9.33301 0 -17.166 -4.33301 -23.499 -13s-9.5 -19.667 -9.5 -33v-413
c0 -13.333 3.16699 -24 9.5 -32s14.166 -12 23.499 -12c10 0 17.833 4 23.5 12s8.5 18.667 8.5 32v413c0 13.333 -3 24.333 -9 33s-13.667 13 -23 13zM156 570l33 114h80l-107 -114h-6z" />
    <glyph glyph-name="ocircumflex" unicode="&#xf4;" horiz-adv-x="351"
d="M174 505c20 0 39 -4 57 -12s33.833 -18.667 47.5 -32s24.5 -28.833 32.5 -46.5s12 -36.167 12 -55.5v-227c0 -18.667 -3.83301 -36.667 -11.5 -54s-18.167 -32.5 -31.5 -45.5s-28.833 -23.333 -46.5 -31s-36.5 -11.5 -56.5 -11.5s-39 3.83301 -57 11.5
s-33.833 18 -47.5 31s-24.5 28.167 -32.5 45.5s-12 35.333 -12 54v227c0 19.333 4 37.833 12 55.5s18.667 33.167 32 46.5s28.833 24 46.5 32s36.167 12 55.5 12zM176 499c-9.33301 0 -17.166 -4.33301 -23.499 -13s-9.5 -19.667 -9.5 -33v-413
c0 -13.333 3.16699 -24 9.5 -32s14.166 -12 23.499 -12c10 0 17.833 4 23.5 12s8.5 18.667 8.5 32v413c0 13.333 -3 24.333 -9 33s-13.667 13 -23 13zM171 684h6l97 -114h-6l-95 50l-94 -50h-6z" />
    <glyph glyph-name="otilde" unicode="&#xf5;" horiz-adv-x="351"
d="M174 505c20 0 39 -4 57 -12s33.833 -18.667 47.5 -32s24.5 -28.833 32.5 -46.5s12 -36.167 12 -55.5v-227c0 -18.667 -3.83301 -36.667 -11.5 -54s-18.167 -32.5 -31.5 -45.5s-28.833 -23.333 -46.5 -31s-36.5 -11.5 -56.5 -11.5s-39 3.83301 -57 11.5
s-33.833 18 -47.5 31s-24.5 28.167 -32.5 45.5s-12 35.333 -12 54v227c0 19.333 4 37.833 12 55.5s18.667 33.167 32 46.5s28.833 24 46.5 32s36.167 12 55.5 12zM176 499c-9.33301 0 -17.166 -4.33301 -23.499 -13s-9.5 -19.667 -9.5 -33v-413
c0 -13.333 3.16699 -24 9.5 -32s14.166 -12 23.499 -12c10 0 17.833 4 23.5 12s8.5 18.667 8.5 32v413c0 13.333 -3 24.333 -9 33s-13.667 13 -23 13zM82 596l-5.00098 2c18 42 41.333 63 70 63c10 0 19.333 -2 28 -6l32 -14c9.33301 -4 18.333 -6 27 -6
c14.667 0 25.334 8 32.001 24l5 -3c-18 -43.333 -41.667 -65 -71 -65c-10 0 -20.333 2.33301 -31 7l-21 10c-9.33301 4 -16.833 7 -22.5 9s-10.5 3 -14.5 3c-12 0 -21.667 -8 -29 -24z" />
    <glyph glyph-name="odieresis" unicode="&#xf6;" horiz-adv-x="351"
d="M174 505c20 0 39 -4 57 -12s33.833 -18.667 47.5 -32s24.5 -28.833 32.5 -46.5s12 -36.167 12 -55.5v-227c0 -18.667 -3.83301 -36.667 -11.5 -54s-18.167 -32.5 -31.5 -45.5s-28.833 -23.333 -46.5 -31s-36.5 -11.5 -56.5 -11.5s-39 3.83301 -57 11.5
s-33.833 18 -47.5 31s-24.5 28.167 -32.5 45.5s-12 35.333 -12 54v227c0 19.333 4 37.833 12 55.5s18.667 33.167 32 46.5s28.833 24 46.5 32s36.167 12 55.5 12zM176 499c-9.33301 0 -17.166 -4.33301 -23.499 -13s-9.5 -19.667 -9.5 -33v-413
c0 -13.333 3.16699 -24 9.5 -32s14.166 -12 23.499 -12c10 0 17.833 4 23.5 12s8.5 18.667 8.5 32v413c0 13.333 -3 24.333 -9 33s-13.667 13 -23 13zM76 622c0 11.333 3.5 20.5 10.5 27.5s16.167 10.5 27.5 10.5s20.666 -3.5 27.999 -10.5s11 -16.167 11 -27.5
s-3.66699 -20.5 -11 -27.5s-16.666 -10.5 -27.999 -10.5s-20.5 3.5 -27.5 10.5s-10.5 16.167 -10.5 27.5zM193 622c0 11.333 3.66699 20.5 11 27.5s16.666 10.5 27.999 10.5s20.5 -3.5 27.5 -10.5s10.5 -16.167 10.5 -27.5s-3.5 -20.5 -10.5 -27.5
s-16.167 -10.5 -27.5 -10.5s-20.666 3.5 -27.999 10.5s-11 16.167 -11 27.5z" />
    <glyph glyph-name="divide" unicode="&#xf7;" horiz-adv-x="419"
d="M147 442c0 18 5.83301 32.833 17.5 44.5s26.5 17.5 44.5 17.5s33 -6 45 -18s18 -26.667 18 -44c0 -18 -6 -33 -18 -45s-27 -18 -45 -18s-32.833 6 -44.5 18s-17.5 27 -17.5 45zM390 309h-360v6h360v-6zM147 183c0 18 5.83301 32.832 17.5 44.499s26.5 17.5 44.5 17.5
s33 -6 45 -18s18 -26.667 18 -44c0 -18 -6 -33 -18 -45s-27 -18 -45 -18s-32.833 5.83301 -44.5 17.5s-17.5 26.834 -17.5 45.501z" />
    <glyph glyph-name="oslash" unicode="&#xf8;" horiz-adv-x="351"
d="M60 46c-21.333 25.333 -31.999 53.999 -31.999 85.999v227c0 19.333 4 37.833 12 55.5s18.667 33.167 32 46.5s28.833 24 46.5 32s36.167 12 55.5 12c21.333 0 41.666 -4.66699 60.999 -14s36 -21.666 50 -36.999l27 49l7 -3l-29 -52c22 -26 33 -55.667 33 -89v-227
c0 -18.667 -3.83301 -36.667 -11.5 -54s-18.167 -32.5 -31.5 -45.5s-28.833 -23.333 -46.5 -31s-36.5 -11.5 -56.5 -11.5c-21.333 0 -41.833 4.5 -61.5 13.5s-36.167 21.167 -49.5 36.5l-28 -50l-6 4zM176.001 498.999c-9.33301 0 -17.167 -4.33301 -23.5 -13
s-9.5 -19.667 -9.5 -33v-257l65 118v139c0 13.333 -3 24.333 -9 33s-13.667 13 -23 13zM143 39.999c0 -13.333 3.16797 -24 9.50098 -32s14.166 -12 23.499 -12c10 0 17.833 4 23.5 12s8.5 18.667 8.5 32v258l-65 -118v-140z" />
    <glyph glyph-name="ugrave" unicode="&#xf9;" horiz-adv-x="348"
d="M207 62c-9.33301 -25.333 -20.168 -43.667 -32.501 -55s-27.833 -17 -46.5 -17c-14 0 -27 2.83301 -39 8.5s-22.5 13.5 -31.5 23.5s-16.167 21.5 -21.5 34.5s-8 26.833 -8 41.5v397h118v-449c0 -26 4.66699 -39 14 -39c5.33301 0 10.833 3 16.5 9
s10.834 13.5 15.501 22.5s8.66699 18.667 12 29s5 19.833 5 28.5v399h111v-495h-111v62h-2zM185.998 569.999l-107 114h80l33 -114h-6z" />
    <glyph glyph-name="uacute" unicode="&#xfa;" horiz-adv-x="348"
d="M207 62c-9.33301 -25.333 -20.168 -43.667 -32.501 -55s-27.833 -17 -46.5 -17c-14 0 -27 2.83301 -39 8.5s-22.5 13.5 -31.5 23.5s-16.167 21.5 -21.5 34.5s-8 26.833 -8 41.5v397h118v-449c0 -26 4.66699 -39 14 -39c5.33301 0 10.833 3 16.5 9
s10.834 13.5 15.501 22.5s8.66699 18.667 12 29s5 19.833 5 28.5v399h111v-495h-111v62h-2zM156.998 569.999l33 114h80l-107 -114h-6z" />
    <glyph glyph-name="ucircumflex" unicode="&#xfb;" horiz-adv-x="348"
d="M207 62c-9.33301 -25.333 -20.168 -43.667 -32.501 -55s-27.833 -17 -46.5 -17c-14 0 -27 2.83301 -39 8.5s-22.5 13.5 -31.5 23.5s-16.167 21.5 -21.5 34.5s-8 26.833 -8 41.5v397h118v-449c0 -26 4.66699 -39 14 -39c5.33301 0 10.833 3 16.5 9
s10.834 13.5 15.501 22.5s8.66699 18.667 12 29s5 19.833 5 28.5v399h111v-495h-111v62h-2zM172.998 683.999h6l97 -114h-6l-95 50l-94 -50h-6z" />
    <glyph glyph-name="udieresis" unicode="&#xfc;" horiz-adv-x="348"
d="M207 62c-9.33301 -25.333 -20.168 -43.667 -32.501 -55s-27.833 -17 -46.5 -17c-14 0 -27 2.83301 -39 8.5s-22.5 13.5 -31.5 23.5s-16.167 21.5 -21.5 34.5s-8 26.833 -8 41.5v397h118v-449c0 -26 4.66699 -39 14 -39c5.33301 0 10.833 3 16.5 9
s10.834 13.5 15.501 22.5s8.66699 18.667 12 29s5 19.833 5 28.5v399h111v-495h-111v62h-2zM77.998 621.999c0 11.333 3.5 20.5 10.5 27.5s16.167 10.5 27.5 10.5s20.666 -3.5 27.999 -10.5s11 -16.167 11 -27.5s-3.66699 -20.5 -11 -27.5s-16.666 -10.5 -27.999 -10.5
s-20.5 3.5 -27.5 10.5s-10.5 16.167 -10.5 27.5zM194.998 621.999c0 11.333 3.66699 20.5 11 27.5s16.666 10.5 27.999 10.5s20.5 -3.5 27.5 -10.5s10.5 -16.167 10.5 -27.5s-3.5 -20.5 -10.5 -27.5s-16.167 -10.5 -27.5 -10.5s-20.666 3.5 -27.999 10.5
s-11 16.167 -11 27.5z" />
    <glyph glyph-name="yacute" unicode="&#xfd;" horiz-adv-x="309"
d="M130 494l80 -295h2l76 295h8l-170 -669h-9l45 175h-16l-133 494h117zM157 570l33 114h80l-107 -114h-6z" />
    <glyph glyph-name="thorn" unicode="&#xfe;" horiz-adv-x="352"
d="M36 699l111.001 0.000976562v-247h2c6.66699 19.333 14.5 33 23.5 41s21.167 12 36.5 12s30 -3.33301 44 -10s26.167 -15.834 36.5 -27.501s18.666 -25 24.999 -40s9.5 -30.833 9.5 -47.5v-258c0 -17.333 -3.16699 -34 -9.5 -50s-15 -30 -26 -42s-23.5 -21.667 -37.5 -29
s-29 -11 -45 -11c-14.667 0 -26.167 4 -34.5 12s-15.833 22 -22.5 42h-2v-212h-111v867zM147.001 78.001c0 -8.66699 1.16699 -17.667 3.5 -27s5.5 -17.5 9.5 -24.5s8.5 -12.833 13.5 -17.5s9.83301 -7 14.5 -7c14 0 21 12.333 21 37v415c0 11.333 -2 20.5 -6 27.5
s-9 10.5 -15 10.5c-4.66699 0 -9.5 -2.16699 -14.5 -6.5s-9.5 -10 -13.5 -17s-7.16699 -14.833 -9.5 -23.5s-3.5 -17 -3.5 -25v-342z" />
    <glyph glyph-name="ydieresis" unicode="&#xff;" horiz-adv-x="309"
d="M130 494l80 -295h2l76 295h8l-170 -669h-9l45 175h-16l-133 494h117zM77 622c0 11.333 3.5 20.5 10.5 27.5s16.167 10.5 27.5 10.5s20.666 -3.5 27.999 -10.5s11 -16.167 11 -27.5s-3.66699 -20.5 -11 -27.5s-16.666 -10.5 -27.999 -10.5s-20.5 3.5 -27.5 10.5
s-10.5 16.167 -10.5 27.5zM194 622c0 11.333 3.66699 20.5 11 27.5s16.666 10.5 27.999 10.5s20.5 -3.5 27.5 -10.5s10.5 -16.167 10.5 -27.5s-3.5 -20.5 -10.5 -27.5s-16.167 -10.5 -27.5 -10.5s-20.666 3.5 -27.999 10.5s-11 16.167 -11 27.5z" />
    <glyph glyph-name="Amacron" unicode="&#x100;" horiz-adv-x="305"
d="M121 699h30l162 -699h-124l-51 218h-97l-41 -218h-8zM42 224h94l-51 220h-2zM219 790h-167v6h167v-6z" />
    <glyph glyph-name="amacron" unicode="&#x101;" horiz-adv-x="328"
d="M18 143c0 21.333 2.83496 39.5 8.50195 54.5s15.167 28.167 28.5 39.5s31 21 53 29s49.333 15.333 82 22v156c0 16 -4.5 28.667 -13.5 38s-21.167 14 -36.5 14c-8 0 -16.667 -1.33301 -26 -4s-18.333 -6.33398 -27 -11.001s-16.834 -10 -24.501 -16
s-13.834 -12.333 -18.501 -19l-5 4c13.333 17.333 31 30.833 53 40.5s45.667 14.5 71 14.5c42.667 0 77.167 -12.833 103.5 -38.5s39.5 -59.5 39.5 -101.5v-365h-116v40h-2c-8.66699 -15.333 -20.5 -27.5 -35.5 -36.5s-31.167 -13.5 -48.5 -13.5
c-25.333 0 -46 9.83301 -62 29.5s-24 45.834 -24 78.501v45zM154.002 18c12 0 24 11.667 36 35v229c-13.333 -3.33301 -23.833 -7 -31.5 -11s-13.334 -9.16699 -17.001 -15.5s-6 -14 -7 -23s-1.5 -20.5 -1.5 -34.5v-140c0 -12 1.83301 -21.667 5.5 -29
s8.83398 -11 15.501 -11zM246.002 621h-167v6h167v-6z" />
    <glyph glyph-name="Abreve" unicode="&#x102;" horiz-adv-x="305"
d="M121 699h30l162 -699h-124l-51 218h-97l-41 -218h-8zM42 224h94l-51 220h-2zM215 842l6.00195 -0.000976562c0 -30 -8 -54.333 -24 -73s-36.333 -28 -61 -28s-44.834 9.33301 -60.501 28s-23.5 43 -23.5 73h6c0 -14 7.66699 -26 23 -36s34 -15 56 -15
c21.333 0 39.666 4.83301 54.999 14.5s23 21.834 23 36.501z" />
    <glyph glyph-name="abreve" unicode="&#x103;" horiz-adv-x="328"
d="M18 143c0 21.333 2.83496 39.5 8.50195 54.5s15.167 28.167 28.5 39.5s31 21 53 29s49.333 15.333 82 22v156c0 16 -4.5 28.667 -13.5 38s-21.167 14 -36.5 14c-8 0 -16.667 -1.33301 -26 -4s-18.333 -6.33398 -27 -11.001s-16.834 -10 -24.501 -16
s-13.834 -12.333 -18.501 -19l-5 4c13.333 17.333 31 30.833 53 40.5s45.667 14.5 71 14.5c42.667 0 77.167 -12.833 103.5 -38.5s39.5 -59.5 39.5 -101.5v-365h-116v40h-2c-8.66699 -15.333 -20.5 -27.5 -35.5 -36.5s-31.167 -13.5 -48.5 -13.5
c-25.333 0 -46 9.83301 -62 29.5s-24 45.834 -24 78.501v45zM154.002 18c12 0 24 11.667 36 35v229c-13.333 -3.33301 -23.833 -7 -31.5 -11s-13.334 -9.16699 -17.001 -15.5s-6 -14 -7 -23s-1.5 -20.5 -1.5 -34.5v-140c0 -12 1.83301 -21.667 5.5 -29
s8.83398 -11 15.501 -11zM242.002 673l6.00195 -0.000976562c0 -30 -8 -54.333 -24 -73s-36.333 -28 -61 -28s-44.834 9.33301 -60.501 28s-23.5 43 -23.5 73h6c0 -14 7.66699 -26 23 -36s34 -15 56 -15c21.333 0 39.666 4.83301 54.999 14.5s23 21.834 23 36.501z" />
    <glyph glyph-name="Aogonek" unicode="&#x104;" horiz-adv-x="305"
d="M121 699h30l162 -699h-124l-51 218h-97l-41 -218h-8zM42 224h94l-51 220h-2zM245 -80c-7.33301 -18.667 -17.668 -33.334 -31.001 -44.001s-27.666 -16 -42.999 -16c-16 0 -29.667 5 -41 15s-17 22.333 -17 37s6.83301 29.834 20.5 45.501s33.167 30.5 58.5 44.5h11
c-17.333 -9.33301 -29.333 -19.833 -36 -31.5s-10 -23.167 -10 -34.5c0 -14 4 -26 12 -36s17.667 -15 29 -15c7.33301 0 14.833 3 22.5 9s14.167 15.667 19.5 29z" />
    <glyph glyph-name="aogonek" unicode="&#x105;" horiz-adv-x="328"
d="M18 143c0 21.333 2.83496 39.5 8.50195 54.5s15.167 28.167 28.5 39.5s31 21 53 29s49.333 15.333 82 22v156c0 16 -4.5 28.667 -13.5 38s-21.167 14 -36.5 14c-8 0 -16.667 -1.33301 -26 -4s-18.333 -6.33398 -27 -11.001s-16.834 -10 -24.501 -16
s-13.834 -12.333 -18.501 -19l-5 4c13.333 17.333 31 30.833 53 40.5s45.667 14.5 71 14.5c42.667 0 77.167 -12.833 103.5 -38.5s39.5 -59.5 39.5 -101.5v-365h-116v40h-2c-8.66699 -15.333 -20.5 -27.5 -35.5 -36.5s-31.167 -13.5 -48.5 -13.5
c-25.333 0 -46 9.83301 -62 29.5s-24 45.834 -24 78.501v45zM154.002 18c12 0 24 11.667 36 35v229c-13.333 -3.33301 -23.833 -7 -31.5 -11s-13.334 -9.16699 -17.001 -15.5s-6 -14 -7 -23s-1.5 -20.5 -1.5 -34.5v-140c0 -12 1.83301 -21.667 5.5 -29
s8.83398 -11 15.501 -11zM246.002 -80c-7.33301 -18.667 -17.668 -33.334 -31.001 -44.001s-27.666 -16 -42.999 -16c-16 0 -29.667 5 -41 15s-17 22.333 -17 37s6.83301 29.834 20.5 45.501s33.167 30.5 58.5 44.5h11c-17.333 -9.33301 -29.333 -19.833 -36 -31.5
s-10 -23.167 -10 -34.5c0 -14 4 -26 12 -36s17.667 -15 29 -15c7.33301 0 14.833 3 22.5 9s14.167 15.667 19.5 29z" />
    <glyph glyph-name="Cacute" unicode="&#x106;" horiz-adv-x="359"
d="M33 522c0 27.333 4.16699 52.5 12.5 75.5s20 42.667 35 59s33 29.166 54 38.499s43.833 14 68.5 14c53.333 0 97.333 -21 132 -63l-5 -3c-15.333 18 -32.666 32 -51.999 42s-39 15 -59 15c-23.333 0 -40 -7.16699 -50 -21.5s-15 -37.833 -15 -70.5v-518
c0 -34 4.33301 -57.667 13 -71s24.667 -20 48 -20c15.333 0 30.166 2.5 44.499 7.5s27.666 11.833 39.999 20.5s23 18.834 32 30.501s15.5 24.167 19.5 37.5l5 -2c-11.333 -32 -30.666 -57.167 -57.999 -75.5s-59 -27.5 -95 -27.5c-25.333 0 -48.333 4.66699 -69 14
s-38.5 22.5 -53.5 39.5s-26.667 37.333 -35 61s-12.5 49.5 -12.5 77.5v340zM182 739l33 114h80l-107 -114h-6z" />
    <glyph glyph-name="cacute" unicode="&#x107;" horiz-adv-x="298"
d="M28 350c0 22 3.67188 42.498 11.0049 61.498s17.666 35.5 30.999 49.5s29 24.833 47 32.5s37.333 11.5 58 11.5c23.333 0 45.5 -4.66699 66.5 -14s38.5 -22.666 52.5 -39.999l-4 -4c-11.333 14.667 -26 26.5 -44 35.5s-35 13.5 -51 13.5s-28.667 -4.66699 -38 -14
s-14 -22.666 -14 -39.999v-378c0 -20 5.33301 -35.833 16 -47.5s24.667 -17.5 42 -17.5c10 0 20.667 2.16699 32 6.5s22.166 10 32.499 17s19.666 15.167 27.999 24.5s14.833 19.333 19.5 30l5 -2c-12.667 -26.667 -31.334 -47.5 -56.001 -62.5s-52.334 -22.5 -83.001 -22.5
c-21.333 0 -41.166 3.83301 -59.499 11.5s-34.333 18.167 -48 31.5s-24.334 29 -32.001 47s-11.5 37.667 -11.5 59v211zM157.005 569.998l33 114h80l-107 -114h-6z" />
    <glyph glyph-name="Ccircumflex" unicode="&#x108;" horiz-adv-x="359"
d="M33 522c0 27.333 4.16699 52.5 12.5 75.5s20 42.667 35 59s33 29.166 54 38.499s43.833 14 68.5 14c53.333 0 97.333 -21 132 -63l-5 -3c-15.333 18 -32.666 32 -51.999 42s-39 15 -59 15c-23.333 0 -40 -7.16699 -50 -21.5s-15 -37.833 -15 -70.5v-518
c0 -34 4.33301 -57.667 13 -71s24.667 -20 48 -20c15.333 0 30.166 2.5 44.499 7.5s27.666 11.833 39.999 20.5s23 18.834 32 30.501s15.5 24.167 19.5 37.5l5 -2c-11.333 -32 -30.666 -57.167 -57.999 -75.5s-59 -27.5 -95 -27.5c-25.333 0 -48.333 4.66699 -69 14
s-38.5 22.5 -53.5 39.5s-26.667 37.333 -35 61s-12.5 49.5 -12.5 77.5v340zM197 853h6l97 -114h-6l-95 50l-94 -50h-6z" />
    <glyph glyph-name="ccircumflex" unicode="&#x109;" horiz-adv-x="298"
d="M28 350c0 22 3.67188 42.498 11.0049 61.498s17.666 35.5 30.999 49.5s29 24.833 47 32.5s37.333 11.5 58 11.5c23.333 0 45.5 -4.66699 66.5 -14s38.5 -22.666 52.5 -39.999l-4 -4c-11.333 14.667 -26 26.5 -44 35.5s-35 13.5 -51 13.5s-28.667 -4.66699 -38 -14
s-14 -22.666 -14 -39.999v-378c0 -20 5.33301 -35.833 16 -47.5s24.667 -17.5 42 -17.5c10 0 20.667 2.16699 32 6.5s22.166 10 32.499 17s19.666 15.167 27.999 24.5s14.833 19.333 19.5 30l5 -2c-12.667 -26.667 -31.334 -47.5 -56.001 -62.5s-52.334 -22.5 -83.001 -22.5
c-21.333 0 -41.166 3.83301 -59.499 11.5s-34.333 18.167 -48 31.5s-24.334 29 -32.001 47s-11.5 37.667 -11.5 59v211zM172.005 683.998h6l97 -114h-6l-95 50l-94 -50h-6z" />
    <glyph glyph-name="Cdotaccent" unicode="&#x10a;" horiz-adv-x="359"
d="M33 522c0 27.333 4.16699 52.5 12.5 75.5s20 42.667 35 59s33 29.166 54 38.499s43.833 14 68.5 14c53.333 0 97.333 -21 132 -63l-5 -3c-15.333 18 -32.666 32 -51.999 42s-39 15 -59 15c-23.333 0 -40 -7.16699 -50 -21.5s-15 -37.833 -15 -70.5v-518
c0 -34 4.33301 -57.667 13 -71s24.667 -20 48 -20c15.333 0 30.166 2.5 44.499 7.5s27.666 11.833 39.999 20.5s23 18.834 32 30.501s15.5 24.167 19.5 37.5l5 -2c-11.333 -32 -30.666 -57.167 -57.999 -75.5s-59 -27.5 -95 -27.5c-25.333 0 -48.333 4.66699 -69 14
s-38.5 22.5 -53.5 39.5s-26.667 37.333 -35 61s-12.5 49.5 -12.5 77.5v340zM161 794c0 11.333 3.5 20.5 10.5 27.5s16.167 10.5 27.5 10.5s20.666 -3.5 27.999 -10.5s11 -16.167 11 -27.5s-3.66699 -20.666 -11 -27.999s-16.666 -11 -27.999 -11s-20.5 3.66699 -27.5 11
s-10.5 16.666 -10.5 27.999z" />
    <glyph glyph-name="cdotaccent" unicode="&#x10b;" horiz-adv-x="298"
d="M28 350c0 22 3.67188 42.498 11.0049 61.498s17.666 35.5 30.999 49.5s29 24.833 47 32.5s37.333 11.5 58 11.5c23.333 0 45.5 -4.66699 66.5 -14s38.5 -22.666 52.5 -39.999l-4 -4c-11.333 14.667 -26 26.5 -44 35.5s-35 13.5 -51 13.5s-28.667 -4.66699 -38 -14
s-14 -22.666 -14 -39.999v-378c0 -20 5.33301 -35.833 16 -47.5s24.667 -17.5 42 -17.5c10 0 20.667 2.16699 32 6.5s22.166 10 32.499 17s19.666 15.167 27.999 24.5s14.833 19.333 19.5 30l5 -2c-12.667 -26.667 -31.334 -47.5 -56.001 -62.5s-52.334 -22.5 -83.001 -22.5
c-21.333 0 -41.166 3.83301 -59.499 11.5s-34.333 18.167 -48 31.5s-24.334 29 -32.001 47s-11.5 37.667 -11.5 59v211zM136.005 624.998c0 11.333 3.5 20.5 10.5 27.5s16.167 10.5 27.5 10.5s20.666 -3.5 27.999 -10.5s11 -16.167 11 -27.5s-3.66699 -20.666 -11 -27.999
s-16.666 -11 -27.999 -11s-20.5 3.66699 -27.5 11s-10.5 16.666 -10.5 27.999z" />
    <glyph glyph-name="Ccaron" unicode="&#x10c;" horiz-adv-x="359"
d="M33 522c0 27.333 4.16699 52.5 12.5 75.5s20 42.667 35 59s33 29.166 54 38.499s43.833 14 68.5 14c53.333 0 97.333 -21 132 -63l-5 -3c-15.333 18 -32.666 32 -51.999 42s-39 15 -59 15c-23.333 0 -40 -7.16699 -50 -21.5s-15 -37.833 -15 -70.5v-518
c0 -34 4.33301 -57.667 13 -71s24.667 -20 48 -20c15.333 0 30.166 2.5 44.499 7.5s27.666 11.833 39.999 20.5s23 18.834 32 30.501s15.5 24.167 19.5 37.5l5 -2c-11.333 -32 -30.666 -57.167 -57.999 -75.5s-59 -27.5 -95 -27.5c-25.333 0 -48.333 4.66699 -69 14
s-38.5 22.5 -53.5 39.5s-26.667 37.333 -35 61s-12.5 49.5 -12.5 77.5v340zM105 853l94 -50l95 50h6l-97 -114h-6l-98 114h6z" />
    <glyph glyph-name="ccaron" unicode="&#x10d;" horiz-adv-x="298"
d="M28 350c0 22 3.67188 42.498 11.0049 61.498s17.666 35.5 30.999 49.5s29 24.833 47 32.5s37.333 11.5 58 11.5c23.333 0 45.5 -4.66699 66.5 -14s38.5 -22.666 52.5 -39.999l-4 -4c-11.333 14.667 -26 26.5 -44 35.5s-35 13.5 -51 13.5s-28.667 -4.66699 -38 -14
s-14 -22.666 -14 -39.999v-378c0 -20 5.33301 -35.833 16 -47.5s24.667 -17.5 42 -17.5c10 0 20.667 2.16699 32 6.5s22.166 10 32.499 17s19.666 15.167 27.999 24.5s14.833 19.333 19.5 30l5 -2c-12.667 -26.667 -31.334 -47.5 -56.001 -62.5s-52.334 -22.5 -83.001 -22.5
c-21.333 0 -41.166 3.83301 -59.499 11.5s-34.333 18.167 -48 31.5s-24.334 29 -32.001 47s-11.5 37.667 -11.5 59v211zM80.0049 683.998l94 -50l95 50h6l-97 -114h-6l-98 114h6z" />
    <glyph glyph-name="Dcaron" unicode="&#x10e;" horiz-adv-x="394"
d="M38 699h168.001c22.667 0 43.5 -4.5 62.5 -13.5s35.5 -21.5 49.5 -37.5s24.833 -35 32.5 -57s11.5 -46 11.5 -72v-340c0 -26 -3.83301 -49.833 -11.5 -71.5s-18.334 -40.5 -32.001 -56.5s-29.667 -28.5 -48 -37.5s-38.5 -13.5 -60.5 -13.5h-172v699zM159.001 6
l39.999 -0.000976562c16 0 27 7.5 33 22.5s9 35.167 9 60.5v517c0 24.667 -3.66699 45.334 -11 62.001s-19.666 25 -36.999 25h-34v-687zM74 852.999l94 -50l95 50h6l-97 -114h-6l-98 114h6z" />
    <glyph glyph-name="dcaron" unicode="&#x10f;"
d="M205 43h-2.00195c-6.66699 -19.333 -14.667 -33 -24 -41s-21.666 -12 -36.999 -12c-14.667 0 -29 3.5 -43 10.5s-26.167 16.167 -36.5 27.5s-18.666 24.5 -24.999 39.5s-9.5 30.833 -9.5 47.5v258c0 17.333 3.16699 34 9.5 50s14.833 30 25.5 42s23 21.667 37 29
s28.667 11 44 11c14.667 0 26.5 -4 35.5 -12s16.833 -22 23.5 -42h2v248h111v-699h-111v43zM347.998 585l23 114h65l-82 -114h-6zM204.998 417c0 9.33301 -1.16699 18.5 -3.5 27.5s-5.5 17.167 -9.5 24.5s-8.5 13.333 -13.5 18s-9.83301 7 -14.5 7
c-6.66699 0 -11.834 -3.5 -15.501 -10.5s-5.5 -16.167 -5.5 -27.5v-415c0 -11.333 2 -20.5 6 -27.5s9.33301 -10.5 16 -10.5c4.66699 0 9.33398 2.16699 14.001 6.5s9 10 13 17s7.16699 14.833 9.5 23.5s3.5 17 3.5 25v342z" />
    <glyph glyph-name="Dcroat" unicode="&#x110;" horiz-adv-x="394"
d="M38 699h168.001c22.667 0 43.5 -4.5 62.5 -13.5s35.5 -21.5 49.5 -37.5s24.833 -35 32.5 -57s11.5 -46 11.5 -72v-340c0 -26 -3.83301 -49.833 -11.5 -71.5s-18.334 -40.5 -32.001 -56.5s-29.667 -28.5 -48 -37.5s-38.5 -13.5 -60.5 -13.5h-172v699zM159.001 6
l39.999 -0.000976562c16 0 27 7.5 33 22.5s9 35.167 9 60.5v517c0 24.667 -3.66699 45.334 -11 62.001s-19.666 25 -36.999 25h-34v-687zM1 352.999h202v-6h-202v6z" />
    <glyph glyph-name="dcroat" unicode="&#x111;"
d="M205 43h-2.00195c-6.66699 -19.333 -14.667 -33 -24 -41s-21.666 -12 -36.999 -12c-14.667 0 -29 3.5 -43 10.5s-26.167 16.167 -36.5 27.5s-18.666 24.5 -24.999 39.5s-9.5 30.833 -9.5 47.5v258c0 17.333 3.16699 34 9.5 50s14.833 30 25.5 42s23 21.667 37 29
s28.667 11 44 11c14.667 0 26.5 -4 35.5 -12s16.833 -22 23.5 -42h2v248h111v-699h-111v43zM204.998 417c0 9.33301 -1.16699 18.5 -3.5 27.5s-5.5 17.167 -9.5 24.5s-8.5 13.333 -13.5 18s-9.83301 7 -14.5 7c-6.66699 0 -11.834 -3.5 -15.501 -10.5
s-5.5 -16.167 -5.5 -27.5v-415c0 -11.333 2 -20.5 6 -27.5s9.33301 -10.5 16 -10.5c4.66699 0 9.33398 2.16699 14.001 6.5s9 10 13 17s7.16699 14.833 9.5 23.5s3.5 17 3.5 25v342zM146.998 583h202v-6h-202v6z" />
    <glyph glyph-name="Emacron" unicode="&#x112;" horiz-adv-x="297"
d="M279 699v-6h-121v-333h100v-6h-100v-348h121v-6h-241v699h241zM244 790h-167v6h167v-6z" />
    <glyph glyph-name="emacron" unicode="&#x113;" horiz-adv-x="342"
d="M28 358c0 20 4.00098 38.832 12.001 56.499s18.667 33.167 32 46.5s28.833 24 46.5 32s36.5 12 56.5 12c19.333 0 38 -4 56 -12s33.833 -18.667 47.5 -32s24.5 -28.833 32.5 -46.5s12 -36.167 12 -55.5v-110h-180v-186c0 -20 5.16699 -35.667 15.5 -47
s24.833 -17 43.5 -17c11.333 0 22.833 2.33301 34.5 7s22.834 11 33.501 19s20.167 17.333 28.5 28s14.833 22 19.5 34l5 -2c-12.667 -30 -31.5 -53.333 -56.5 -70s-53.833 -25 -86.5 -25c-21.333 0 -41.333 3.83301 -60 11.5s-34.834 18 -48.501 31
s-24.334 28.333 -32.001 46s-11.5 36.834 -11.5 57.501v222zM208.001 254.999v198c0 13.333 -3 24.333 -9 33s-13.667 13 -23 13c-10 0 -18 -4.33301 -24 -13s-9 -19.667 -9 -33v-198h65zM257.001 620.999h-167v6h167v-6z" />
    <glyph glyph-name="Ebreve" unicode="&#x114;" horiz-adv-x="297"
d="M279 699v-6h-121v-333h100v-6h-100v-348h121v-6h-241v699h241zM240 842l6.00195 -0.000976562c0 -30 -8 -54.333 -24 -73s-36.333 -28 -61 -28s-44.834 9.33301 -60.501 28s-23.5 43 -23.5 73h6c0 -14 7.66699 -26 23 -36s34 -15 56 -15
c21.333 0 39.666 4.83301 54.999 14.5s23 21.834 23 36.501z" />
    <glyph glyph-name="ebreve" unicode="&#x115;" horiz-adv-x="342"
d="M28 358c0 20 4.00098 38.832 12.001 56.499s18.667 33.167 32 46.5s28.833 24 46.5 32s36.5 12 56.5 12c19.333 0 38 -4 56 -12s33.833 -18.667 47.5 -32s24.5 -28.833 32.5 -46.5s12 -36.167 12 -55.5v-110h-180v-186c0 -20 5.16699 -35.667 15.5 -47
s24.833 -17 43.5 -17c11.333 0 22.833 2.33301 34.5 7s22.834 11 33.501 19s20.167 17.333 28.5 28s14.833 22 19.5 34l5 -2c-12.667 -30 -31.5 -53.333 -56.5 -70s-53.833 -25 -86.5 -25c-21.333 0 -41.333 3.83301 -60 11.5s-34.834 18 -48.501 31
s-24.334 28.333 -32.001 46s-11.5 36.834 -11.5 57.501v222zM208.001 254.999v198c0 13.333 -3 24.333 -9 33s-13.667 13 -23 13c-10 0 -18 -4.33301 -24 -13s-9 -19.667 -9 -33v-198h65zM253.001 672.999l6.00195 -0.000976562c0 -30 -8 -54.333 -24 -73
s-36.333 -28 -61 -28s-44.834 9.33301 -60.501 28s-23.5 43 -23.5 73h6c0 -14 7.66699 -26 23 -36s34 -15 56 -15c21.333 0 39.666 4.83301 54.999 14.5s23 21.834 23 36.501z" />
    <glyph glyph-name="Edotaccent" unicode="&#x116;" horiz-adv-x="297"
d="M279 699v-6h-121v-333h100v-6h-100v-348h121v-6h-241v699h241zM122 794c0 11.333 3.5 20.5 10.5 27.5s16.167 10.5 27.5 10.5s20.666 -3.5 27.999 -10.5s11 -16.167 11 -27.5s-3.66699 -20.666 -11 -27.999s-16.666 -11 -27.999 -11s-20.5 3.66699 -27.5 11
s-10.5 16.666 -10.5 27.999z" />
    <glyph glyph-name="edotaccent" unicode="&#x117;" horiz-adv-x="342"
d="M28 358c0 20 4.00098 38.832 12.001 56.499s18.667 33.167 32 46.5s28.833 24 46.5 32s36.5 12 56.5 12c19.333 0 38 -4 56 -12s33.833 -18.667 47.5 -32s24.5 -28.833 32.5 -46.5s12 -36.167 12 -55.5v-110h-180v-186c0 -20 5.16699 -35.667 15.5 -47
s24.833 -17 43.5 -17c11.333 0 22.833 2.33301 34.5 7s22.834 11 33.501 19s20.167 17.333 28.5 28s14.833 22 19.5 34l5 -2c-12.667 -30 -31.5 -53.333 -56.5 -70s-53.833 -25 -86.5 -25c-21.333 0 -41.333 3.83301 -60 11.5s-34.834 18 -48.501 31
s-24.334 28.333 -32.001 46s-11.5 36.834 -11.5 57.501v222zM208.001 254.999v198c0 13.333 -3 24.333 -9 33s-13.667 13 -23 13c-10 0 -18 -4.33301 -24 -13s-9 -19.667 -9 -33v-198h65zM135.001 624.999c0 11.333 3.5 20.5 10.5 27.5s16.167 10.5 27.5 10.5
s20.666 -3.5 27.999 -10.5s11 -16.167 11 -27.5s-3.66699 -20.666 -11 -27.999s-16.666 -11 -27.999 -11s-20.5 3.66699 -27.5 11s-10.5 16.666 -10.5 27.999z" />
    <glyph glyph-name="Eogonek" unicode="&#x118;" horiz-adv-x="297"
d="M279 699v-6h-121v-333h100v-6h-100v-348h121v-6h-241v699h241zM280 -80c-7.33301 -18.667 -17.668 -33.334 -31.001 -44.001s-27.666 -16 -42.999 -16c-16 0 -29.667 5 -41 15s-17 22.333 -17 37s6.83301 29.834 20.5 45.501s33.167 30.5 58.5 44.5h11
c-17.333 -9.33301 -29.333 -19.833 -36 -31.5s-10 -23.167 -10 -34.5c0 -14 4 -26 12 -36s17.667 -15 29 -15c7.33301 0 14.833 3 22.5 9s14.167 15.667 19.5 29z" />
    <glyph glyph-name="eogonek" unicode="&#x119;" horiz-adv-x="342"
d="M28 358c0 20 4.00098 38.832 12.001 56.499s18.667 33.167 32 46.5s28.833 24 46.5 32s36.5 12 56.5 12c19.333 0 38 -4 56 -12s33.833 -18.667 47.5 -32s24.5 -28.833 32.5 -46.5s12 -36.167 12 -55.5v-110h-180v-186c0 -20 5.16699 -35.667 15.5 -47
s24.833 -17 43.5 -17c11.333 0 22.833 2.33301 34.5 7s22.834 11 33.501 19s20.167 17.333 28.5 28s14.833 22 19.5 34l5 -2c-12.667 -30 -31.5 -53.333 -56.5 -70s-53.833 -25 -86.5 -25c-21.333 0 -41.333 3.83301 -60 11.5s-34.834 18 -48.501 31
s-24.334 28.333 -32.001 46s-11.5 36.834 -11.5 57.501v222zM208.001 254.999v198c0 13.333 -3 24.333 -9 33s-13.667 13 -23 13c-10 0 -18 -4.33301 -24 -13s-9 -19.667 -9 -33v-198h65zM282.001 -80.001c-7.33301 -18.667 -17.668 -33.334 -31.001 -44.001
s-27.666 -16 -42.999 -16c-16 0 -29.667 5 -41 15s-17 22.333 -17 37s6.83301 29.834 20.5 45.501s33.167 30.5 58.5 44.5h11c-17.333 -9.33301 -29.333 -19.833 -36 -31.5s-10 -23.167 -10 -34.5c0 -14 4 -26 12 -36s17.667 -15 29 -15c7.33301 0 14.833 3 22.5 9
s14.167 15.667 19.5 29z" />
    <glyph glyph-name="Ecaron" unicode="&#x11a;" horiz-adv-x="297"
d="M279 699v-6h-121v-333h100v-6h-100v-348h121v-6h-241v699h241zM66 853l94 -50l95 50h6l-97 -114h-6l-98 114h6z" />
    <glyph glyph-name="ecaron" unicode="&#x11b;" horiz-adv-x="342"
d="M28 358c0 20 4.00098 38.832 12.001 56.499s18.667 33.167 32 46.5s28.833 24 46.5 32s36.5 12 56.5 12c19.333 0 38 -4 56 -12s33.833 -18.667 47.5 -32s24.5 -28.833 32.5 -46.5s12 -36.167 12 -55.5v-110h-180v-186c0 -20 5.16699 -35.667 15.5 -47
s24.833 -17 43.5 -17c11.333 0 22.833 2.33301 34.5 7s22.834 11 33.501 19s20.167 17.333 28.5 28s14.833 22 19.5 34l5 -2c-12.667 -30 -31.5 -53.333 -56.5 -70s-53.833 -25 -86.5 -25c-21.333 0 -41.333 3.83301 -60 11.5s-34.834 18 -48.501 31
s-24.334 28.333 -32.001 46s-11.5 36.834 -11.5 57.501v222zM208.001 254.999v198c0 13.333 -3 24.333 -9 33s-13.667 13 -23 13c-10 0 -18 -4.33301 -24 -13s-9 -19.667 -9 -33v-198h65zM79.001 683.999l94 -50l95 50h6l-97 -114h-6l-98 114h6z" />
    <glyph glyph-name="Gcircumflex" unicode="&#x11c;" horiz-adv-x="388"
d="M33 522c0 27.333 4.16797 52.5 12.501 75.5s20.166 42.833 35.499 59.5s33.5 29.5 54.5 38.5s44.5 13.5 70.5 13.5c28 0 54.333 -5.5 79 -16.5s44.667 -26.167 60 -45.5l-5 -4c-13.333 17.333 -30 30.833 -50 40.5s-40.667 14.5 -62 14.5c-49.333 0 -74 -30.333 -74 -91
v-532c0 -52.667 20.667 -79 62 -79c12.667 0 24.667 1.66699 36 5v336h-60v6h170v-319c-23.333 -10.667 -48.833 -19 -76.5 -25s-52.5 -9 -74.5 -9c-26.667 0 -51 4.66699 -73 14s-40.833 22.5 -56.5 39.5s-27.667 37.333 -36 61s-12.5 49.5 -12.5 77.5v340zM202.001 853h6
l97 -114h-6l-95 50l-94 -50h-6z" />
    <glyph glyph-name="gcircumflex" unicode="&#x11d;" horiz-adv-x="345"
d="M171 -175c-48.667 0 -87.501 11.668 -116.501 35.001s-43.5 54.333 -43.5 93h62c0 -37.333 9.16699 -67 27.5 -89s43.166 -33 74.499 -33c15.333 0 30 2.66699 44 8s26.5 12.333 37.5 21s19.833 18.5 26.5 29.5s10 22.5 10 34.5c0 14.667 -4.5 26.5 -13.5 35.5
s-20.167 13.5 -33.5 13.5h-133c-28 0 -50 7.16699 -66 21.5s-24 34.166 -24 59.499c0 42.667 23.333 80.667 70 114c-21.333 14 -38 31.833 -50 53.5s-18 45.167 -18 70.5v72c0 19.333 3.83301 37.5 11.5 54.5s17.834 32 30.501 45s27.667 23.333 45 31s35.333 11.5 54 11.5
c19.333 0 38.5 -4 57.5 -12s35.833 -19.667 50.5 -35c11.333 36.667 35.666 55 72.999 55v-67c-8 3.33301 -16.167 5.83301 -24.5 7.5s-16.5 2.5 -24.5 2.5c-3.33301 0 -6.66602 -0.166992 -9.99902 -0.5s-6.66602 -0.833008 -9.99902 -1.5c22.667 -26 34 -55.333 34 -88
v-77c0 -20.667 -3.5 -39.834 -10.5 -57.501s-16.833 -33 -29.5 -46s-27.334 -23.333 -44.001 -31s-35 -11.5 -55 -11.5c-26 0 -50.667 6.66699 -74 20c-24 -17.333 -36 -33.333 -36 -48c0 -20 18.333 -30 55 -30h148c27.333 0 49.333 -9.66699 66 -29s25 -44.666 25 -75.999
c0 -22.667 -4.66699 -43.5 -14 -62.5s-22.166 -35.5 -38.499 -49.5s-35.833 -24.833 -58.5 -32.5s-47.667 -11.5 -75 -11.5zM139.999 187.001c0 -11.333 2.66797 -20.333 8.00098 -27s12.666 -10 21.999 -10c18 0 27 12.333 27 37v274c0 11.333 -2.66699 20.5 -8 27.5
s-12 10.5 -20 10.5c-8.66699 0 -15.667 -3.5 -21 -10.5s-8 -16.167 -8 -27.5v-274zM163 684.001h6l97 -114h-6l-95 50l-94 -50h-6z" />
    <glyph glyph-name="Gbreve" unicode="&#x11e;" horiz-adv-x="388"
d="M33 522c0 27.333 4.16797 52.5 12.501 75.5s20.166 42.833 35.499 59.5s33.5 29.5 54.5 38.5s44.5 13.5 70.5 13.5c28 0 54.333 -5.5 79 -16.5s44.667 -26.167 60 -45.5l-5 -4c-13.333 17.333 -30 30.833 -50 40.5s-40.667 14.5 -62 14.5c-49.333 0 -74 -30.333 -74 -91
v-532c0 -52.667 20.667 -79 62 -79c12.667 0 24.667 1.66699 36 5v336h-60v6h170v-319c-23.333 -10.667 -48.833 -19 -76.5 -25s-52.5 -9 -74.5 -9c-26.667 0 -51 4.66699 -73 14s-40.833 22.5 -56.5 39.5s-27.667 37.333 -36 61s-12.5 49.5 -12.5 77.5v340zM283.001 842
l6.00195 -0.000976562c0 -30 -8 -54.333 -24 -73s-36.333 -28 -61 -28s-44.834 9.33301 -60.501 28s-23.5 43 -23.5 73h6c0 -14 7.66699 -26 23 -36s34 -15 56 -15c21.333 0 39.666 4.83301 54.999 14.5s23 21.834 23 36.501z" />
    <glyph glyph-name="gbreve" unicode="&#x11f;" horiz-adv-x="345"
d="M171 -175c-48.667 0 -87.501 11.668 -116.501 35.001s-43.5 54.333 -43.5 93h62c0 -37.333 9.16699 -67 27.5 -89s43.166 -33 74.499 -33c15.333 0 30 2.66699 44 8s26.5 12.333 37.5 21s19.833 18.5 26.5 29.5s10 22.5 10 34.5c0 14.667 -4.5 26.5 -13.5 35.5
s-20.167 13.5 -33.5 13.5h-133c-28 0 -50 7.16699 -66 21.5s-24 34.166 -24 59.499c0 42.667 23.333 80.667 70 114c-21.333 14 -38 31.833 -50 53.5s-18 45.167 -18 70.5v72c0 19.333 3.83301 37.5 11.5 54.5s17.834 32 30.501 45s27.667 23.333 45 31s35.333 11.5 54 11.5
c19.333 0 38.5 -4 57.5 -12s35.833 -19.667 50.5 -35c11.333 36.667 35.666 55 72.999 55v-67c-8 3.33301 -16.167 5.83301 -24.5 7.5s-16.5 2.5 -24.5 2.5c-3.33301 0 -6.66602 -0.166992 -9.99902 -0.5s-6.66602 -0.833008 -9.99902 -1.5c22.667 -26 34 -55.333 34 -88
v-77c0 -20.667 -3.5 -39.834 -10.5 -57.501s-16.833 -33 -29.5 -46s-27.334 -23.333 -44.001 -31s-35 -11.5 -55 -11.5c-26 0 -50.667 6.66699 -74 20c-24 -17.333 -36 -33.333 -36 -48c0 -20 18.333 -30 55 -30h148c27.333 0 49.333 -9.66699 66 -29s25 -44.666 25 -75.999
c0 -22.667 -4.66699 -43.5 -14 -62.5s-22.166 -35.5 -38.499 -49.5s-35.833 -24.833 -58.5 -32.5s-47.667 -11.5 -75 -11.5zM139.999 187.001c0 -11.333 2.66797 -20.333 8.00098 -27s12.666 -10 21.999 -10c18 0 27 12.333 27 37v274c0 11.333 -2.66699 20.5 -8 27.5
s-12 10.5 -20 10.5c-8.66699 0 -15.667 -3.5 -21 -10.5s-8 -16.167 -8 -27.5v-274zM244 673.001l6.00195 -0.000976562c0 -30 -8 -54.333 -24 -73s-36.333 -28 -61 -28s-44.834 9.33301 -60.501 28s-23.5 43 -23.5 73h6c0 -14 7.66699 -26 23 -36s34 -15 56 -15
c21.333 0 39.666 4.83301 54.999 14.5s23 21.834 23 36.501z" />
    <glyph glyph-name="Gdotaccent" unicode="&#x120;" horiz-adv-x="388"
d="M33 522c0 27.333 4.16797 52.5 12.501 75.5s20.166 42.833 35.499 59.5s33.5 29.5 54.5 38.5s44.5 13.5 70.5 13.5c28 0 54.333 -5.5 79 -16.5s44.667 -26.167 60 -45.5l-5 -4c-13.333 17.333 -30 30.833 -50 40.5s-40.667 14.5 -62 14.5c-49.333 0 -74 -30.333 -74 -91
v-532c0 -52.667 20.667 -79 62 -79c12.667 0 24.667 1.66699 36 5v336h-60v6h170v-319c-23.333 -10.667 -48.833 -19 -76.5 -25s-52.5 -9 -74.5 -9c-26.667 0 -51 4.66699 -73 14s-40.833 22.5 -56.5 39.5s-27.667 37.333 -36 61s-12.5 49.5 -12.5 77.5v340zM166.001 794
c0 11.333 3.5 20.5 10.5 27.5s16.167 10.5 27.5 10.5s20.666 -3.5 27.999 -10.5s11 -16.167 11 -27.5s-3.66699 -20.666 -11 -27.999s-16.666 -11 -27.999 -11s-20.5 3.66699 -27.5 11s-10.5 16.666 -10.5 27.999z" />
    <glyph glyph-name="gdotaccent" unicode="&#x121;" horiz-adv-x="345"
d="M171 -175c-48.667 0 -87.501 11.668 -116.501 35.001s-43.5 54.333 -43.5 93h62c0 -37.333 9.16699 -67 27.5 -89s43.166 -33 74.499 -33c15.333 0 30 2.66699 44 8s26.5 12.333 37.5 21s19.833 18.5 26.5 29.5s10 22.5 10 34.5c0 14.667 -4.5 26.5 -13.5 35.5
s-20.167 13.5 -33.5 13.5h-133c-28 0 -50 7.16699 -66 21.5s-24 34.166 -24 59.499c0 42.667 23.333 80.667 70 114c-21.333 14 -38 31.833 -50 53.5s-18 45.167 -18 70.5v72c0 19.333 3.83301 37.5 11.5 54.5s17.834 32 30.501 45s27.667 23.333 45 31s35.333 11.5 54 11.5
c19.333 0 38.5 -4 57.5 -12s35.833 -19.667 50.5 -35c11.333 36.667 35.666 55 72.999 55v-67c-8 3.33301 -16.167 5.83301 -24.5 7.5s-16.5 2.5 -24.5 2.5c-3.33301 0 -6.66602 -0.166992 -9.99902 -0.5s-6.66602 -0.833008 -9.99902 -1.5c22.667 -26 34 -55.333 34 -88
v-77c0 -20.667 -3.5 -39.834 -10.5 -57.501s-16.833 -33 -29.5 -46s-27.334 -23.333 -44.001 -31s-35 -11.5 -55 -11.5c-26 0 -50.667 6.66699 -74 20c-24 -17.333 -36 -33.333 -36 -48c0 -20 18.333 -30 55 -30h148c27.333 0 49.333 -9.66699 66 -29s25 -44.666 25 -75.999
c0 -22.667 -4.66699 -43.5 -14 -62.5s-22.166 -35.5 -38.499 -49.5s-35.833 -24.833 -58.5 -32.5s-47.667 -11.5 -75 -11.5zM139.999 187.001c0 -11.333 2.66797 -20.333 8.00098 -27s12.666 -10 21.999 -10c18 0 27 12.333 27 37v274c0 11.333 -2.66699 20.5 -8 27.5
s-12 10.5 -20 10.5c-8.66699 0 -15.667 -3.5 -21 -10.5s-8 -16.167 -8 -27.5v-274zM127 625.001c0 11.333 3.5 20.5 10.5 27.5s16.167 10.5 27.5 10.5s20.666 -3.5 27.999 -10.5s11 -16.167 11 -27.5s-3.66699 -20.666 -11 -27.999s-16.666 -11 -27.999 -11
s-20.5 3.66699 -27.5 11s-10.5 16.666 -10.5 27.999z" />
    <glyph glyph-name="uni0122" unicode="&#x122;" horiz-adv-x="388"
d="M33 522c0 27.333 4.16797 52.5 12.501 75.5s20.166 42.833 35.499 59.5s33.5 29.5 54.5 38.5s44.5 13.5 70.5 13.5c28 0 54.333 -5.5 79 -16.5s44.667 -26.167 60 -45.5l-5 -4c-13.333 17.333 -30 30.833 -50 40.5s-40.667 14.5 -62 14.5c-49.333 0 -74 -30.333 -74 -91
v-532c0 -52.667 20.667 -79 62 -79c12.667 0 24.667 1.66699 36 5v336h-60v6h170v-319c-23.333 -10.667 -48.833 -19 -76.5 -25s-52.5 -9 -74.5 -9c-26.667 0 -51 4.66699 -73 14s-40.833 22.5 -56.5 39.5s-27.667 37.333 -36 61s-12.5 49.5 -12.5 77.5v340zM237.001 -110
c-5.33301 -2.66699 -10.334 -4.83301 -15.001 -6.5s-9.66699 -2.5 -15 -2.5c-12 0 -21.833 4 -29.5 12s-11.5 18.333 -11.5 31c0 13.333 4 24 12 32s18.667 12 32 12c14.667 0 26.167 -5.5 34.5 -16.5s12.5 -26.5 12.5 -46.5c0 -23.333 -6.16699 -42.333 -18.5 -57
s-30.5 -23.667 -54.5 -27l-1 6c20 2.66699 35.333 10 46 22s13.334 25.667 8.00098 41z" />
    <glyph glyph-name="uni0123" unicode="&#x123;" horiz-adv-x="345"
d="M171 -175c-48.667 0 -87.501 11.668 -116.501 35.001s-43.5 54.333 -43.5 93h62c0 -37.333 9.16699 -67 27.5 -89s43.166 -33 74.499 -33c15.333 0 30 2.66699 44 8s26.5 12.333 37.5 21s19.833 18.5 26.5 29.5s10 22.5 10 34.5c0 14.667 -4.5 26.5 -13.5 35.5
s-20.167 13.5 -33.5 13.5h-133c-28 0 -50 7.16699 -66 21.5s-24 34.166 -24 59.499c0 42.667 23.333 80.667 70 114c-21.333 14 -38 31.833 -50 53.5s-18 45.167 -18 70.5v72c0 19.333 3.83301 37.5 11.5 54.5s17.834 32 30.501 45s27.667 23.333 45 31s35.333 11.5 54 11.5
c19.333 0 38.5 -4 57.5 -12s35.833 -19.667 50.5 -35c11.333 36.667 35.666 55 72.999 55v-67c-8 3.33301 -16.167 5.83301 -24.5 7.5s-16.5 2.5 -24.5 2.5c-3.33301 0 -6.66602 -0.166992 -9.99902 -0.5s-6.66602 -0.833008 -9.99902 -1.5c22.667 -26 34 -55.333 34 -88
v-77c0 -20.667 -3.5 -39.834 -10.5 -57.501s-16.833 -33 -29.5 -46s-27.334 -23.333 -44.001 -31s-35 -11.5 -55 -11.5c-26 0 -50.667 6.66699 -74 20c-24 -17.333 -36 -33.333 -36 -48c0 -20 18.333 -30 55 -30h148c27.333 0 49.333 -9.66699 66 -29s25 -44.666 25 -75.999
c0 -22.667 -4.66699 -43.5 -14 -62.5s-22.166 -35.5 -38.499 -49.5s-35.833 -24.833 -58.5 -32.5s-47.667 -11.5 -75 -11.5zM139.999 187.001c0 -11.333 2.66797 -20.333 8.00098 -27s12.666 -10 21.999 -10c18 0 27 12.333 27 37v274c0 11.333 -2.66699 20.5 -8 27.5
s-12 10.5 -20 10.5c-8.66699 0 -15.667 -3.5 -21 -10.5s-8 -16.167 -8 -27.5v-274zM136 648.001c4.66699 2.66699 9.50195 4.83301 14.502 6.5s10.167 2.5 15.5 2.5c12 0 21.833 -4 29.5 -12s11.5 -18.333 11.5 -31c0 -13.333 -4.16699 -24 -12.5 -32s-18.833 -12 -31.5 -12
c-14.667 0 -26.167 5.5 -34.5 16.5s-12.5 26.5 -12.5 46.5c0 23.333 6.16699 42.333 18.5 57s30.166 23.667 53.499 27l2 -6c-20 -2.66699 -35.333 -10 -46 -22s-13.334 -25.667 -8.00098 -41z" />
    <glyph glyph-name="Hcircumflex" unicode="&#x124;" horiz-adv-x="413"
d="M158 699v-347h97v347h120v-699h-120v346h-97v-346h-120v699h120zM204 853h6l97 -114h-6l-95 50l-94 -50h-6z" />
    <glyph glyph-name="hcircumflex" unicode="&#x125;" horiz-adv-x="356"
d="M149 433c9.33301 25.333 20.332 43.668 32.999 55.001s28.334 17 47.001 17c14 0 27 -2.83301 39 -8.5s22.5 -13.334 31.5 -23.001s16.167 -21 21.5 -34s8 -26.833 8 -41.5v-398h-118v450c0 25.333 -4.66699 38 -14 38c-4.66699 0 -10 -3 -16 -9s-11.5 -13.5 -16.5 -22.5
s-9.16699 -18.5 -12.5 -28.5s-5 -19.333 -5 -28v-400h-111v699h111v-266h2zM217.999 833.002h6l97 -114h-6l-95 50l-94 -50h-6z" />
    <glyph glyph-name="Hbar" unicode="&#x126;" horiz-adv-x="413"
d="M158 699v-172h97v172h120v-172h36v-6h-36v-521h-120v346h-97v-346h-120v521h-35v6h35v172h120zM255 352v169h-97v-169h97z" />
    <glyph glyph-name="hbar" unicode="&#x127;" horiz-adv-x="356"
d="M149 433c9.33301 25.333 20.332 43.668 32.999 55.001s28.334 17 47.001 17c14 0 27 -2.83301 39 -8.5s22.5 -13.334 31.5 -23.001s16.167 -21 21.5 -34s8 -26.833 8 -41.5v-398h-118v450c0 25.333 -4.66699 38 -14 38c-4.66699 0 -10 -3 -16 -9s-11.5 -13.5 -16.5 -22.5
s-9.16699 -18.5 -12.5 -28.5s-5 -19.333 -5 -28v-400h-111v699h111v-266h2zM4.99902 585.002h202v-6h-202v6z" />
    <glyph glyph-name="Itilde" unicode="&#x128;" horiz-adv-x="196"
d="M158 699v-699h-120v699h120zM6 765l-5.00098 2c18 42 41.333 63 70 63c10 0 19.333 -2 28 -6l32 -14c9.33301 -4 18.333 -6 27 -6c14.667 0 25.334 8 32.001 24l5 -3c-18 -43.333 -41.667 -65 -71 -65c-10 0 -20.333 2.33301 -31 7l-21 10c-9.33301 4 -16.833 7 -22.5 9
s-10.5 3 -14.5 3c-12 0 -21.667 -8 -29 -24z" />
    <glyph glyph-name="itilde" unicode="&#x129;" horiz-adv-x="194"
d="M153 495v-495h-111v495h111zM6 596l-5.00098 2c18 42 41.333 63 70 63c10 0 19.333 -2 28 -6l32 -14c9.33301 -4 18.333 -6 27 -6c14.667 0 25.334 8 32.001 24l5 -3c-18 -43.333 -41.667 -65 -71 -65c-10 0 -20.333 2.33301 -31 7l-21 10c-9.33301 4 -16.833 7 -22.5 9
s-10.5 3 -14.5 3c-12 0 -21.667 -8 -29 -24z" />
    <glyph glyph-name="Imacron" unicode="&#x12a;" horiz-adv-x="196"
d="M158 699v-699h-120v699h120zM181 790h-167v6h167v-6z" />
    <glyph glyph-name="imacron" unicode="&#x12b;" horiz-adv-x="194"
d="M153 495v-495h-111v495h111zM180 621h-167v6h167v-6z" />
    <glyph glyph-name="Ibreve" unicode="&#x12c;" horiz-adv-x="196"
d="M158 699v-699h-120v699h120zM177 842l6.00195 -0.000976562c0 -30 -8 -54.333 -24 -73s-36.333 -28 -61 -28s-44.834 9.33301 -60.501 28s-23.5 43 -23.5 73h6c0 -14 7.66699 -26 23 -36s34 -15 56 -15c21.333 0 39.666 4.83301 54.999 14.5s23 21.834 23 36.501z" />
    <glyph glyph-name="ibreve" unicode="&#x12d;" horiz-adv-x="194"
d="M153 495v-495h-111v495h111zM176 673l6.00195 -0.000976562c0 -30 -8 -54.333 -24 -73s-36.333 -28 -61 -28s-44.834 9.33301 -60.501 28s-23.5 43 -23.5 73h6c0 -14 7.66699 -26 23 -36s34 -15 56 -15c21.333 0 39.666 4.83301 54.999 14.5s23 21.834 23 36.501z" />
    <glyph glyph-name="Iogonek" unicode="&#x12e;" horiz-adv-x="196"
d="M158 699v-699h-120v699h120zM148 -80c-7.33301 -18.667 -17.668 -33.334 -31.001 -44.001s-27.666 -16 -42.999 -16c-16 0 -29.667 5 -41 15s-17 22.333 -17 37s6.83301 29.834 20.5 45.501s33.167 30.5 58.5 44.5h11c-17.333 -9.33301 -29.333 -19.833 -36 -31.5
s-10 -23.167 -10 -34.5c0 -14 4 -26 12 -36s17.667 -15 29 -15c7.33301 0 14.833 3 22.5 9s14.167 15.667 19.5 29z" />
    <glyph glyph-name="iogonek" unicode="&#x12f;" horiz-adv-x="194"
d="M36 624c0 17.333 5.83301 32 17.5 44s26.5 18 44.5 18s33 -6 45 -18s18 -26.667 18 -44c0 -18.667 -6 -33.834 -18 -45.501s-27 -17.5 -45 -17.5s-32.833 5.83301 -44.5 17.5s-17.5 26.834 -17.5 45.501zM153 495v-495h-111v495h111zM159 -80
c-7.33301 -18.667 -17.668 -33.334 -31.001 -44.001s-27.666 -16 -42.999 -16c-16 0 -29.667 5 -41 15s-17 22.333 -17 37s6.83301 29.834 20.5 45.501s33.167 30.5 58.5 44.5h11c-17.333 -9.33301 -29.333 -19.833 -36 -31.5s-10 -23.167 -10 -34.5c0 -14 4 -26 12 -36
s17.667 -15 29 -15c7.33301 0 14.833 3 22.5 9s14.167 15.667 19.5 29z" />
    <glyph glyph-name="Idotaccent" unicode="&#x130;" horiz-adv-x="196"
d="M158 699v-699h-120v699h120zM60 794c0 11.333 3.5 20.5 10.5 27.5s16.167 10.5 27.5 10.5s20.666 -3.5 27.999 -10.5s11 -16.167 11 -27.5s-3.66699 -20.666 -11 -27.999s-16.666 -11 -27.999 -11s-20.5 3.66699 -27.5 11s-10.5 16.666 -10.5 27.999z" />
    <glyph glyph-name="dotlessi" unicode="&#x131;" horiz-adv-x="194"
d="M153 495v-495h-111v495h111z" />
    <glyph glyph-name="Jcircumflex" unicode="&#x134;" horiz-adv-x="271"
d="M-7 34l4.00195 4.00098c11.333 -10.667 23.666 -19.334 36.999 -26.001s25.666 -10 36.999 -10c13.333 0 23.666 5.5 30.999 16.5s11 25.833 11 44.5v636h120v-543c0 -23.333 -3.5 -45 -10.5 -65s-16.667 -37.5 -29 -52.5s-26.833 -26.833 -43.5 -35.5
s-34.667 -13 -54 -13c-37.333 0 -71.666 14.667 -102.999 44zM171.002 853.001h6l97 -114h-6l-95 50l-94 -50h-6z" />
    <glyph glyph-name="jcircumflex" unicode="&#x135;" horiz-adv-x="225"
d="M185 46c0 -24 -2.66406 -46.168 -7.99707 -66.501s-14 -39.166 -26 -56.499s-27.333 -33.833 -46 -49.5s-41.667 -31.5 -69 -47.5l-3 4c7.33301 6.66699 13.666 12.667 18.999 18s9.66602 11.5 12.999 18.5s5.66602 15.5 6.99902 25.5s2 22.667 2 38v565h111v-449z
M126.003 683.999h6l97 -114h-6l-95 50l-94 -50h-6z" />
    <glyph glyph-name="uni0136" unicode="&#x136;" horiz-adv-x="412"
d="M159 0h-121v699h121v-699zM185 356v4l162 339h9l-100 -207l164 -492h-125zM255 -110c-5.33301 -2.66699 -10.334 -4.83301 -15.001 -6.5s-9.66699 -2.5 -15 -2.5c-12 0 -21.833 4 -29.5 12s-11.5 18.333 -11.5 31c0 13.333 4 24 12 32s18.667 12 32 12
c14.667 0 26.167 -5.5 34.5 -16.5s12.5 -26.5 12.5 -46.5c0 -23.333 -6.16699 -42.333 -18.5 -57s-30.5 -23.667 -54.5 -27l-1 6c20 2.66699 35.333 10 46 22s13.334 25.667 8.00098 41z" />
    <glyph glyph-name="uni0137" unicode="&#x137;" horiz-adv-x="366"
d="M143 0h-111v699h111v-699zM230 390l145 -390h-115l-96 295v5l125 195h9zM232 -110c-5.33301 -2.66699 -10.334 -4.83301 -15.001 -6.5s-9.66699 -2.5 -15 -2.5c-12 0 -21.833 4 -29.5 12s-11.5 18.333 -11.5 31c0 13.333 4 24 12 32s18.667 12 32 12
c14.667 0 26.167 -5.5 34.5 -16.5s12.5 -26.5 12.5 -46.5c0 -23.333 -6.16699 -42.333 -18.5 -57s-30.5 -23.667 -54.5 -27l-1 6c20 2.66699 35.333 10 46 22s13.334 25.667 8.00098 41z" />
    <glyph glyph-name="kgreenlandic" unicode="&#x138;" horiz-adv-x="365"
d="M143 495v-495h-111v495h111zM230 392l145 -392h-115l-96 295v5l125 195h8z" />
    <glyph glyph-name="Lacute" unicode="&#x139;" horiz-adv-x="263"
d="M158 699v-693h113v-6h-233v699h120zM80 739l33 114h80l-107 -114h-6z" />
    <glyph glyph-name="lacute" unicode="&#x13a;" horiz-adv-x="175"
d="M36 699h111v-699h-111v699zM74 739l33 114h80l-107 -114h-6z" />
    <glyph glyph-name="uni013B" unicode="&#x13b;" horiz-adv-x="263"
d="M158 699v-693h113v-6h-233v699h120zM183 -110c-5.33301 -2.66699 -10.334 -4.83301 -15.001 -6.5s-9.66699 -2.5 -15 -2.5c-12 0 -21.833 4 -29.5 12s-11.5 18.333 -11.5 31c0 13.333 4 24 12 32s18.667 12 32 12c14.667 0 26.167 -5.5 34.5 -16.5s12.5 -26.5 12.5 -46.5
c0 -23.333 -6.16699 -42.333 -18.5 -57s-30.5 -23.667 -54.5 -27l-1 6c20 2.66699 35.333 10 46 22s13.334 25.667 8.00098 41z" />
    <glyph glyph-name="uni013C" unicode="&#x13c;" horiz-adv-x="175"
d="M36 699h111v-699h-111v699zM121 -110c-5.33301 -2.66699 -10.334 -4.83301 -15.001 -6.5s-9.66699 -2.5 -15 -2.5c-12 0 -21.833 4 -29.5 12s-11.5 18.333 -11.5 31c0 13.333 4 24 12 32s18.667 12 32 12c14.667 0 26.167 -5.5 34.5 -16.5s12.5 -26.5 12.5 -46.5
c0 -23.333 -6.16699 -42.333 -18.5 -57s-30.5 -23.667 -54.5 -27l-1 6c20 2.66699 35.333 10 46 22s13.334 25.667 8.00098 41z" />
    <glyph glyph-name="Lcaron" unicode="&#x13d;" horiz-adv-x="263"
d="M193 585l23 114h65l-82 -114h-6zM158 699v-693h113v-6h-233v699h120z" />
    <glyph glyph-name="lcaron" unicode="&#x13e;" horiz-adv-x="180"
d="M36 699h111v-699h-111v699zM185 585h-6l23 114h65z" />
    <glyph glyph-name="Ldot" unicode="&#x13f;" horiz-adv-x="300"
d="M158 699v-693h113v-6h-233v699h120zM214 354c0 13.333 4.33301 24.333 13 33s19.667 13 33 13s24.666 -4.33301 33.999 -13s14 -19.667 14 -33s-4.66699 -24.5 -14 -33.5s-20.666 -13.5 -33.999 -13.5s-24.333 4.33301 -33 13s-13 20 -13 34z" />
    <glyph glyph-name="ldot" unicode="&#x140;" horiz-adv-x="292"
d="M36 699h111v-699h-111v699zM188 354c0 13.333 4.33301 24.333 13 33s19.667 13 33 13s24.666 -4.33301 33.999 -13s14 -19.667 14 -33s-4.66699 -24.5 -14 -33.5s-20.666 -13.5 -33.999 -13.5s-24.333 4.33301 -33 13s-13 20 -13 34z" />
    <glyph glyph-name="Lslash" unicode="&#x141;" horiz-adv-x="272"
d="M166 699v-314l86 47l3 -5l-89 -49v-372h112v-6h-232v314l-38 -21l-3 5l41 22v379h120z" />
    <glyph glyph-name="lslash" unicode="&#x142;" horiz-adv-x="175"
d="M36 347l-35 -19l-3 5l38 20v346h111v-288l33 18l2 -5l-35 -19v-405h-111v347z" />
    <glyph glyph-name="Nacute" unicode="&#x143;" horiz-adv-x="360"
d="M319 272h2v427h6v-699h-30l-256 650h-2v-650h-6v699h117zM165 739l33 114h80l-107 -114h-6z" />
    <glyph glyph-name="nacute" unicode="&#x144;" horiz-adv-x="353"
d="M146 433c9.33301 25.333 20.332 43.668 32.999 55.001s28.334 17 47.001 17c14 0 27 -2.83301 39 -8.5s22.5 -13.334 31.5 -23.001s16.167 -21 21.5 -34s8 -26.833 8 -41.5v-398h-118v450c0 25.333 -4.66699 38 -14 38c-4.66699 0 -10 -3 -16 -9s-11.5 -13.5 -16.5 -22.5
s-9.16699 -18.5 -12.5 -28.5s-5 -19.333 -5 -28v-400h-111v495h111v-62h2zM169.999 570.002l33 114h80l-107 -114h-6z" />
    <glyph glyph-name="uni0145" unicode="&#x145;" horiz-adv-x="360"
d="M319 272h2v427h6v-699h-30l-256 650h-2v-650h-6v699h117zM201 -110c-5.33301 -2.66699 -10.334 -4.83301 -15.001 -6.5s-9.66699 -2.5 -15 -2.5c-12 0 -21.833 4 -29.5 12s-11.5 18.333 -11.5 31c0 13.333 4 24 12 32s18.667 12 32 12c14.667 0 26.167 -5.5 34.5 -16.5
s12.5 -26.5 12.5 -46.5c0 -23.333 -6.16699 -42.333 -18.5 -57s-30.5 -23.667 -54.5 -27l-1 6c20 2.66699 35.333 10 46 22s13.334 25.667 8.00098 41z" />
    <glyph glyph-name="uni0146" unicode="&#x146;" horiz-adv-x="353"
d="M146 433c9.33301 25.333 20.332 43.668 32.999 55.001s28.334 17 47.001 17c14 0 27 -2.83301 39 -8.5s22.5 -13.334 31.5 -23.001s16.167 -21 21.5 -34s8 -26.833 8 -41.5v-398h-118v450c0 25.333 -4.66699 38 -14 38c-4.66699 0 -10 -3 -16 -9s-11.5 -13.5 -16.5 -22.5
s-9.16699 -18.5 -12.5 -28.5s-5 -19.333 -5 -28v-400h-111v495h111v-62h2zM204.999 -109.998c-5.33301 -2.66699 -10.334 -4.83301 -15.001 -6.5s-9.66699 -2.5 -15 -2.5c-12 0 -21.833 4 -29.5 12s-11.5 18.333 -11.5 31c0 13.333 4 24 12 32s18.667 12 32 12
c14.667 0 26.167 -5.5 34.5 -16.5s12.5 -26.5 12.5 -46.5c0 -23.333 -6.16699 -42.333 -18.5 -57s-30.5 -23.667 -54.5 -27l-1 6c20 2.66699 35.333 10 46 22s13.334 25.667 8.00098 41z" />
    <glyph glyph-name="Ncaron" unicode="&#x147;" horiz-adv-x="360"
d="M319 272h2v427h6v-699h-30l-256 650h-2v-650h-6v699h117zM88 853l94 -50l95 50h6l-97 -114h-6l-98 114h6z" />
    <glyph glyph-name="ncaron" unicode="&#x148;" horiz-adv-x="353"
d="M146 433c9.33301 25.333 20.332 43.668 32.999 55.001s28.334 17 47.001 17c14 0 27 -2.83301 39 -8.5s22.5 -13.334 31.5 -23.001s16.167 -21 21.5 -34s8 -26.833 8 -41.5v-398h-118v450c0 25.333 -4.66699 38 -14 38c-4.66699 0 -10 -3 -16 -9s-11.5 -13.5 -16.5 -22.5
s-9.16699 -18.5 -12.5 -28.5s-5 -19.333 -5 -28v-400h-111v495h111v-62h2zM92.999 684.002l94 -50l95 50h6l-97 -114h-6l-98 114h6z" />
    <glyph glyph-name="Eng" unicode="&#x14a;" horiz-adv-x="360"
d="M321 699l6 0.00488281v-710c0 -41.333 -5.33301 -74.833 -16 -100.5s-28 -46.834 -52 -63.501l-3 4c7.33301 5.33301 13.5 10.666 18.5 15.999s9.16699 11.666 12.5 18.999s5.83301 16.166 7.5 26.499s2.5 23.166 2.5 38.499v71l-256 650h-2v-650h-6v699h117l169 -431h2
v431z" />
    <glyph glyph-name="eng" unicode="&#x14b;" horiz-adv-x="358"
d="M226 505c14 0 27.002 -2.83203 39.002 -8.49902s22.5 -13.334 31.5 -23.001s16.167 -21 21.5 -34s8 -26.833 8 -41.5v-352c0 -23.333 -2.83301 -45 -8.5 -65s-14.667 -38.667 -27 -56s-28.5 -34.166 -48.5 -50.499s-44 -32.5 -72 -48.5l-3 4
c7.33301 6.66699 13.666 12.667 18.999 18s9.66602 11.5 12.999 18.5s5.66602 15.5 6.99902 25.5s2 22.667 2 38v520c0 25.333 -4.66699 38 -14 38c-4.66699 0 -10 -3 -16 -9s-11.5 -13.5 -16.5 -22.5s-9.16699 -18.5 -12.5 -28.5s-5 -19.333 -5 -28v-400h-111v495h111v-62
h2c9.33301 25.333 20.333 43.666 33 54.999s28.334 17 47.001 17z" />
    <glyph glyph-name="Omacron" unicode="&#x14c;" horiz-adv-x="405"
d="M33 523c0 26.667 4.33203 51.3311 12.999 73.998s20.5 42.334 35.5 59.001s32.833 29.667 53.5 39s43.334 14 68.001 14s47.5 -4.66699 68.5 -14s39 -22.166 54 -38.499s26.667 -35.833 35 -58.5s12.5 -47.667 12.5 -75v-342c0 -28 -4.16699 -53.667 -12.5 -77
s-20 -43.5 -35 -60.5s-33 -30.167 -54 -39.5s-43.833 -14 -68.5 -14s-47.5 4.66699 -68.5 14s-39 22.5 -54 39.5s-26.667 37.167 -35 60.5s-12.5 49 -12.5 77v342zM153.999 81.9971c0 -30 3.83301 -51.834 11.5 -65.501s20.167 -20.5 37.5 -20.5s29.833 6.66699 37.5 20
s11.5 35.333 11.5 66v531c0 32 -3.83301 55 -11.5 69s-20.167 21 -37.5 21s-29.833 -7.16699 -37.5 -21.5s-11.5 -37.166 -11.5 -68.499v-531zM285.999 789.996h-167v6h167v-6z" />
    <glyph glyph-name="omacron" unicode="&#x14d;" horiz-adv-x="351"
d="M174 505c20 0 39 -4 57 -12s33.833 -18.667 47.5 -32s24.5 -28.833 32.5 -46.5s12 -36.167 12 -55.5v-227c0 -18.667 -3.83301 -36.667 -11.5 -54s-18.167 -32.5 -31.5 -45.5s-28.833 -23.333 -46.5 -31s-36.5 -11.5 -56.5 -11.5s-39 3.83301 -57 11.5
s-33.833 18 -47.5 31s-24.5 28.167 -32.5 45.5s-12 35.333 -12 54v227c0 19.333 4 37.833 12 55.5s18.667 33.167 32 46.5s28.833 24 46.5 32s36.167 12 55.5 12zM176 499c-9.33301 0 -17.166 -4.33301 -23.499 -13s-9.5 -19.667 -9.5 -33v-413
c0 -13.333 3.16699 -24 9.5 -32s14.166 -12 23.499 -12c10 0 17.833 4 23.5 12s8.5 18.667 8.5 32v413c0 13.333 -3 24.333 -9 33s-13.667 13 -23 13zM256 621h-167v6h167v-6z" />
    <glyph glyph-name="Obreve" unicode="&#x14e;" horiz-adv-x="405"
d="M33 523c0 26.667 4.33203 51.3311 12.999 73.998s20.5 42.334 35.5 59.001s32.833 29.667 53.5 39s43.334 14 68.001 14s47.5 -4.66699 68.5 -14s39 -22.166 54 -38.499s26.667 -35.833 35 -58.5s12.5 -47.667 12.5 -75v-342c0 -28 -4.16699 -53.667 -12.5 -77
s-20 -43.5 -35 -60.5s-33 -30.167 -54 -39.5s-43.833 -14 -68.5 -14s-47.5 4.66699 -68.5 14s-39 22.5 -54 39.5s-26.667 37.167 -35 60.5s-12.5 49 -12.5 77v342zM153.999 81.9971c0 -30 3.83301 -51.834 11.5 -65.501s20.167 -20.5 37.5 -20.5s29.833 6.66699 37.5 20
s11.5 35.333 11.5 66v531c0 32 -3.83301 55 -11.5 69s-20.167 21 -37.5 21s-29.833 -7.16699 -37.5 -21.5s-11.5 -37.166 -11.5 -68.499v-531zM281.999 841.996l6.00195 -0.000976562c0 -30 -8 -54.333 -24 -73s-36.333 -28 -61 -28s-44.834 9.33301 -60.501 28
s-23.5 43 -23.5 73h6c0 -14 7.66699 -26 23 -36s34 -15 56 -15c21.333 0 39.666 4.83301 54.999 14.5s23 21.834 23 36.501z" />
    <glyph glyph-name="obreve" unicode="&#x14f;" horiz-adv-x="351"
d="M174 505c20 0 39 -4 57 -12s33.833 -18.667 47.5 -32s24.5 -28.833 32.5 -46.5s12 -36.167 12 -55.5v-227c0 -18.667 -3.83301 -36.667 -11.5 -54s-18.167 -32.5 -31.5 -45.5s-28.833 -23.333 -46.5 -31s-36.5 -11.5 -56.5 -11.5s-39 3.83301 -57 11.5
s-33.833 18 -47.5 31s-24.5 28.167 -32.5 45.5s-12 35.333 -12 54v227c0 19.333 4 37.833 12 55.5s18.667 33.167 32 46.5s28.833 24 46.5 32s36.167 12 55.5 12zM176 499c-9.33301 0 -17.166 -4.33301 -23.499 -13s-9.5 -19.667 -9.5 -33v-413
c0 -13.333 3.16699 -24 9.5 -32s14.166 -12 23.499 -12c10 0 17.833 4 23.5 12s8.5 18.667 8.5 32v413c0 13.333 -3 24.333 -9 33s-13.667 13 -23 13zM252 673l6.00195 -0.000976562c0 -30 -8 -54.333 -24 -73s-36.333 -28 -61 -28s-44.834 9.33301 -60.501 28
s-23.5 43 -23.5 73h6c0 -14 7.66699 -26 23 -36s34 -15 56 -15c21.333 0 39.666 4.83301 54.999 14.5s23 21.834 23 36.501z" />
    <glyph glyph-name="Ohungarumlaut" unicode="&#x150;" horiz-adv-x="405"
d="M33 523c0 26.667 4.33203 51.3311 12.999 73.998s20.5 42.334 35.5 59.001s32.833 29.667 53.5 39s43.334 14 68.001 14s47.5 -4.66699 68.5 -14s39 -22.166 54 -38.499s26.667 -35.833 35 -58.5s12.5 -47.667 12.5 -75v-342c0 -28 -4.16699 -53.667 -12.5 -77
s-20 -43.5 -35 -60.5s-33 -30.167 -54 -39.5s-43.833 -14 -68.5 -14s-47.5 4.66699 -68.5 14s-39 22.5 -54 39.5s-26.667 37.167 -35 60.5s-12.5 49 -12.5 77v342zM153.999 81.9971c0 -30 3.83301 -51.834 11.5 -65.501s20.167 -20.5 37.5 -20.5s29.833 6.66699 37.5 20
s11.5 35.333 11.5 66v531c0 32 -3.83301 55 -11.5 69s-20.167 21 -37.5 21s-29.833 -7.16699 -37.5 -21.5s-11.5 -37.166 -11.5 -68.499v-531zM244.999 738.996l33 114h71l-98 -114h-6zM139.999 738.996l33 114h70l-97 -114h-6z" />
    <glyph glyph-name="ohungarumlaut" unicode="&#x151;" horiz-adv-x="351"
d="M174 505c20 0 39 -4 57 -12s33.833 -18.667 47.5 -32s24.5 -28.833 32.5 -46.5s12 -36.167 12 -55.5v-227c0 -18.667 -3.83301 -36.667 -11.5 -54s-18.167 -32.5 -31.5 -45.5s-28.833 -23.333 -46.5 -31s-36.5 -11.5 -56.5 -11.5s-39 3.83301 -57 11.5
s-33.833 18 -47.5 31s-24.5 28.167 -32.5 45.5s-12 35.333 -12 54v227c0 19.333 4 37.833 12 55.5s18.667 33.167 32 46.5s28.833 24 46.5 32s36.167 12 55.5 12zM176 499c-9.33301 0 -17.166 -4.33301 -23.499 -13s-9.5 -19.667 -9.5 -33v-413
c0 -13.333 3.16699 -24 9.5 -32s14.166 -12 23.499 -12c10 0 17.833 4 23.5 12s8.5 18.667 8.5 32v413c0 13.333 -3 24.333 -9 33s-13.667 13 -23 13zM216 570l33 114h71l-98 -114h-6zM111 570l33 114h70l-97 -114h-6z" />
    <glyph glyph-name="OE" unicode="&#x152;" horiz-adv-x="521"
d="M33 513c0 26.667 4.33203 51.332 12.999 73.999s20.5 42.334 35.5 59.001s33 29.667 54 39s43.833 14 68.5 14h299v-6h-121v-333h100v-6h-100v-348h121v-6h-299c-24.667 0 -47.5 4.66699 -68.5 14s-39.167 22.5 -54.5 39.5s-27.166 37.167 -35.499 60.5
s-12.5 49 -12.5 77v322zM153.999 602.998l-0.000976562 -510.999c0 -22.667 4 -42.667 12 -60s20.667 -26 38 -26h57v687h-52c-9.33301 0 -17.5 -2.5 -24.5 -7.5s-12.667 -11.833 -17 -20.5s-7.66602 -18.334 -9.99902 -29.001s-3.5 -21.667 -3.5 -33z" />
    <glyph glyph-name="oe" unicode="&#x153;" horiz-adv-x="522"
d="M176 505c16 0 31.499 -2.5 46.499 -7.5s29.167 -12.833 42.5 -23.5h2c26 20.667 55.333 31 88 31c20.667 0 40 -4 58 -12s33.667 -18.833 47 -32.5s23.833 -29.5 31.5 -47.5s11.5 -37.333 11.5 -58v-106h-179v-186c0 -20 5.16699 -35.667 15.5 -47s24.5 -17 42.5 -17
c11.333 0 23 2.33301 35 7s23.167 11 33.5 19s19.833 17.333 28.5 28s15.334 22 20.001 34l5 -2c-13.333 -30 -32.5 -53.333 -57.5 -70s-53.5 -25 -85.5 -25c-36 0 -67 10 -93 30h-2c-26 -20 -55 -30 -87 -30c-20 0 -39.167 3.83301 -57.5 11.5s-34.5 18 -48.5 31
s-25 28.167 -33 45.5s-12 35.333 -12 54v227c0 19.333 4 37.833 12 55.5s18.667 33.167 32 46.5s29 24 47 32s37 12 57 12zM207.999 453c0 12 -3.16699 22.667 -9.5 32s-13.833 14 -22.5 14s-16.334 -4.66699 -23.001 -14s-10 -20 -10 -32v-413
c0 -11.333 3.33301 -21.5 10 -30.5s14.334 -13.5 23.001 -13.5c9.33301 0 17 4.33301 23 13s9 19 9 31v413zM323.999 452v-197h64v197c0 13.333 -3.16699 24.5 -9.5 33.5s-13.833 13.5 -22.5 13.5c-9.33301 0 -17 -4.5 -23 -13.5s-9 -20.167 -9 -33.5z" />
    <glyph glyph-name="Racute" unicode="&#x154;" horiz-adv-x="396"
d="M192 699c22.667 0 43.502 -4.16797 62.502 -12.501s35.5 -19.666 49.5 -33.999s25 -31 33 -50s12 -39.167 12 -60.5v-39c0 -19.333 -3.33301 -37.833 -10 -55.5s-15.834 -33.5 -27.501 -47.5s-25.667 -25.5 -42 -34.5s-34.5 -14.833 -54.5 -17.5v-3c14 0 27.5 -3 40.5 -9
s24.667 -14 35 -24s19.166 -21.5 26.499 -34.5s12 -27.167 14 -42.5l37 -235h-123l-39 268c-2.66699 16 -5.16699 29.167 -7.5 39.5s-5 18.333 -8 24s-6.66699 9.5 -11 11.5s-9.83301 3 -16.5 3h-5v-346h-120v699h154zM229.002 577.999c0 42.667 -3.66699 72.499 -11 89.499
s-18.666 25.5 -33.999 25.5h-26v-341h29c15.333 0 26.166 8.33301 32.499 25s9.5 46.334 9.5 89.001v112zM148.002 738.998l33 114h80l-107 -114h-6z" />
    <glyph glyph-name="racute" unicode="&#x155;" horiz-adv-x="255"
d="M143 495l0.000976562 -97.999h3c4.66699 31.333 16.5 57.166 35.5 77.499s41.167 30.5 66.5 30.5v-98c-11.333 4.66699 -24.333 7 -39 7c-12.667 0 -24.834 -2 -36.501 -6s-21.5 -10 -29.5 -18v-390h-110v495h110zM123.001 570.001l33 114h80l-107 -114h-6z" />
    <glyph glyph-name="uni0156" unicode="&#x156;" horiz-adv-x="396"
d="M192 699c22.667 0 43.502 -4.16797 62.502 -12.501s35.5 -19.666 49.5 -33.999s25 -31 33 -50s12 -39.167 12 -60.5v-39c0 -19.333 -3.33301 -37.833 -10 -55.5s-15.834 -33.5 -27.501 -47.5s-25.667 -25.5 -42 -34.5s-34.5 -14.833 -54.5 -17.5v-3c14 0 27.5 -3 40.5 -9
s24.667 -14 35 -24s19.166 -21.5 26.499 -34.5s12 -27.167 14 -42.5l37 -235h-123l-39 268c-2.66699 16 -5.16699 29.167 -7.5 39.5s-5 18.333 -8 24s-6.66699 9.5 -11 11.5s-9.83301 3 -16.5 3h-5v-346h-120v699h154zM229.002 577.999c0 42.667 -3.66699 72.499 -11 89.499
s-18.666 25.5 -33.999 25.5h-26v-341h29c15.333 0 26.166 8.33301 32.499 25s9.5 46.334 9.5 89.001v112zM223.002 -110.002c-5.33301 -2.66699 -10.334 -4.83301 -15.001 -6.5s-9.66699 -2.5 -15 -2.5c-12 0 -21.833 4 -29.5 12s-11.5 18.333 -11.5 31c0 13.333 4 24 12 32
s18.667 12 32 12c14.667 0 26.167 -5.5 34.5 -16.5s12.5 -26.5 12.5 -46.5c0 -23.333 -6.16699 -42.333 -18.5 -57s-30.5 -23.667 -54.5 -27l-1 6c20 2.66699 35.333 10 46 22s13.334 25.667 8.00098 41z" />
    <glyph glyph-name="uni0157" unicode="&#x157;" horiz-adv-x="255"
d="M143 495l0.000976562 -97.999h3c4.66699 31.333 16.5 57.166 35.5 77.499s41.167 30.5 66.5 30.5v-98c-11.333 4.66699 -24.333 7 -39 7c-12.667 0 -24.834 -2 -36.501 -6s-21.5 -10 -29.5 -18v-390h-110v495h110zM120.001 -109.999
c-5.33301 -2.66699 -10.334 -4.83301 -15.001 -6.5s-9.66699 -2.5 -15 -2.5c-12 0 -21.833 4 -29.5 12s-11.5 18.333 -11.5 31c0 13.333 4 24 12 32s18.667 12 32 12c14.667 0 26.167 -5.5 34.5 -16.5s12.5 -26.5 12.5 -46.5c0 -23.333 -6.16699 -42.333 -18.5 -57
s-30.5 -23.667 -54.5 -27l-1 6c20 2.66699 35.333 10 46 22s13.334 25.667 8.00098 41z" />
    <glyph glyph-name="Rcaron" unicode="&#x158;" horiz-adv-x="396"
d="M192 699c22.667 0 43.502 -4.16797 62.502 -12.501s35.5 -19.666 49.5 -33.999s25 -31 33 -50s12 -39.167 12 -60.5v-39c0 -19.333 -3.33301 -37.833 -10 -55.5s-15.834 -33.5 -27.501 -47.5s-25.667 -25.5 -42 -34.5s-34.5 -14.833 -54.5 -17.5v-3c14 0 27.5 -3 40.5 -9
s24.667 -14 35 -24s19.166 -21.5 26.499 -34.5s12 -27.167 14 -42.5l37 -235h-123l-39 268c-2.66699 16 -5.16699 29.167 -7.5 39.5s-5 18.333 -8 24s-6.66699 9.5 -11 11.5s-9.83301 3 -16.5 3h-5v-346h-120v699h154zM229.002 577.999c0 42.667 -3.66699 72.499 -11 89.499
s-18.666 25.5 -33.999 25.5h-26v-341h29c15.333 0 26.166 8.33301 32.499 25s9.5 46.334 9.5 89.001v112zM72.002 852.998l94 -50l95 50h6l-97 -114h-6l-98 114h6z" />
    <glyph glyph-name="rcaron" unicode="&#x159;" horiz-adv-x="255"
d="M143 495l0.000976562 -97.999h3c4.66699 31.333 16.5 57.166 35.5 77.499s41.167 30.5 66.5 30.5v-98c-11.333 4.66699 -24.333 7 -39 7c-12.667 0 -24.834 -2 -36.501 -6s-21.5 -10 -29.5 -18v-390h-110v495h110zM47.001 684.001l94 -50l95 50h6l-97 -114h-6l-98 114h6z
" />
    <glyph glyph-name="Sacute" unicode="&#x15a;" horiz-adv-x="337"
d="M203 79c0 34.667 -11 76.9951 -33 126.995l-107 261c-14.667 36 -22 69.667 -22 101c0 21.333 3.16699 40.5 9.5 57.5s15.333 31.833 27 44.5s25.667 22.334 42 29.001s34.5 10 54.5 10c50.667 0 93.334 -21 128.001 -63l-4 -4c-12.667 16 -28 29.333 -46 40
s-34.333 16 -49 16c-16.667 0 -29.667 -6.5 -39 -19.5s-14 -31.167 -14 -54.5c0 -29.333 9.66699 -67.333 29 -114l124 -307c5.33301 -13.333 9.33301 -26.166 12 -38.499s4 -24.166 4 -35.499c0 -19.333 -4 -37.5 -12 -54.5s-18.833 -31.667 -32.5 -44
s-29.834 -22.166 -48.501 -29.499s-38.667 -11 -60 -11c-22 0 -44.667 3.5 -68 10.5s-45 16.833 -65 29.5l3 5c18 -11.333 36.5 -20.166 55.5 -26.499s35.5 -9.5 49.5 -9.5c41.333 0 62 26.667 62 80zM154 738.995l33 114h80l-107 -114h-6z" />
    <glyph glyph-name="sacute" unicode="&#x15b;" horiz-adv-x="280"
d="M256 456c-11.333 12 -24.167 21.499 -38.5 28.499s-28.166 10.5 -41.499 10.5c-17.333 0 -31.333 -5.5 -42 -16.5s-16 -24.833 -16 -41.5c0 -16 5.66699 -34.333 17 -55l122 -218c12.667 -23.333 19 -43.666 19 -60.999c0 -16 -3.66699 -30.833 -11 -44.5
s-17.5 -25.5 -30.5 -35.5s-28.167 -18 -45.5 -24s-35.666 -9 -54.999 -9c-48.667 0 -88 17.667 -118 53l5 4c11.333 -14 25.666 -25.5 42.999 -34.5s33.666 -13.5 48.999 -13.5c16.667 0 30.167 5 40.5 15s15.5 23.333 15.5 40c0 22 -10 50 -30 84l-98 173
c-16 28 -24 54.333 -24 79c0 16 3.5 31 10.5 45s16.5 26.167 28.5 36.5s26.167 18.5 42.5 24.5s33.833 9 52.5 9c43.333 0 80 -15 110 -45zM122.999 569.999l33 114h80l-107 -114h-6z" />
    <glyph glyph-name="Scircumflex" unicode="&#x15c;" horiz-adv-x="337"
d="M203 79c0 34.667 -11 76.9951 -33 126.995l-107 261c-14.667 36 -22 69.667 -22 101c0 21.333 3.16699 40.5 9.5 57.5s15.333 31.833 27 44.5s25.667 22.334 42 29.001s34.5 10 54.5 10c50.667 0 93.334 -21 128.001 -63l-4 -4c-12.667 16 -28 29.333 -46 40
s-34.333 16 -49 16c-16.667 0 -29.667 -6.5 -39 -19.5s-14 -31.167 -14 -54.5c0 -29.333 9.66699 -67.333 29 -114l124 -307c5.33301 -13.333 9.33301 -26.166 12 -38.499s4 -24.166 4 -35.499c0 -19.333 -4 -37.5 -12 -54.5s-18.833 -31.667 -32.5 -44
s-29.834 -22.166 -48.501 -29.499s-38.667 -11 -60 -11c-22 0 -44.667 3.5 -68 10.5s-45 16.833 -65 29.5l3 5c18 -11.333 36.5 -20.166 55.5 -26.499s35.5 -9.5 49.5 -9.5c41.333 0 62 26.667 62 80zM169 852.995h6l97 -114h-6l-95 50l-94 -50h-6z" />
    <glyph glyph-name="scircumflex" unicode="&#x15d;" horiz-adv-x="280"
d="M256 456c-11.333 12 -24.167 21.499 -38.5 28.499s-28.166 10.5 -41.499 10.5c-17.333 0 -31.333 -5.5 -42 -16.5s-16 -24.833 -16 -41.5c0 -16 5.66699 -34.333 17 -55l122 -218c12.667 -23.333 19 -43.666 19 -60.999c0 -16 -3.66699 -30.833 -11 -44.5
s-17.5 -25.5 -30.5 -35.5s-28.167 -18 -45.5 -24s-35.666 -9 -54.999 -9c-48.667 0 -88 17.667 -118 53l5 4c11.333 -14 25.666 -25.5 42.999 -34.5s33.666 -13.5 48.999 -13.5c16.667 0 30.167 5 40.5 15s15.5 23.333 15.5 40c0 22 -10 50 -30 84l-98 173
c-16 28 -24 54.333 -24 79c0 16 3.5 31 10.5 45s16.5 26.167 28.5 36.5s26.167 18.5 42.5 24.5s33.833 9 52.5 9c43.333 0 80 -15 110 -45zM137.999 683.999h6l97 -114h-6l-95 50l-94 -50h-6z" />
    <glyph glyph-name="Scedilla" unicode="&#x15e;" horiz-adv-x="337"
d="M203 79c0 34.667 -11 76.9951 -33 126.995l-107 261c-14.667 36 -22 69.667 -22 101c0 21.333 3.16699 40.5 9.5 57.5s15.333 31.833 27 44.5s25.667 22.334 42 29.001s34.5 10 54.5 10c50.667 0 93.334 -21 128.001 -63l-4 -4c-12.667 16 -28 29.333 -46 40
s-34.333 16 -49 16c-16.667 0 -29.667 -6.5 -39 -19.5s-14 -31.167 -14 -54.5c0 -29.333 9.66699 -67.333 29 -114l124 -307c5.33301 -13.333 9.33301 -26.166 12 -38.499s4 -24.166 4 -35.499c0 -19.333 -4 -37.5 -12 -54.5s-18.833 -31.667 -32.5 -44
s-29.834 -22.166 -48.501 -29.499s-38.667 -11 -60 -11c-22 0 -44.667 3.5 -68 10.5s-45 16.833 -65 29.5l3 5c18 -11.333 36.5 -20.166 55.5 -26.499s35.5 -9.5 49.5 -9.5c41.333 0 62 26.667 62 80zM109 -98.0049c6 -8 14.1689 -14.499 24.502 -19.499
s20.5 -7.5 30.5 -7.5c22.667 0 34 11 34 33c0 23.333 -17.667 38 -53 44l21 45h7l-13 -30c27.333 -0.666992 49.666 -6.33398 66.999 -17.001s26 -24 26 -40c0 -14 -6.33301 -25.667 -19 -35s-28.334 -14 -47.001 -14c-16 0 -31.333 3.33301 -46 10s-27 15.667 -37 27z" />
    <glyph glyph-name="scedilla" unicode="&#x15f;" horiz-adv-x="280"
d="M256 456c-11.333 12 -24.167 21.499 -38.5 28.499s-28.166 10.5 -41.499 10.5c-17.333 0 -31.333 -5.5 -42 -16.5s-16 -24.833 -16 -41.5c0 -16 5.66699 -34.333 17 -55l122 -218c12.667 -23.333 19 -43.666 19 -60.999c0 -16 -3.66699 -30.833 -11 -44.5
s-17.5 -25.5 -30.5 -35.5s-28.167 -18 -45.5 -24s-35.666 -9 -54.999 -9c-48.667 0 -88 17.667 -118 53l5 4c11.333 -14 25.666 -25.5 42.999 -34.5s33.666 -13.5 48.999 -13.5c16.667 0 30.167 5 40.5 15s15.5 23.333 15.5 40c0 22 -10 50 -30 84l-98 173
c-16 28 -24 54.333 -24 79c0 16 3.5 31 10.5 45s16.5 26.167 28.5 36.5s26.167 18.5 42.5 24.5s33.833 9 52.5 9c43.333 0 80 -15 110 -45zM73.999 -98.001c6 -8 14.1689 -14.499 24.502 -19.499s20.5 -7.5 30.5 -7.5c22.667 0 34 11 34 33c0 23.333 -17.667 38 -53 44
l21 45h7l-13 -30c27.333 -0.666992 49.666 -6.33398 66.999 -17.001s26 -24 26 -40c0 -14 -6.33301 -25.667 -19 -35s-28.334 -14 -47.001 -14c-16 0 -31.333 3.33301 -46 10s-27 15.667 -37 27z" />
    <glyph glyph-name="Scaron" unicode="&#x160;" horiz-adv-x="337"
d="M203 79c0 34.667 -11 76.9951 -33 126.995l-107 261c-14.667 36 -22 69.667 -22 101c0 21.333 3.16699 40.5 9.5 57.5s15.333 31.833 27 44.5s25.667 22.334 42 29.001s34.5 10 54.5 10c50.667 0 93.334 -21 128.001 -63l-4 -4c-12.667 16 -28 29.333 -46 40
s-34.333 16 -49 16c-16.667 0 -29.667 -6.5 -39 -19.5s-14 -31.167 -14 -54.5c0 -29.333 9.66699 -67.333 29 -114l124 -307c5.33301 -13.333 9.33301 -26.166 12 -38.499s4 -24.166 4 -35.499c0 -19.333 -4 -37.5 -12 -54.5s-18.833 -31.667 -32.5 -44
s-29.834 -22.166 -48.501 -29.499s-38.667 -11 -60 -11c-22 0 -44.667 3.5 -68 10.5s-45 16.833 -65 29.5l3 5c18 -11.333 36.5 -20.166 55.5 -26.499s35.5 -9.5 49.5 -9.5c41.333 0 62 26.667 62 80zM77 852.995l94 -50l95 50h6l-97 -114h-6l-98 114h6z" />
    <glyph glyph-name="scaron" unicode="&#x161;" horiz-adv-x="280"
d="M256 456c-11.333 12 -24.167 21.499 -38.5 28.499s-28.166 10.5 -41.499 10.5c-17.333 0 -31.333 -5.5 -42 -16.5s-16 -24.833 -16 -41.5c0 -16 5.66699 -34.333 17 -55l122 -218c12.667 -23.333 19 -43.666 19 -60.999c0 -16 -3.66699 -30.833 -11 -44.5
s-17.5 -25.5 -30.5 -35.5s-28.167 -18 -45.5 -24s-35.666 -9 -54.999 -9c-48.667 0 -88 17.667 -118 53l5 4c11.333 -14 25.666 -25.5 42.999 -34.5s33.666 -13.5 48.999 -13.5c16.667 0 30.167 5 40.5 15s15.5 23.333 15.5 40c0 22 -10 50 -30 84l-98 173
c-16 28 -24 54.333 -24 79c0 16 3.5 31 10.5 45s16.5 26.167 28.5 36.5s26.167 18.5 42.5 24.5s33.833 9 52.5 9c43.333 0 80 -15 110 -45zM45.999 683.999l94 -50l95 50h6l-97 -114h-6l-98 114h6z" />
    <glyph glyph-name="uni0162" unicode="&#x162;" horiz-adv-x="327"
d="M334 693h-111v-693h-120v693h-111v6h342v-6zM102 -94c6 -8 14.1689 -14.499 24.502 -19.499s20.5 -7.5 30.5 -7.5c22.667 0 34 11 34 33c0 23.333 -17.667 38 -53 44l21 45h7l-13 -30c27.333 -0.666992 49.666 -6.33398 66.999 -17.001s26 -24 26 -40
c0 -14 -6.33301 -25.667 -19 -35s-28.334 -14 -47.001 -14c-16 0 -31.333 3.33301 -46 10s-27 15.667 -37 27z" />
    <glyph glyph-name="uni0163" unicode="&#x163;" horiz-adv-x="220"
d="M129 -10c-26 0 -46.5029 9.83203 -61.5029 29.499s-22.5 47.5 -22.5 83.5v386h-45v6h45v114l111 41v-155h80v-6h-80v-432c0 -13.333 2.33301 -23.666 7 -30.999s11.334 -11 20.001 -11c15.333 0 31.333 10.333 48 31l5 -3c-13.333 -16 -29.666 -28.833 -48.999 -38.5
s-38.666 -14.5 -57.999 -14.5zM71.9971 -98.001c6 -8 14.1689 -14.499 24.502 -19.499s20.5 -7.5 30.5 -7.5c22.667 0 34 11 34 33c0 23.333 -17.667 38 -53 44l21 45h7l-13 -30c27.333 -0.666992 49.666 -6.33398 66.999 -17.001s26 -24 26 -40
c0 -14 -6.33301 -25.667 -19 -35s-28.334 -14 -47.001 -14c-16 0 -31.333 3.33301 -46 10s-27 15.667 -37 27z" />
    <glyph glyph-name="Tcaron" unicode="&#x164;" horiz-adv-x="327"
d="M334 693h-111v-693h-120v693h-111v6h342v-6zM68 853l94 -50l95 50h6l-97 -114h-6l-98 114h6z" />
    <glyph glyph-name="tcaron" unicode="&#x165;" horiz-adv-x="220"
d="M195 585l23 114h65l-82 -114h-6zM129 -10c-26 0 -46.5029 9.83203 -61.5029 29.499s-22.5 47.5 -22.5 83.5v386h-45v6h45v114l111 41v-155h80v-6h-80v-432c0 -13.333 2.33301 -23.666 7 -30.999s11.334 -11 20.001 -11c15.333 0 31.333 10.333 48 31l5 -3
c-13.333 -16 -29.666 -28.833 -48.999 -38.5s-38.666 -14.5 -57.999 -14.5z" />
    <glyph glyph-name="Tbar" unicode="&#x166;" horiz-adv-x="327"
d="M334 693h-111v-280h81v-6h-81v-407h-120v407h-81v6h81v280h-111v6h342v-6z" />
    <glyph glyph-name="tbar" unicode="&#x167;" horiz-adv-x="220"
d="M129 -10c-26 0 -46.5029 9.83203 -61.5029 29.499s-22.5 47.5 -22.5 83.5v281h-45v6h45v99h-45v6h45v114l111 41v-155h80v-6h-80v-99h80v-6h-80v-327c0 -13.333 2.33301 -23.666 7 -30.999s11.334 -11 20.001 -11c15.333 0 31.333 10.333 48 31l5 -3
c-13.333 -16 -29.666 -28.833 -48.999 -38.5s-38.666 -14.5 -57.999 -14.5z" />
    <glyph glyph-name="Utilde" unicode="&#x168;" horiz-adv-x="368"
d="M158 699l0.000976562 -619.998c0 -24 6 -43 18 -57s28.667 -21 50 -21c30 0 54.833 12.667 74.5 38s29.5 59 29.5 101v559h6v-557c0 -46.667 -11.833 -83.834 -35.5 -111.501s-56.834 -41.5 -99.501 -41.5c-24 0 -46 4.66699 -66 14s-37.167 22.666 -51.5 39.999
s-25.5 38 -33.5 62s-12 50.667 -12 80v514h120zM109.001 765.002l-5.00098 2c18 42 41.333 63 70 63c10 0 19.333 -2 28 -6l32 -14c9.33301 -4 18.333 -6 27 -6c14.667 0 25.334 8 32.001 24l5 -3c-18 -43.333 -41.667 -65 -71 -65c-10 0 -20.333 2.33301 -31 7l-21 10
c-9.33301 4 -16.833 7 -22.5 9s-10.5 3 -14.5 3c-12 0 -21.667 -8 -29 -24z" />
    <glyph glyph-name="utilde" unicode="&#x169;" horiz-adv-x="348"
d="M207 62c-9.33301 -25.333 -20.168 -43.667 -32.501 -55s-27.833 -17 -46.5 -17c-14 0 -27 2.83301 -39 8.5s-22.5 13.5 -31.5 23.5s-16.167 21.5 -21.5 34.5s-8 26.833 -8 41.5v397h118v-449c0 -26 4.66699 -39 14 -39c5.33301 0 10.833 3 16.5 9
s10.834 13.5 15.501 22.5s8.66699 18.667 12 29s5 19.833 5 28.5v399h111v-495h-111v62h-2zM82.998 595.999l-5.00098 2c18 42 41.333 63 70 63c10 0 19.333 -2 28 -6l32 -14c9.33301 -4 18.333 -6 27 -6c14.667 0 25.334 8 32.001 24l5 -3c-18 -43.333 -41.667 -65 -71 -65
c-10 0 -20.333 2.33301 -31 7l-21 10c-9.33301 4 -16.833 7 -22.5 9s-10.5 3 -14.5 3c-12 0 -21.667 -8 -29 -24z" />
    <glyph glyph-name="Umacron" unicode="&#x16a;" horiz-adv-x="368"
d="M158 699l0.000976562 -619.998c0 -24 6 -43 18 -57s28.667 -21 50 -21c30 0 54.833 12.667 74.5 38s29.5 59 29.5 101v559h6v-557c0 -46.667 -11.833 -83.834 -35.5 -111.501s-56.834 -41.5 -99.501 -41.5c-24 0 -46 4.66699 -66 14s-37.167 22.666 -51.5 39.999
s-25.5 38 -33.5 62s-12 50.667 -12 80v514h120zM284.001 790.002h-167v6h167v-6z" />
    <glyph glyph-name="umacron" unicode="&#x16b;" horiz-adv-x="348"
d="M207 62c-9.33301 -25.333 -20.168 -43.667 -32.501 -55s-27.833 -17 -46.5 -17c-14 0 -27 2.83301 -39 8.5s-22.5 13.5 -31.5 23.5s-16.167 21.5 -21.5 34.5s-8 26.833 -8 41.5v397h118v-449c0 -26 4.66699 -39 14 -39c5.33301 0 10.833 3 16.5 9
s10.834 13.5 15.501 22.5s8.66699 18.667 12 29s5 19.833 5 28.5v399h111v-495h-111v62h-2zM257.998 620.999h-167v6h167v-6z" />
    <glyph glyph-name="Ubreve" unicode="&#x16c;" horiz-adv-x="368"
d="M158 699l0.000976562 -619.998c0 -24 6 -43 18 -57s28.667 -21 50 -21c30 0 54.833 12.667 74.5 38s29.5 59 29.5 101v559h6v-557c0 -46.667 -11.833 -83.834 -35.5 -111.501s-56.834 -41.5 -99.501 -41.5c-24 0 -46 4.66699 -66 14s-37.167 22.666 -51.5 39.999
s-25.5 38 -33.5 62s-12 50.667 -12 80v514h120zM279.001 842.002l6.00195 -0.000976562c0 -30 -8 -54.333 -24 -73s-36.333 -28 -61 -28s-44.834 9.33301 -60.501 28s-23.5 43 -23.5 73h6c0 -14 7.66699 -26 23 -36s34 -15 56 -15c21.333 0 39.666 4.83301 54.999 14.5
s23 21.834 23 36.501z" />
    <glyph glyph-name="ubreve" unicode="&#x16d;" horiz-adv-x="348"
d="M207 62c-9.33301 -25.333 -20.168 -43.667 -32.501 -55s-27.833 -17 -46.5 -17c-14 0 -27 2.83301 -39 8.5s-22.5 13.5 -31.5 23.5s-16.167 21.5 -21.5 34.5s-8 26.833 -8 41.5v397h118v-449c0 -26 4.66699 -39 14 -39c5.33301 0 10.833 3 16.5 9
s10.834 13.5 15.501 22.5s8.66699 18.667 12 29s5 19.833 5 28.5v399h111v-495h-111v62h-2zM253.998 672.999l6.00195 -0.000976562c0 -30 -8 -54.333 -24 -73s-36.333 -28 -61 -28s-44.834 9.33301 -60.501 28s-23.5 43 -23.5 73h6c0 -14 7.66699 -26 23 -36s34 -15 56 -15
c21.333 0 39.666 4.83301 54.999 14.5s23 21.834 23 36.501z" />
    <glyph glyph-name="Uring" unicode="&#x16e;" horiz-adv-x="368"
d="M158 699l0.000976562 -619.998c0 -24 6 -43 18 -57s28.667 -21 50 -21c30 0 54.833 12.667 74.5 38s29.5 59 29.5 101v559h6v-557c0 -46.667 -11.833 -83.834 -35.5 -111.501s-56.834 -41.5 -99.501 -41.5c-24 0 -46 4.66699 -66 14s-37.167 22.666 -51.5 39.999
s-25.5 38 -33.5 62s-12 50.667 -12 80v514h120zM145.001 796.002c0 15.333 5.49902 28.5 16.499 39.5s24.167 16.5 39.5 16.5c16 0 29.5 -5.5 40.5 -16.5s16.5 -24.167 16.5 -39.5c0 -16 -5.66699 -29.5 -17 -40.5s-24.666 -16.5 -39.999 -16.5s-28.5 5.5 -39.5 16.5
s-16.5 24.5 -16.5 40.5zM151 796.002c0 -14 4.83301 -26 14.5 -36s21.5 -15 35.5 -15s25.833 5 35.5 15s14.5 22 14.5 36s-4.83301 25.833 -14.5 35.5s-21.5 14.5 -35.5 14.5s-25.833 -4.83301 -35.5 -14.5s-14.5 -21.5 -14.5 -35.5z" />
    <glyph glyph-name="uring" unicode="&#x16f;" horiz-adv-x="348"
d="M207 62c-9.33301 -25.333 -20.168 -43.667 -32.501 -55s-27.833 -17 -46.5 -17c-14 0 -27 2.83301 -39 8.5s-22.5 13.5 -31.5 23.5s-16.167 21.5 -21.5 34.5s-8 26.833 -8 41.5v397h118v-449c0 -26 4.66699 -39 14 -39c5.33301 0 10.833 3 16.5 9
s10.834 13.5 15.501 22.5s8.66699 18.667 12 29s5 19.833 5 28.5v399h111v-495h-111v62h-2zM119.998 626.999c0 15.333 5.49902 28.5 16.499 39.5s24.167 16.5 39.5 16.5c16 0 29.5 -5.5 40.5 -16.5s16.5 -24.167 16.5 -39.5c0 -16 -5.66699 -29.5 -17 -40.5
s-24.666 -16.5 -39.999 -16.5s-28.5 5.5 -39.5 16.5s-16.5 24.5 -16.5 40.5zM125.997 626.999c0 -14 4.83301 -26 14.5 -36s21.5 -15 35.5 -15s25.833 5 35.5 15s14.5 22 14.5 36s-4.83301 25.833 -14.5 35.5s-21.5 14.5 -35.5 14.5s-25.833 -4.83301 -35.5 -14.5
s-14.5 -21.5 -14.5 -35.5z" />
    <glyph glyph-name="Uhungarumlaut" unicode="&#x170;" horiz-adv-x="368"
d="M158 699l0.000976562 -619.998c0 -24 6 -43 18 -57s28.667 -21 50 -21c30 0 54.833 12.667 74.5 38s29.5 59 29.5 101v559h6v-557c0 -46.667 -11.833 -83.834 -35.5 -111.501s-56.834 -41.5 -99.501 -41.5c-24 0 -46 4.66699 -66 14s-37.167 22.666 -51.5 39.999
s-25.5 38 -33.5 62s-12 50.667 -12 80v514h120zM243.001 739.002l33 114h71l-98 -114h-6zM138.001 739.002l33 114h70l-97 -114h-6z" />
    <glyph glyph-name="uhungarumlaut" unicode="&#x171;" horiz-adv-x="348"
d="M207 62c-9.33301 -25.333 -20.168 -43.667 -32.501 -55s-27.833 -17 -46.5 -17c-14 0 -27 2.83301 -39 8.5s-22.5 13.5 -31.5 23.5s-16.167 21.5 -21.5 34.5s-8 26.833 -8 41.5v397h118v-449c0 -26 4.66699 -39 14 -39c5.33301 0 10.833 3 16.5 9
s10.834 13.5 15.501 22.5s8.66699 18.667 12 29s5 19.833 5 28.5v399h111v-495h-111v62h-2zM216.998 569.999l33 114h71l-98 -114h-6zM111.998 569.999l33 114h70l-97 -114h-6z" />
    <glyph glyph-name="Uogonek" unicode="&#x172;" horiz-adv-x="368"
d="M158 699l0.000976562 -619.998c0 -24 6 -43 18 -57s28.667 -21 50 -21c30 0 54.833 12.667 74.5 38s29.5 59 29.5 101v559h6v-557c0 -46.667 -11.833 -83.834 -35.5 -111.501s-56.834 -41.5 -99.501 -41.5c-24 0 -46 4.66699 -66 14s-37.167 22.666 -51.5 39.999
s-25.5 38 -33.5 62s-12 50.667 -12 80v514h120zM301.001 -79.998c-7.33301 -18.667 -17.668 -33.334 -31.001 -44.001s-27.666 -16 -42.999 -16c-16 0 -29.667 5 -41 15s-17 22.333 -17 37s6.83301 29.834 20.5 45.501s33.167 30.5 58.5 44.5h11
c-17.333 -9.33301 -29.333 -19.833 -36 -31.5s-10 -23.167 -10 -34.5c0 -14 4 -26 12 -36s17.667 -15 29 -15c7.33301 0 14.833 3 22.5 9s14.167 15.667 19.5 29z" />
    <glyph glyph-name="uogonek" unicode="&#x173;" horiz-adv-x="348"
d="M207 62c-9.33301 -25.333 -20.168 -43.667 -32.501 -55s-27.833 -17 -46.5 -17c-14 0 -27 2.83301 -39 8.5s-22.5 13.5 -31.5 23.5s-16.167 21.5 -21.5 34.5s-8 26.833 -8 41.5v397h118v-449c0 -26 4.66699 -39 14 -39c5.33301 0 10.833 3 16.5 9
s10.834 13.5 15.501 22.5s8.66699 18.667 12 29s5 19.833 5 28.5v399h111v-495h-111v62h-2zM264.998 -80.001c-7.33301 -18.667 -17.668 -33.334 -31.001 -44.001s-27.666 -16 -42.999 -16c-16 0 -29.667 5 -41 15s-17 22.333 -17 37s6.83301 29.834 20.5 45.501
s33.167 30.5 58.5 44.5h11c-17.333 -9.33301 -29.333 -19.833 -36 -31.5s-10 -23.167 -10 -34.5c0 -14 4 -26 12 -36s17.667 -15 29 -15c7.33301 0 14.833 3 22.5 9s14.167 15.667 19.5 29z" />
    <glyph glyph-name="Wcircumflex" unicode="&#x174;" horiz-adv-x="472"
d="M399 286h2l71 413h8l-118 -699h-30l-92 467h-2l-78 -467h-30l-137 699h123l81 -413h2l36 212l-40 201h123zM252 853h6l97 -114h-6l-95 50l-94 -50h-6z" />
    <glyph glyph-name="wcircumflex" unicode="&#x175;" horiz-adv-x="479"
d="M13 495h116l65 -272h2l40 177l-22 95h116l65 -272h2l61 272h8l-111 -495h-24l-90 379h-2l-84 -379h-24zM262 684h6l97 -114h-6l-95 50l-94 -50h-6z" />
    <glyph glyph-name="Ycircumflex" unicode="&#x176;" horiz-adv-x="321"
d="M228 351h2l91 348h8l-95 -364v-335h-121v316l-121 383h126zM181 853h6l97 -114h-6l-95 50l-94 -50h-6z" />
    <glyph glyph-name="ycircumflex" unicode="&#x177;" horiz-adv-x="309"
d="M130 494l80 -295h2l76 295h8l-170 -669h-9l45 175h-16l-133 494h117zM172 684h6l97 -114h-6l-95 50l-94 -50h-6z" />
    <glyph glyph-name="Ydieresis" unicode="&#x178;" horiz-adv-x="321"
d="M228 351h2l91 348h8l-95 -364v-335h-121v316l-121 383h126zM86 791c0 11.333 3.5 20.5 10.5 27.5s16.167 10.5 27.5 10.5s20.666 -3.5 27.999 -10.5s11 -16.167 11 -27.5s-3.66699 -20.5 -11 -27.5s-16.666 -10.5 -27.999 -10.5s-20.5 3.5 -27.5 10.5
s-10.5 16.167 -10.5 27.5zM203 791c0 11.333 3.66699 20.5 11 27.5s16.666 10.5 27.999 10.5s20.5 -3.5 27.5 -10.5s10.5 -16.167 10.5 -27.5s-3.5 -20.5 -10.5 -27.5s-16.167 -10.5 -27.5 -10.5s-20.666 3.5 -27.999 10.5s-11 16.167 -11 27.5z" />
    <glyph glyph-name="Zacute" unicode="&#x179;" horiz-adv-x="379"
d="M54 693v6h295v-6l-205 -687h216v-6h-341v6l205 687h-170zM187 739l33 114h80l-107 -114h-6z" />
    <glyph glyph-name="zacute" unicode="&#x17a;" horiz-adv-x="330"
d="M27 0v6l160 483h-127v6h252v-6l-160 -483h161v-6h-286zM167 570l33 114h80l-107 -114h-6z" />
    <glyph glyph-name="Zdotaccent" unicode="&#x17b;" horiz-adv-x="379"
d="M54 693v6h295v-6l-205 -687h216v-6h-341v6l205 687h-170zM166 794c0 11.333 3.5 20.5 10.5 27.5s16.167 10.5 27.5 10.5s20.666 -3.5 27.999 -10.5s11 -16.167 11 -27.5s-3.66699 -20.666 -11 -27.999s-16.666 -11 -27.999 -11s-20.5 3.66699 -27.5 11
s-10.5 16.666 -10.5 27.999z" />
    <glyph glyph-name="zdotaccent" unicode="&#x17c;" horiz-adv-x="330"
d="M27 0v6l160 483h-127v6h252v-6l-160 -483h161v-6h-286zM146 625c0 11.333 3.5 20.5 10.5 27.5s16.167 10.5 27.5 10.5s20.666 -3.5 27.999 -10.5s11 -16.167 11 -27.5s-3.66699 -20.666 -11 -27.999s-16.666 -11 -27.999 -11s-20.5 3.66699 -27.5 11
s-10.5 16.666 -10.5 27.999z" />
    <glyph glyph-name="Zcaron" unicode="&#x17d;" horiz-adv-x="379"
d="M54 693v6h295v-6l-205 -687h216v-6h-341v6l205 687h-170zM110 853l94 -50l95 50h6l-97 -114h-6l-98 114h6z" />
    <glyph glyph-name="zcaron" unicode="&#x17e;" horiz-adv-x="330"
d="M27 0v6l160 483h-127v6h252v-6l-160 -483h161v-6h-286zM90 684l94 -50l95 50h6l-97 -114h-6l-98 114h6z" />
    <glyph glyph-name="florin" unicode="&#x192;" horiz-adv-x="219"
d="M22 -166c-36 0 -69.333 10.667 -100 32l3 4c12.667 -8 25 -14.333 37 -19s22.667 -7 32 -7c17.333 0 31.666 7.83301 42.999 23.5s17 36.167 17 61.5v338h-85v6h85v283c0 22 3.5 42.5 10.5 61.5s17 35.167 30 48.5s28.333 23.833 46 31.5s36.834 11.5 57.501 11.5
c35.333 0 68.333 -10.667 99 -32l-4 -5c-22.667 16.667 -43.667 25 -63 25s-35 -7.83301 -47 -23.5s-18 -35.834 -18 -60.501v-340h85v-6h-85v-275c0 -23.333 -3.5 -44.666 -10.5 -63.999s-16.667 -36 -29 -50s-27.333 -24.833 -45 -32.5s-37.167 -11.5 -58.5 -11.5z" />
    <glyph glyph-name="AEacute" unicode="&#x1fc;" horiz-adv-x="433"
d="M414 699v-6h-121v-333h100v-6h-100v-348h121v-7h-241v218h-131l-56 -218h-8l180 700h256zM44 223h129v469h-8zM267 739l33 114h80l-107 -114h-6z" />
    <glyph glyph-name="aeacute" unicode="&#x1fd;" horiz-adv-x="504"
d="M190 444c0 16.667 -4.49609 29.5 -13.4961 38.5s-21.167 13.5 -36.5 13.5c-8 0 -16.667 -1.33301 -26 -4s-18.333 -6.33398 -27 -11.001s-16.834 -10 -24.501 -16s-13.834 -12.333 -18.501 -19l-5 4c13.333 17.333 31.166 30.833 53.499 40.5s46.166 14.5 71.499 14.5
c34.667 0 64 -9 88 -27h2c24 18 51.333 27 82 27c20.667 0 40 -4 58 -12s33.667 -18.833 47 -32.5s23.833 -29.667 31.5 -48s11.5 -37.833 11.5 -58.5v-105h-179v-186c0 -20 5.16699 -35.667 15.5 -47s24.5 -17 42.5 -17c11.333 0 23 2.33301 35 7s23.167 11 33.5 19
s19.833 17.333 28.5 28s15.334 22 20.001 34l5 -2c-13.333 -30 -32.5 -53.333 -57.5 -70s-53.833 -25 -86.5 -25c-30.667 0 -57.834 7 -81.501 21s-41.5 33.667 -53.5 59h-2c-21.333 -53.333 -54 -80 -98 -80c-26.667 0 -48 9.83301 -64 29.5s-24 45.834 -24 78.501v46
c0 20.667 2.83301 38.667 8.5 54s15.167 28.5 28.5 39.5s31 20.5 53 28.5s49.333 15.333 82 22v156zM305.004 452v-197h64v197c0 13.333 -3.16699 24.5 -9.5 33.5s-13.833 13.5 -22.5 13.5c-9.33301 0 -17 -4.5 -23 -13.5s-9 -20.167 -9 -33.5zM153.004 19
c7.33301 0 15.334 5.49805 24.001 16.498s16.667 25.833 24 44.5c-7.33301 18.667 -11 37.334 -11 56.001v146c-13.333 -3.33301 -23.833 -7 -31.5 -11s-13.334 -9.16699 -17.001 -15.5s-6 -14 -7 -23s-1.5 -20.5 -1.5 -34.5v-140c0 -11.333 1.83301 -20.666 5.5 -27.999
s8.5 -11 14.5 -11zM234.005 569.998l33 114h80l-107 -114h-6z" />
    <glyph glyph-name="Oslashacute" unicode="&#x1fe;" horiz-adv-x="405"
d="M33 523c0 26.667 4.33398 51.332 13.001 73.999s20.5 42.334 35.5 59.001s32.833 29.667 53.5 39s43.334 14 68.001 14c25.333 0 48.666 -5 69.999 -15s39.666 -23.667 54.999 -41l23 52l7 -4l-24 -55c26 -33.333 39 -74.333 39 -123v-342
c0 -28 -4.16699 -53.667 -12.5 -77s-20 -43.5 -35 -60.5s-33 -30.167 -54 -39.5s-43.833 -14 -68.5 -14c-25.333 0 -48.833 5.16699 -70.5 15.5s-40.167 24.5 -55.5 42.5l-23 -54l-7 3l25 58c-26 34 -39 76 -39 126v342zM154.001 246.998l98 227.999v138
c0 32 -3.83301 55 -11.5 69s-20.167 21 -37.5 21s-29.833 -7.16699 -37.5 -21.5s-11.5 -37.166 -11.5 -68.499v-366zM154.001 81.9971c0 -30 3.83301 -51.833 11.5 -65.5s20.167 -20.5 37.5 -20.5s29.833 6.66699 37.5 20s11.5 35.333 11.5 66v373l-98 -229v-144z
M185.001 738.997l33 114h80l-107 -114h-6z" />
    <glyph glyph-name="oslashacute" unicode="&#x1ff;" horiz-adv-x="351"
d="M60 46c-21.333 25.333 -31.999 53.999 -31.999 85.999v227c0 19.333 4 37.833 12 55.5s18.667 33.167 32 46.5s28.833 24 46.5 32s36.167 12 55.5 12c21.333 0 41.666 -4.66699 60.999 -14s36 -21.666 50 -36.999l27 49l7 -3l-29 -52c22 -26 33 -55.667 33 -89v-227
c0 -18.667 -3.83301 -36.667 -11.5 -54s-18.167 -32.5 -31.5 -45.5s-28.833 -23.333 -46.5 -31s-36.5 -11.5 -56.5 -11.5c-21.333 0 -41.833 4.5 -61.5 13.5s-36.167 21.167 -49.5 36.5l-28 -50l-6 4zM176.001 498.999c-9.33301 0 -17.167 -4.33301 -23.5 -13
s-9.5 -19.667 -9.5 -33v-257l65 118v139c0 13.333 -3 24.333 -9 33s-13.667 13 -23 13zM143 39.999c0 -13.333 3.16797 -24 9.50098 -32s14.166 -12 23.499 -12c10 0 17.833 4 23.5 12s8.5 18.667 8.5 32v258l-65 -118v-140zM156.001 569.999l33 114h80l-107 -114h-6z" />
    <glyph glyph-name="uni0218" unicode="&#x218;" horiz-adv-x="337"
d="M203 79c0 34.667 -11 76.9951 -33 126.995l-107 261c-14.667 36 -22 69.667 -22 101c0 21.333 3.16699 40.5 9.5 57.5s15.333 31.833 27 44.5s25.667 22.334 42 29.001s34.5 10 54.5 10c50.667 0 93.334 -21 128.001 -63l-4 -4c-12.667 16 -28 29.333 -46 40
s-34.333 16 -49 16c-16.667 0 -29.667 -6.5 -39 -19.5s-14 -31.167 -14 -54.5c0 -29.333 9.66699 -67.333 29 -114l124 -307c5.33301 -13.333 9.33301 -26.166 12 -38.499s4 -24.166 4 -35.499c0 -19.333 -4 -37.5 -12 -54.5s-18.833 -31.667 -32.5 -44
s-29.834 -22.166 -48.501 -29.499s-38.667 -11 -60 -11c-22 0 -44.667 3.5 -68 10.5s-45 16.833 -65 29.5l3 5c18 -11.333 36.5 -20.166 55.5 -26.499s35.5 -9.5 49.5 -9.5c41.333 0 62 26.667 62 80zM200 -110.005c-5.33301 -2.66699 -10.334 -4.83301 -15.001 -6.5
s-9.66699 -2.5 -15 -2.5c-12 0 -21.833 4 -29.5 12s-11.5 18.333 -11.5 31c0 13.333 4 24 12 32s18.667 12 32 12c14.667 0 26.167 -5.5 34.5 -16.5s12.5 -26.5 12.5 -46.5c0 -23.333 -6.16699 -42.333 -18.5 -57s-30.5 -23.667 -54.5 -27l-1 6c20 2.66699 35.333 10 46 22
s13.334 25.667 8.00098 41z" />
    <glyph glyph-name="uni0219" unicode="&#x219;" horiz-adv-x="280"
d="M256 456c-11.333 12 -24.167 21.499 -38.5 28.499s-28.166 10.5 -41.499 10.5c-17.333 0 -31.333 -5.5 -42 -16.5s-16 -24.833 -16 -41.5c0 -16 5.66699 -34.333 17 -55l122 -218c12.667 -23.333 19 -43.666 19 -60.999c0 -16 -3.66699 -30.833 -11 -44.5
s-17.5 -25.5 -30.5 -35.5s-28.167 -18 -45.5 -24s-35.666 -9 -54.999 -9c-48.667 0 -88 17.667 -118 53l5 4c11.333 -14 25.666 -25.5 42.999 -34.5s33.666 -13.5 48.999 -13.5c16.667 0 30.167 5 40.5 15s15.5 23.333 15.5 40c0 22 -10 50 -30 84l-98 173
c-16 28 -24 54.333 -24 79c0 16 3.5 31 10.5 45s16.5 26.167 28.5 36.5s26.167 18.5 42.5 24.5s33.833 9 52.5 9c43.333 0 80 -15 110 -45zM164.999 -110.001c-5.33301 -2.66699 -10.334 -4.83301 -15.001 -6.5s-9.66699 -2.5 -15 -2.5c-12 0 -21.833 4 -29.5 12
s-11.5 18.333 -11.5 31c0 13.333 4 24 12 32s18.667 12 32 12c14.667 0 26.167 -5.5 34.5 -16.5s12.5 -26.5 12.5 -46.5c0 -23.333 -6.16699 -42.333 -18.5 -57s-30.5 -23.667 -54.5 -27l-1 6c20 2.66699 35.333 10 46 22s13.334 25.667 8.00098 41z" />
    <glyph glyph-name="uni021A" unicode="&#x21a;" horiz-adv-x="327"
d="M334 693h-111v-693h-120v693h-111v6h342v-6zM193 -106c-5.33301 -2.66699 -10.334 -4.83301 -15.001 -6.5s-9.66699 -2.5 -15 -2.5c-12 0 -21.833 4 -29.5 12s-11.5 18.333 -11.5 31c0 13.333 4 24 12 32s18.667 12 32 12c14.667 0 26.167 -5.5 34.5 -16.5
s12.5 -26.5 12.5 -46.5c0 -23.333 -6.16699 -42.333 -18.5 -57s-30.5 -23.667 -54.5 -27l-1 6c20 2.66699 35.333 10 46 22s13.334 25.667 8.00098 41z" />
    <glyph glyph-name="uni021B" unicode="&#x21b;" horiz-adv-x="220"
d="M129 -10c-26 0 -46.5029 9.83203 -61.5029 29.499s-22.5 47.5 -22.5 83.5v386h-45v6h45v114l111 41v-155h80v-6h-80v-432c0 -13.333 2.33301 -23.666 7 -30.999s11.334 -11 20.001 -11c15.333 0 31.333 10.333 48 31l5 -3c-13.333 -16 -29.666 -28.833 -48.999 -38.5
s-38.666 -14.5 -57.999 -14.5zM162.997 -110.001c-5.33301 -2.66699 -10.334 -4.83301 -15.001 -6.5s-9.66699 -2.5 -15 -2.5c-12 0 -21.833 4 -29.5 12s-11.5 18.333 -11.5 31c0 13.333 4 24 12 32s18.667 12 32 12c14.667 0 26.167 -5.5 34.5 -16.5s12.5 -26.5 12.5 -46.5
c0 -23.333 -6.16699 -42.333 -18.5 -57s-30.5 -23.667 -54.5 -27l-1 6c20 2.66699 35.333 10 46 22s13.334 25.667 8.00098 41z" />
    <glyph glyph-name="uni0237" unicode="&#x237;" horiz-adv-x="225"
d="M185 46c0 -24 -2.66406 -46.168 -7.99707 -66.501s-14 -39.166 -26 -56.499s-27.333 -33.833 -46 -49.5s-41.667 -31.5 -69 -47.5l-3 4c7.33301 6.66699 13.666 12.667 18.999 18s9.66602 11.5 12.999 18.5s5.66602 15.5 6.99902 25.5s2 22.667 2 38v565h111v-449z" />
    <glyph glyph-name="circumflex" unicode="&#x2c6;" horiz-adv-x="261"
d="M128 682h6l97 -114h-6l-95 50l-94 -50h-6z" />
    <glyph glyph-name="caron" unicode="&#x2c7;" horiz-adv-x="261"
d="M36 682l94 -50l95 50h6l-97 -114h-6l-98 114h6z" />
    <glyph glyph-name="breve" unicode="&#x2d8;" horiz-adv-x="229"
d="M193 671l6.00195 -0.000976562c0 -30 -8 -54.333 -24 -73s-36.333 -28 -61 -28s-44.834 9.33301 -60.501 28s-23.5 43 -23.5 73h6c0 -14 7.66699 -26 23 -36s34 -15 56 -15c21.333 0 39.666 4.83301 54.999 14.5s23 21.834 23 36.501z" />
    <glyph glyph-name="dotaccent" unicode="&#x2d9;" horiz-adv-x="137"
d="M30 623c0 11.333 3.5 20.5 10.5 27.5s16.167 10.5 27.5 10.5s20.666 -3.5 27.999 -10.5s11 -16.167 11 -27.5s-3.66699 -20.666 -11 -27.999s-16.666 -11 -27.999 -11s-20.5 3.66699 -27.5 11s-10.5 16.666 -10.5 27.999z" />
    <glyph glyph-name="ring" unicode="&#x2da;" horiz-adv-x="173"
d="M31 625c0 15.333 5.49902 28.5 16.499 39.5s24.167 16.5 39.5 16.5c16 0 29.5 -5.5 40.5 -16.5s16.5 -24.167 16.5 -39.5c0 -16 -5.66699 -29.5 -17 -40.5s-24.666 -16.5 -39.999 -16.5s-28.5 5.5 -39.5 16.5s-16.5 24.5 -16.5 40.5zM36.999 625
c0 -14 4.83301 -26 14.5 -36s21.5 -15 35.5 -15s25.833 5 35.5 15s14.5 22 14.5 36s-4.83301 25.833 -14.5 35.5s-21.5 14.5 -35.5 14.5s-25.833 -4.83301 -35.5 -14.5s-14.5 -21.5 -14.5 -35.5z" />
    <glyph glyph-name="ogonek" unicode="&#x2db;" horiz-adv-x="193"
d="M163 -81c-7.33301 -18.667 -17.668 -33.334 -31.001 -44.001s-27.666 -16 -42.999 -16c-16 0 -29.667 5 -41 15s-17 22.333 -17 37s6.83301 29.834 20.5 45.501s33.167 30.5 58.5 44.5h11c-17.333 -9.33301 -29.333 -19.833 -36 -31.5s-10 -23.167 -10 -34.5
c0 -14 4 -26 12 -36s17.667 -15 29 -15c7.33301 0 14.833 3 22.5 9s14.167 15.667 19.5 29z" />
    <glyph glyph-name="tilde" unicode="&#x2dc;" horiz-adv-x="254"
d="M35 594l-5.00098 2c18 42 41.333 63 70 63c10 0 19.333 -2 28 -6l32 -14c9.33301 -4 18.333 -6 27 -6c14.667 0 25.334 8 32.001 24l5 -3c-18 -43.333 -41.667 -65 -71 -65c-10 0 -20.333 2.33301 -31 7l-21 10c-9.33301 4 -16.833 7 -22.5 9s-10.5 3 -14.5 3
c-12 0 -21.667 -8 -29 -24z" />
    <glyph glyph-name="hungarumlaut" unicode="&#x2dd;" horiz-adv-x="269"
d="M135 568l33 114h71l-98 -114h-6zM30 568l33 114h70l-97 -114h-6z" />
    <glyph glyph-name="uni03BC" unicode="&#x3bc;" horiz-adv-x="348"
d="M162 -1c-5.33301 -3.33301 -10.668 -5.33301 -16.001 -6v-160h-118v662h118v-450c0 -25.333 4.66699 -38 14 -38c5.33301 0 10.833 3 16.5 9s10.834 13.5 15.501 22.5s8.66699 18.5 12 28.5s5 19.333 5 28v400h111v-495h-111v62h-2
c-12.667 -32.667 -27.667 -53.667 -45 -63z" />
    <glyph glyph-name="uni0400" unicode="&#x400;" horiz-adv-x="297"
d="M279 699v-6h-121v-333h100v-6h-100v-348h121v-6h-241v699h241zM172 739l-107 114h80l33 -114h-6z" />
    <glyph glyph-name="uni0401" unicode="&#x401;" horiz-adv-x="297"
d="M279 699v-6h-121v-333h100v-6h-100v-348h121v-6h-241v699h241zM64 791c0 11.333 3.5 20.5 10.5 27.5s16.167 10.5 27.5 10.5s20.666 -3.5 27.999 -10.5s11 -16.167 11 -27.5s-3.66699 -20.5 -11 -27.5s-16.666 -10.5 -27.999 -10.5s-20.5 3.5 -27.5 10.5
s-10.5 16.167 -10.5 27.5zM181 791c0 11.333 3.66699 20.5 11 27.5s16.666 10.5 27.999 10.5s20.5 -3.5 27.5 -10.5s10.5 -16.167 10.5 -27.5s-3.5 -20.5 -10.5 -27.5s-16.167 -10.5 -27.5 -10.5s-20.666 3.5 -27.999 10.5s-11 16.167 -11 27.5z" />
    <glyph glyph-name="uni0402" unicode="&#x402;" horiz-adv-x="412"
d="M309 693l-110.997 0.000976562v-260h2c9.33301 25.333 20.333 43.666 33 54.999s28.334 17 47.001 17c14 0 27 -2.83301 39 -8.5s22.5 -13.334 31.5 -23.001s16.167 -21 21.5 -34s8 -26.833 8 -41.5v-352c0 -24 -3 -46.167 -9 -66.5s-15.333 -39.166 -28 -56.499
s-28.834 -33.833 -48.501 -49.5s-43.167 -31.5 -70.5 -47.5l-3 4c7.33301 6.66699 13.666 12.667 18.999 18s9.66602 11.5 12.999 18.5s5.66602 15.5 6.99902 25.5s2 22.667 2 38v520c0 25.333 -4.66699 38 -14 38c-4.66699 0 -10 -3 -16 -9s-11.5 -13.5 -16.5 -22.5
s-9.16699 -18.5 -12.5 -28.5s-5 -19.333 -5 -28v-400h-120v693h-86v6h317v-6z" />
    <glyph glyph-name="uni0403" unicode="&#x403;" horiz-adv-x="263"
d="M38 699h233v-6h-113v-693h-120v699zM132 739l33 114h80l-107 -114h-6z" />
    <glyph glyph-name="uni0404" unicode="&#x404;" horiz-adv-x="359"
d="M33 522c0 27.333 4.16602 52.5 12.499 75.5s20 42.667 35 59s32.833 29.166 53.5 38.499s43.334 14 68.001 14c53.333 0 97.333 -21 132 -63l-5 -3c-15.333 18 -32.666 32 -51.999 42s-39 15 -59 15c-23.333 0 -40 -7.16699 -50 -21.5s-15 -37.833 -15 -70.5v-255h132v-6
h-132v-257c0 -34 4.33301 -57.667 13 -71s24.667 -20 48 -20c15.333 0 30.166 2.5 44.499 7.5s27.666 11.833 39.999 20.5s23 18.834 32 30.501s15.5 24.167 19.5 37.5l5 -2c-11.333 -32 -30.666 -57.167 -57.999 -75.5s-59 -27.5 -95 -27.5
c-24.667 0 -47.5 4.66699 -68.5 14s-38.833 22.5 -53.5 39.5s-26.167 37.333 -34.5 61s-12.5 49.5 -12.5 77.5v340z" />
    <glyph glyph-name="uni0405" unicode="&#x405;" horiz-adv-x="337"
d="M203 79c0 34.667 -11 76.9951 -33 126.995l-107 261c-14.667 36 -22 69.667 -22 101c0 21.333 3.16699 40.5 9.5 57.5s15.333 31.833 27 44.5s25.667 22.334 42 29.001s34.5 10 54.5 10c50.667 0 93.334 -21 128.001 -63l-4 -4c-12.667 16 -28 29.333 -46 40
s-34.333 16 -49 16c-16.667 0 -29.667 -6.5 -39 -19.5s-14 -31.167 -14 -54.5c0 -29.333 9.66699 -67.333 29 -114l124 -307c5.33301 -13.333 9.33301 -26.166 12 -38.499s4 -24.166 4 -35.499c0 -19.333 -4 -37.5 -12 -54.5s-18.833 -31.667 -32.5 -44
s-29.834 -22.166 -48.501 -29.499s-38.667 -11 -60 -11c-22 0 -44.667 3.5 -68 10.5s-45 16.833 -65 29.5l3 5c18 -11.333 36.5 -20.166 55.5 -26.499s35.5 -9.5 49.5 -9.5c41.333 0 62 26.667 62 80z" />
    <glyph glyph-name="uni0406" unicode="&#x406;" horiz-adv-x="196"
d="M158 699v-699h-120v699h120z" />
    <glyph glyph-name="uni0407" unicode="&#x407;" horiz-adv-x="196"
d="M158 699v-699h-120v699h120zM1 791c0 11.333 3.5 20.5 10.5 27.5s16.167 10.5 27.5 10.5s20.666 -3.5 27.999 -10.5s11 -16.167 11 -27.5s-3.66699 -20.5 -11 -27.5s-16.666 -10.5 -27.999 -10.5s-20.5 3.5 -27.5 10.5s-10.5 16.167 -10.5 27.5zM118 791
c0 11.333 3.66699 20.5 11 27.5s16.666 10.5 27.999 10.5s20.5 -3.5 27.5 -10.5s10.5 -16.167 10.5 -27.5s-3.5 -20.5 -10.5 -27.5s-16.167 -10.5 -27.5 -10.5s-20.666 3.5 -27.999 10.5s-11 16.167 -11 27.5z" />
    <glyph glyph-name="uni0408" unicode="&#x408;" horiz-adv-x="271"
d="M-7 34l4.00195 4.00098c11.333 -10.667 23.666 -19.334 36.999 -26.001s25.666 -10 36.999 -10c13.333 0 23.666 5.5 30.999 16.5s11 25.833 11 44.5v636h120v-543c0 -23.333 -3.5 -45 -10.5 -65s-16.667 -37.5 -29 -52.5s-26.833 -26.833 -43.5 -35.5
s-34.667 -13 -54 -13c-37.333 0 -71.666 14.667 -102.999 44z" />
    <glyph glyph-name="uni0409" unicode="&#x409;" horiz-adv-x="665"
d="M445 393l44.002 0.000976562c24.667 0 46.667 -4.16699 66 -12.5s35.833 -19.833 49.5 -34.5s24 -31.834 31 -51.501s10.5 -40.5 10.5 -62.5v-76c0 -22 -3.83301 -42.5 -11.5 -61.5s-18.167 -35.5 -31.5 -49.5s-29 -25 -47 -33s-37.333 -12 -58 -12h-173v693h-103
l-14 -497c-2 -66.667 -15.833 -117.667 -41.5 -153s-58.167 -53 -97.5 -53c-26 0 -51.667 7.66699 -77 23l3 6c17.333 -11.333 33.666 -17 48.999 -17c12.667 0 22.667 7.16699 30 21.5s11.666 40.833 12.999 79.5l14 596h344v-306zM526.002 266.001
c0 44 -4.33203 75.165 -12.999 93.498s-22 27.5 -40 27.5h-28v-381h36c7.33301 0 13.666 1.66699 18.999 5s10 9.33301 14 18s7 20.334 9 35.001s3 33.334 3 56.001v146z" />
    <glyph glyph-name="uni040A" unicode="&#x40a;" horiz-adv-x="595"
d="M158 699l0.000976562 -346.999h97v347h121v-347h44c24.667 0 46.667 -4.16699 66 -12.5s35.666 -19.833 48.999 -34.5s23.5 -31.834 30.5 -51.501s10.5 -40.5 10.5 -62.5v-35c0 -22 -3.83301 -42.5 -11.5 -61.5s-18.167 -35.5 -31.5 -49.5s-29 -25 -47 -33
s-37.333 -12 -58 -12h-173v346h-97v-346h-120v699h120zM456.001 225.001c0 44 -4.33203 75.165 -12.999 93.498s-21.667 27.5 -39 27.5h-28v-340h35c7.33301 0 13.666 1.66699 18.999 5s10 9.33301 14 18s7 20.334 9 35.001s3 33.334 3 56.001v105z" />
    <glyph glyph-name="uni040B" unicode="&#x40b;" horiz-adv-x="412"
d="M309 693l-111.001 0.00195312v-260h2c9.33301 25.333 20.333 43.666 33 54.999s28.334 17 47.001 17c14 0 27 -2.83301 39 -8.5s22.5 -13.334 31.5 -23.001s16.167 -21 21.5 -34s8 -26.833 8 -41.5v-398h-118v450c0 25.333 -4.66699 38 -14 38c-4.66699 0 -10 -3 -16 -9
s-11.5 -13.5 -16.5 -22.5s-9.16699 -18.5 -12.5 -28.5s-5 -19.333 -5 -28v-400h-120v693h-86v6h317v-6z" />
    <glyph glyph-name="uni040C" unicode="&#x40c;" horiz-adv-x="412"
d="M295 0l-92 307c-6.66699 22 -13.167 37.167 -19.5 45.5s-13.833 12.5 -22.5 12.5h-2v-365h-121v699h121v-328h30l158 328h9l-159 -328h22c12 0 23.333 -1.16699 34 -3.5s20.667 -6.83301 30 -13.5s18 -16 26 -28s15.333 -28 22 -48l89 -278h-125zM188 739l33 114h80
l-107 -114h-6z" />
    <glyph glyph-name="uni040D" unicode="&#x40d;" horiz-adv-x="360"
d="M327 699v-698h-6v649h-2l-256 -649h-30v698h6v-427h3l15 40l153 387h117zM178 739l-107 114h80l33 -114h-6z" />
    <glyph glyph-name="uni040E" unicode="&#x40e;" horiz-adv-x="246"
d="M184 390h2l60 308h8l-123 -645c-3.33301 -18 -10.833 -32.333 -22.5 -43s-26.167 -16 -43.5 -16c-9.33301 0 -18.333 1.33301 -27 4l2 6c22.667 -5.33301 41 -3.5 55 5.5s23 23.833 27 44.5l6 24l-135 620h124zM215 842l6.00195 -0.000976562c0 -30 -8 -54.333 -24 -73
s-36.333 -28 -61 -28s-44.834 9.33301 -60.501 28s-23.5 43 -23.5 73h6c0 -14 7.66699 -26 23 -36s34 -15 56 -15c21.333 0 39.666 4.83301 54.999 14.5s23 21.834 23 36.501z" />
    <glyph glyph-name="uni040F" unicode="&#x40f;" horiz-adv-x="413"
d="M38 699h120v-693h97v693h120v-699h-135v-109h-68v109h-134v699z" />
    <glyph glyph-name="uni0410" unicode="&#x410;" horiz-adv-x="305"
d="M121 699h30l162 -699h-124l-51 218h-97l-41 -218h-8zM42 224h94l-51 220h-2z" />
    <glyph glyph-name="uni0411" unicode="&#x411;" horiz-adv-x="378"
d="M211 363c20 0 39 -4.33203 57 -12.999s33.667 -20.334 47 -35.001s24 -31.667 32 -51s12 -40 12 -62v-46c0 -22 -3.83301 -42.5 -11.5 -61.5s-18.167 -35.5 -31.5 -49.5s-29 -25 -47 -33s-37.333 -12 -58 -12h-173v699h261v-6h-141v-330h53zM239 236.001
c0 40 -3.83398 70.167 -11.501 90.5s-21.5 30.5 -41.5 30.5h-28v-351h36c18.667 0 30.834 9 36.501 27s8.5 47 8.5 87v116z" />
    <glyph glyph-name="uni0412" unicode="&#x412;" horiz-adv-x="378"
d="M344 509c0 -42.667 -9.33398 -76.832 -28.001 -102.499s-42 -40.167 -70 -43.5l-18 -2v-2l18 -2c16 -2 30.833 -7.5 44.5 -16.5s25.667 -20.5 36 -34.5s18.333 -29.833 24 -47.5s8.5 -36.5 8.5 -56.5v-46c0 -20 -3.5 -39.333 -10.5 -58s-17 -35.334 -30 -50.001
s-28.667 -26.334 -47 -35.001s-38.5 -13 -60.5 -13h-173v699h162c21.333 0 40.833 -3.66699 58.5 -11s32.834 -17.666 45.501 -30.999s22.5 -29 29.5 -47s10.5 -37.667 10.5 -59v-42zM185.999 363.002c8.66699 0 15.499 1.83594 20.499 5.50293s8.83301 9.66699 11.5 18
s4.33398 19.666 5.00098 33.999s1 32.166 1 53.499v110c0 21.333 -0.5 39 -1.5 53s-3 25.167 -6 33.5s-6.83301 14.166 -11.5 17.499s-11 5 -19 5h-28v-330h28zM238.998 236.005c0 45.333 -4.5 76.8311 -13.5 94.498s-22.167 26.5 -39.5 26.5h-28v-351h35
c7.33301 0 13.833 1.66699 19.5 5s10.5 9.33301 14.5 18s7 20.334 9 35.001s3 33.334 3 56.001v116z" />
    <glyph glyph-name="uni0413" unicode="&#x413;" horiz-adv-x="263"
d="M38 699h233v-6h-113v-693h-120v699z" />
    <glyph glyph-name="uni0414" unicode="&#x414;" horiz-adv-x="380"
d="M-7 -151v157h26c10 13.333 18.833 30.5 26.5 51.5s14 46.667 19 77s8.66699 66 11 107s3.5 88.5 3.5 142.5v315h253v-693h55v-157h-121v151h-266v-151h-7zM211 6l0.000976562 687h-126v-320c0 -40.667 -1 -80.167 -3 -118.5s-5.33301 -73.5 -10 -105.5
s-10.834 -60.333 -18.501 -85s-17.167 -44 -28.5 -58h186z" />
    <glyph glyph-name="uni0415" unicode="&#x415;" horiz-adv-x="297"
d="M279 699v-6h-121v-333h100v-6h-100v-348h121v-6h-241v699h241z" />
    <glyph glyph-name="uni0416" unicode="&#x416;" horiz-adv-x="628"
d="M511 0l-91.999 307c-6.66699 22 -13.167 37.167 -19.5 45.5s-13.833 12.5 -22.5 12.5h-2v-365h-121v365h-2c-8.66699 0 -16 -4.16699 -22 -12.5s-12.667 -23.5 -20 -45.5l-92 -307h-125l90 278c6 20 13.167 36 21.5 48s17.166 21.333 26.499 28s19.333 11.167 30 13.5
s22 3.5 34 3.5h21l-159 328h9l158 -328h30v328h121v-328h30l158 328h9l-159 -328h22c12 0 23.333 -1.16699 34 -3.5s20.667 -6.83301 30 -13.5s18 -16 26 -28s15.333 -28 22 -48l89 -278h-125z" />
    <glyph glyph-name="uni0417" unicode="&#x417;" horiz-adv-x="419"
d="M184 -10c-28.667 0 -56.167 3.49902 -82.5 10.499s-49.166 17.167 -68.499 30.5l3 5c17.333 -11.333 34.833 -19.5 52.5 -24.5s35.167 -7.5 52.5 -7.5c42.667 0 76.667 15.167 102 45.5s38 71.5 38 123.5v42c0 44 -9.66699 79.167 -29 105.5s-45 39.5 -77 39.5h-18v6h18
c30 0 53.333 12.833 70 38.5s25 61.167 25 106.5v29c0 46 -10.667 83.167 -32 111.5s-49 42.5 -83 42.5c-37.333 0 -73 -17 -107 -51l-4 3c18 20 40.333 35.5 67 46.5s55.334 16.5 86.001 16.5c27.333 0 52.666 -4.16699 75.999 -12.5s43.666 -20 60.999 -35
s31 -32.833 41 -53.5s15 -43.667 15 -69v-22c0 -44.667 -13.333 -80 -40 -106s-62 -40.667 -106 -44l-20 -2v-4l20 -2c46 -4.66699 83.667 -20.5 113 -47.5s44 -62.5 44 -106.5v-26c0 -28.667 -5.33301 -54.667 -16 -78s-25.667 -43.166 -45 -59.499s-42.333 -29 -69 -38
s-55.667 -13.5 -87 -13.5z" />
    <glyph glyph-name="uni0418" unicode="&#x418;" horiz-adv-x="360"
d="M327 699v-698h-6v649h-2l-256 -649h-30v698h6v-427h3l15 40l153 387h117z" />
    <glyph glyph-name="uni0419" unicode="&#x419;" horiz-adv-x="360"
d="M327 699v-698h-6v649h-2l-256 -649h-30v698h6v-427h3l15 40l153 387h117zM246 842l6.00195 -0.000976562c0 -30 -8 -54.333 -24 -73s-36.333 -28 -61 -28s-44.834 9.33301 -60.501 28s-23.5 43 -23.5 73h6c0 -14 7.66699 -26 23 -36s34 -15 56 -15
c21.333 0 39.666 4.83301 54.999 14.5s23 21.834 23 36.501z" />
    <glyph glyph-name="uni041A" unicode="&#x41a;" horiz-adv-x="412"
d="M295 0l-92 307c-6.66699 22 -13.167 37.167 -19.5 45.5s-13.833 12.5 -22.5 12.5h-2v-365h-121v699h121v-328h30l158 328h9l-159 -328h22c12 0 23.333 -1.16699 34 -3.5s20.667 -6.83301 30 -13.5s18 -16 26 -28s15.333 -28 22 -48l89 -278h-125z" />
    <glyph glyph-name="uni041B" unicode="&#x41b;" horiz-adv-x="483"
d="M-5 19c17.333 -11.333 33.668 -17 49.001 -17c12.667 0 22.667 7.16699 30 21.5s11.666 40.833 12.999 79.5l14 596h344v-699h-120v693h-103l-14 -497c-2 -66.667 -15.833 -117.667 -41.5 -153s-58.167 -53 -97.5 -53c-26 0 -51.667 7.66699 -77 23z" />
    <glyph glyph-name="uni041C" unicode="&#x41c;" horiz-adv-x="491"
d="M453 0h-120v656h-2l-101 -656h-30l-159 656h-2v-656h-6v699h122l96 -394l9 -40h2l7 40l61 394h123v-699z" />
    <glyph glyph-name="uni041D" unicode="&#x41d;" horiz-adv-x="413"
d="M158 699v-347h97v347h120v-699h-120v346h-97v-346h-120v699h120z" />
    <glyph glyph-name="uni041E" unicode="&#x41e;" horiz-adv-x="405"
d="M33 523c0 26.667 4.33203 51.3311 12.999 73.998s20.5 42.334 35.5 59.001s32.833 29.667 53.5 39s43.334 14 68.001 14s47.5 -4.66699 68.5 -14s39 -22.166 54 -38.499s26.667 -35.833 35 -58.5s12.5 -47.667 12.5 -75v-342c0 -28 -4.16699 -53.667 -12.5 -77
s-20 -43.5 -35 -60.5s-33 -30.167 -54 -39.5s-43.833 -14 -68.5 -14s-47.5 4.66699 -68.5 14s-39 22.5 -54 39.5s-26.667 37.167 -35 60.5s-12.5 49 -12.5 77v342zM153.999 81.9971c0 -30 3.83301 -51.834 11.5 -65.501s20.167 -20.5 37.5 -20.5s29.833 6.66699 37.5 20
s11.5 35.333 11.5 66v531c0 32 -3.83301 55 -11.5 69s-20.167 21 -37.5 21s-29.833 -7.16699 -37.5 -21.5s-11.5 -37.166 -11.5 -68.499v-531z" />
    <glyph glyph-name="uni041F" unicode="&#x41f;" horiz-adv-x="413"
d="M38 699h337v-699h-120v693h-97v-693h-120v699z" />
    <glyph glyph-name="uni0420" unicode="&#x420;" horiz-adv-x="370"
d="M192 699c22.667 0 43.5 -4.16895 62.5 -12.502s35.5 -19.666 49.5 -33.999s25 -31 33 -50s12 -39.167 12 -60.5v-49c0 -21.333 -3.83301 -41.5 -11.5 -60.5s-18.5 -35.667 -32.5 -50s-30.5 -25.666 -49.5 -33.999s-39.833 -12.5 -62.5 -12.5h-35v-336h-120v699h154z
M229 577.998c0 42.667 -3.66699 72.499 -11 89.499s-18.666 25.5 -33.999 25.5h-26v-351h29c15.333 0 26.166 8.33301 32.499 25s9.5 46.334 9.5 89.001v122z" />
    <glyph glyph-name="uni0421" unicode="&#x421;" horiz-adv-x="359"
d="M33 522c0 27.333 4.16699 52.5 12.5 75.5s20 42.667 35 59s33 29.166 54 38.499s43.833 14 68.5 14c53.333 0 97.333 -21 132 -63l-5 -3c-15.333 18 -32.666 32 -51.999 42s-39 15 -59 15c-23.333 0 -40 -7.16699 -50 -21.5s-15 -37.833 -15 -70.5v-518
c0 -34 4.33301 -57.667 13 -71s24.667 -20 48 -20c15.333 0 30.166 2.5 44.499 7.5s27.666 11.833 39.999 20.5s23 18.834 32 30.501s15.5 24.167 19.5 37.5l5 -2c-11.333 -32 -30.666 -57.167 -57.999 -75.5s-59 -27.5 -95 -27.5c-25.333 0 -48.333 4.66699 -69 14
s-38.5 22.5 -53.5 39.5s-26.667 37.333 -35 61s-12.5 49.5 -12.5 77.5v340z" />
    <glyph glyph-name="uni0422" unicode="&#x422;" horiz-adv-x="327"
d="M334 693h-111v-693h-120v693h-111v6h342v-6z" />
    <glyph glyph-name="uni0423" unicode="&#x423;" horiz-adv-x="246"
d="M184 390h2l60 308h8l-123 -645c-3.33301 -18 -10.833 -32.333 -22.5 -43s-26.167 -16 -43.5 -16c-9.33301 0 -18.333 1.33301 -27 4l2 6c22.667 -5.33301 41 -3.5 55 5.5s23 23.833 27 44.5l6 24l-135 620h124z" />
    <glyph glyph-name="uni0424" unicode="&#x424;" horiz-adv-x="465"
d="M230 30c-64 0.666992 -112.833 19.666 -146.5 56.999s-50.5 93.666 -50.5 168.999v206c0 64 17 114.333 51 151s82.667 55.334 146 56.001v61h6v-61c64 -0.666992 112.833 -19.167 146.5 -55.5s50.5 -86.833 50.5 -151.5v-206c0 -75.333 -16.833 -131.666 -50.5 -168.999
s-82.5 -56.333 -146.5 -57v-61h-6v61zM236 35.999c15.333 0 28 1.66504 38 4.99805s17.833 9.5 23.5 18.5s9.5 21.333 11.5 37s3 35.834 3 60.501v395c0 21.333 -1 39 -3 53s-5.83301 25.333 -11.5 34s-13.5 14.834 -23.5 18.501s-22.667 5.5 -38 5.5v-627zM154 156.997
c0 -24.667 1.00098 -44.833 3.00098 -60.5s5.83301 -28 11.5 -37s13.5 -15.167 23.5 -18.5s22.667 -5 38 -5v627c-15.333 0 -27.833 -2 -37.5 -6s-17.334 -10.5 -23.001 -19.5s-9.66699 -20.5 -12 -34.5s-3.5 -31 -3.5 -51v-395z" />
    <glyph glyph-name="uni0425" unicode="&#x425;" horiz-adv-x="328"
d="M209 416h2l94 283h8l-99 -300l122 -399h-126l-100 330h-1l-108 -330h-9l113 347l-108 352h126z" />
    <glyph glyph-name="uni0426" unicode="&#x426;" horiz-adv-x="433"
d="M38 699h120v-693h97v693h120v-693h79v-115h-69v109h-347v699z" />
    <glyph glyph-name="uni0427" unicode="&#x427;" horiz-adv-x="400"
d="M240 266c-11.333 -25.333 -24.998 -43.6699 -40.998 -55.0029s-33.667 -17 -53 -17c-14 0 -27.5 2.83301 -40.5 8.5s-24.5 13.667 -34.5 24s-18 22.833 -24 37.5s-9 31.334 -9 50.001v385h120v-434c0 -21.333 1.66699 -35.666 5 -42.999s8.33301 -11 15 -11
s13.667 2.83301 21 8.5s14.166 12.667 20.499 21s11.666 17.333 15.999 27s6.5 18.834 6.5 27.501v404h120v-699h-120v266h-2z" />
    <glyph glyph-name="uni0428" unicode="&#x428;" horiz-adv-x="589"
d="M38 699h120v-693h76v693h121v-693h75v693h120v-699h-512v699z" />
    <glyph glyph-name="uni0429" unicode="&#x429;" horiz-adv-x="608"
d="M38 699h120v-693h76v693h121v-693h75v693h120v-699h-512v699zM536 6h93v-115h-69v109h-24v6z" />
    <glyph glyph-name="uni042A" unicode="&#x42a;" horiz-adv-x="403"
d="M227 393c24.667 0 46.667 -4.16602 66 -12.499s35.833 -19.833 49.5 -34.5s24 -31.834 31 -51.501s10.5 -40.5 10.5 -62.5v-76c0 -22 -3.83301 -42.5 -11.5 -61.5s-18.167 -35.5 -31.5 -49.5s-29 -25 -47 -33s-37.333 -12 -58 -12h-173v693h-70v6h190v-306h44z
M264 266.001c0 44 -4.33203 75.165 -12.999 93.498s-22 27.5 -40 27.5h-28v-381h36c7.33301 0 13.666 1.66699 18.999 5s10 9.33301 14 18s7 20.334 9 35.001s3 33.334 3 56.001v146z" />
    <glyph glyph-name="uni042B" unicode="&#x42b;" horiz-adv-x="568"
d="M203 393c24.667 0 46.668 -4.16602 66.001 -12.499s35.666 -19.833 48.999 -34.5s23.5 -31.834 30.5 -51.501s10.5 -40.5 10.5 -62.5v-76c0 -22 -3.83301 -42.5 -11.5 -61.5s-18.167 -35.5 -31.5 -49.5s-29 -25 -47 -33s-37.333 -12 -58 -12h-173v699h121v-306h44z
M530.001 699.001v-699h-120v699h120zM239.001 266.001c0 44 -4.33203 75.165 -12.999 93.498s-21.667 27.5 -39 27.5h-28v-381h35c7.33301 0 13.666 1.66699 18.999 5s10 9.33301 14 18s7 20.334 9 35.001s3 33.334 3 56.001v146z" />
    <glyph glyph-name="uni042C" unicode="&#x42c;" horiz-adv-x="378"
d="M203 393c24.667 0 46.668 -4.16602 66.001 -12.499s35.666 -19.833 48.999 -34.5s23.5 -31.834 30.5 -51.501s10.5 -40.5 10.5 -62.5v-76c0 -22 -3.83301 -42.5 -11.5 -61.5s-18.167 -35.5 -31.5 -49.5s-29 -25 -47 -33s-37.333 -12 -58 -12h-173v699h121v-306h44z
M239.001 266.001c0 44 -4.33203 75.165 -12.999 93.498s-21.667 27.5 -39 27.5h-28v-381h35c7.33301 0 13.666 1.66699 18.999 5s10 9.33301 14 18s7 20.334 9 35.001s3 33.334 3 56.001v146z" />
    <glyph glyph-name="uni042D" unicode="&#x42d;"
d="M315 182c0 -28 -4.16895 -53.833 -12.502 -77.5s-19.833 -44 -34.5 -61s-32.334 -30.167 -53.001 -39.5s-43.667 -14 -69 -14c-35.333 0 -66.833 9.16699 -94.5 27.5s-47.167 43.5 -58.5 75.5l5 2c4 -13.333 10.667 -25.833 20 -37.5s20.166 -21.834 32.499 -30.501
s25.833 -15.5 40.5 -20.5s29.334 -7.5 44.001 -7.5c22.667 0 38.334 6.66699 47.001 20s13 37 13 71v257h-131v6h131v255c0 32.667 -5 56.167 -15 70.5s-26.667 21.5 -50 21.5c-20 0 -39.667 -5 -59 -15s-36.666 -24 -51.999 -42l-5 3c35.333 42 79.333 63 132 63
c24.667 0 47.334 -4.66699 68.001 -14s38.5 -22.166 53.5 -38.499s26.667 -36 35 -59s12.5 -48.167 12.5 -75.5v-340z" />
    <glyph glyph-name="uni042E" unicode="&#x42e;" horiz-adv-x="584"
d="M158 699l-0.000976562 -347.003h53v171c0 26.667 4.33301 51.334 13 74.001s20.5 42.334 35.5 59.001s32.833 29.667 53.5 39s43.334 14 68.001 14s47.5 -4.66699 68.5 -14s39 -22.166 54 -38.499s26.667 -35.833 35 -58.5s12.5 -47.667 12.5 -75v-342
c0 -28 -4.16699 -53.667 -12.5 -77s-20 -43.5 -35 -60.5s-33 -30.167 -54 -39.5s-43.833 -14 -68.5 -14s-47.5 4.66699 -68.5 14s-39 22.5 -54 39.5s-26.667 37.167 -35 60.5s-12.5 49 -12.5 77v165h-53v-346h-120v699h120zM331.999 81.9971
c0 -30 3.83203 -51.834 11.499 -65.501s20.167 -20.5 37.5 -20.5s29.833 6.66699 37.5 20s11.5 35.333 11.5 66v531c0 32 -3.66699 55 -11 69s-19.666 21 -36.999 21s-30 -7.16699 -38 -21.5s-12 -37.166 -12 -68.499v-531z" />
    <glyph glyph-name="uni042F" unicode="&#x42f;" horiz-adv-x="396"
d="M358 0l-119.999 0.000976562v346h-5c-6.66699 0 -12.167 -1 -16.5 -3s-8 -5.83301 -11 -11.5s-5.66699 -13.667 -8 -24s-4.83301 -23.5 -7.5 -39.5l-40 -268h-123l37 235c2 15.333 6.66699 29.5 14 42.5s16.333 24.5 27 34.5s22.5 18 35.5 24s26.167 9 39.5 9v3
c-20 2.66699 -38.167 8.5 -54.5 17.5s-30.333 20.5 -42 34.5s-20.834 29.833 -27.501 47.5s-10 36.167 -10 55.5v39c0 21.333 4 41.5 12 60.5s19 35.667 33 50s30.667 25.666 50 33.999s40.333 12.5 63 12.5h154v-699zM166.001 466.001
c0 -42.667 3.33203 -72.333 9.99902 -89s17.334 -25 32.001 -25h30v341h-26c-15.333 0 -26.833 -8.5 -34.5 -25.5s-11.5 -46.833 -11.5 -89.5v-112z" />
    </font>
</defs>
</svg>
